<svg width="21" height="26" viewBox="0 0 21 26" fill="none" xmlns="http://www.w3.org/2000/svg">
<path d="M10.5015 2.87945e-09C11.5973 -4.06745e-05 12.6505 0.430901 13.44 1.20237C14.2296 1.97384 14.6941 3.02584 14.736 4.13755L14.7389 4.30216H20.0818C20.3174 4.30293 20.5438 4.39534 20.7143 4.56038C20.8849 4.72542 20.9867 4.95054 20.9988 5.18945C21.0109 5.42835 20.9323 5.66288 20.7793 5.84478C20.6263 6.02669 20.4104 6.14216 20.1761 6.16742L20.0818 6.17266H19.2778L18.0228 23.0596C17.9633 23.8592 17.6084 24.6065 17.0293 25.1518C16.4501 25.697 15.6894 26 14.8996 26H6.10339C5.31354 26 4.55285 25.697 3.97369 25.1518C3.39454 24.6065 3.03968 23.8592 2.98021 23.0596L1.72445 6.17266H0.921183C0.693129 6.17277 0.473143 6.08698 0.303795 5.93191C0.134446 5.77684 0.0277741 5.5635 0.00442136 5.33318L0 5.23741C0 4.75332 0.362577 4.35453 0.826854 4.3074L0.921183 4.30216H6.26405C6.26405 3.16115 6.71049 2.06688 7.50516 1.26007C8.29984 0.453262 9.37765 2.87945e-09 10.5015 2.87945e-09ZM17.4303 6.17266H3.57272L4.81816 22.9189C4.84268 23.248 4.9887 23.5556 5.22701 23.78C5.46531 24.0045 5.77832 24.1293 6.10339 24.1295H14.8996C15.2248 24.1295 15.538 24.0048 15.7764 23.7803C16.0149 23.5558 16.161 23.2481 16.1856 22.9189L17.431 6.17266H17.4303ZM12.8966 10.1007C13.3734 10.1007 13.7662 10.4688 13.8133 10.9402L13.8177 11.036V19.2662C13.8188 19.5067 13.7287 19.7384 13.5659 19.9131C13.4032 20.0879 13.1804 20.1922 12.9438 20.2046C12.7072 20.2169 12.4751 20.1362 12.2956 19.9793C12.116 19.8224 12.003 19.6013 11.9798 19.362L11.9754 19.2662V11.036C11.9754 10.5197 12.3881 10.1007 12.8966 10.1007ZM8.10641 10.1007C8.58322 10.1007 8.97601 10.4688 9.02317 10.9402L9.02759 11.036V19.2662C9.0287 19.5067 8.9385 19.7384 8.77575 19.9131C8.613 20.0879 8.39021 20.1922 8.15364 20.2046C7.91707 20.2169 7.68492 20.1362 7.5054 19.9793C7.32588 19.8224 7.21281 19.6013 7.18965 19.362L7.18523 19.2662V11.036C7.18523 10.5197 7.59792 10.1007 8.10641 10.1007ZM10.5015 1.8705C9.88972 1.87046 9.30113 2.1081 8.85645 2.53466C8.41178 2.96122 8.14473 3.54438 8.1101 4.16449L8.10641 4.30216H12.8966C12.8966 3.65724 12.6442 3.03874 12.1951 2.58272C11.7459 2.1267 11.1367 1.8705 10.5015 1.8705Z" fill="black"/>
</svg>
