<svg width="21" height="21" viewBox="0 0 21 21" fill="none" xmlns="http://www.w3.org/2000/svg">
<path d="M0 16.6256V21H4.37441L17.276 8.09842L12.9016 3.72401L0 16.6256ZM20.6589 4.71554C20.767 4.60763 20.8528 4.47944 20.9113 4.33832C20.9699 4.19721 21 4.04593 21 3.89316C21 3.74038 20.9699 3.5891 20.9113 3.44799C20.8528 3.30687 20.767 3.17869 20.6589 3.07077L17.9292 0.341138C17.8213 0.232999 17.6931 0.147205 17.552 0.088668C17.4109 0.0301309 17.2596 0 17.1068 0C16.9541 0 16.8028 0.0301309 16.6617 0.088668C16.5206 0.147205 16.3924 0.232999 16.2845 0.341138L14.1497 2.47585L18.5242 6.85026L20.6589 4.71554Z" fill="black"/>
</svg>
