<svg width="29" height="27" viewBox="0 0 29 27" fill="none" xmlns="http://www.w3.org/2000/svg">
<path d="M12.4074 24.5C12.4074 24.9945 12.2619 25.4778 11.9892 25.8889C11.7166 26.3 11.329 26.6205 10.8756 26.8097C10.4221 26.9989 9.92319 27.0484 9.44183 26.952C8.96047 26.8555 8.51831 26.6174 8.17127 26.2678C7.82423 25.9181 7.58789 25.4727 7.49214 24.9877C7.39639 24.5028 7.44553 24.0001 7.63335 23.5433C7.82117 23.0865 8.13923 22.696 8.54731 22.4213C8.95538 22.1466 9.43515 22 9.92595 22C10.5831 22.0033 11.2124 22.2677 11.677 22.7359C12.1417 23.204 12.4042 23.838 12.4074 24.5ZM22.8297 22C22.3389 22 21.8591 22.1466 21.451 22.4213C21.043 22.696 20.7249 23.0865 20.5371 23.5433C20.3493 24.0001 20.3001 24.5028 20.3959 24.9877C20.4916 25.4727 20.728 25.9181 21.075 26.2678C21.422 26.6174 21.8642 26.8555 22.3456 26.952C22.8269 27.0484 23.3259 26.9989 23.7793 26.8097C24.2327 26.6205 24.6203 26.3 24.893 25.8889C25.1656 25.4778 25.3112 24.9945 25.3112 24.5C25.3079 23.838 25.0454 23.204 24.5807 22.7359C24.1161 22.2677 23.4868 22.0033 22.8297 22ZM28.9465 6.9125L25.9439 17.4625C25.7347 18.1921 25.2963 18.8338 24.6946 19.2913C24.0929 19.7487 23.3602 19.9974 22.6063 20H10.1493C9.39544 19.9974 8.66274 19.7487 8.061 19.2913C7.45927 18.8338 7.02093 18.1921 6.81168 17.4625L3.82149 6.9375C3.82149 6.925 3.80908 6.9 3.80908 6.8875L2.70482 3H1.48889C1.09401 3 0.715308 2.84196 0.436086 2.56066C0.156865 2.27936 0 1.89782 0 1.5C0 1.10218 0.156865 0.720644 0.436086 0.43934C0.715308 0.158035 1.09401 0 1.48889 0H3.07704C3.61618 0.00411972 4.13978 0.182424 4.57083 0.508689C5.00189 0.834955 5.31765 1.29196 5.47168 1.8125L6.36501 5H27.5073C27.7376 5.00133 27.9645 5.05601 28.1704 5.15982C28.3764 5.26364 28.5559 5.4138 28.695 5.59868C28.8342 5.78357 28.9292 5.99823 28.9728 6.22605C29.0164 6.45387 29.0075 6.68874 28.9465 6.9125ZM25.5345 8H7.22113L9.66539 16.6375C9.69714 16.742 9.76122 16.8336 9.84827 16.8988C9.93533 16.964 10.0408 16.9995 10.1493 17H22.6063C22.7148 16.9995 22.8203 16.964 22.9073 16.8988C22.9944 16.8336 23.0585 16.742 23.0902 16.6375L25.5345 8Z" fill="white"/>
</svg>
