<svg width="25" height="23" viewBox="0 0 25 23" fill="none" xmlns="http://www.w3.org/2000/svg">
<path d="M10.6961 20.8704C10.6961 21.2916 10.5706 21.7033 10.3355 22.0535C10.1005 22.4037 9.76638 22.6767 9.37549 22.8379C8.9846 22.9991 8.55448 23.0413 8.13951 22.9591C7.72454 22.8769 7.34337 22.6741 7.0442 22.3762C6.74502 22.0784 6.54128 21.6989 6.45874 21.2858C6.3762 20.8727 6.41856 20.4445 6.58048 20.0554C6.74239 19.6663 7.01658 19.3337 7.36837 19.0996C7.72016 18.8656 8.13375 18.7407 8.55685 18.7407C9.12334 18.7435 9.66582 18.9688 10.0664 19.3676C10.467 19.7664 10.6933 20.3064 10.6961 20.8704ZM19.6808 18.7407C19.2577 18.7407 18.8441 18.8656 18.4923 19.0996C18.1405 19.3337 17.8663 19.6663 17.7044 20.0554C17.5425 20.4445 17.5001 20.8727 17.5826 21.2858C17.6652 21.6989 17.8689 22.0784 18.1681 22.3762C18.4673 22.6741 18.8484 22.8769 19.2634 22.9591C19.6784 23.0413 20.1085 22.9991 20.4994 22.8379C20.8903 22.6767 21.2244 22.4037 21.4594 22.0535C21.6945 21.7033 21.82 21.2916 21.82 20.8704C21.8172 20.3064 21.5909 19.7664 21.1903 19.3676C20.7897 18.9688 20.2472 18.7435 19.6808 18.7407ZM24.9539 5.88843L22.3655 14.8755C22.1851 15.497 21.8072 16.0436 21.2885 16.4333C20.7697 16.823 20.1381 17.0348 19.4882 17.037H8.74938C8.09952 17.0348 7.46788 16.823 6.94914 16.4333C6.43041 16.0436 6.05252 15.497 5.87214 14.8755L3.29439 5.90972C3.29439 5.89907 3.28369 5.87778 3.28369 5.86713L2.33174 2.55556H1.28353C0.943115 2.55556 0.616645 2.42093 0.375936 2.1813C0.135228 1.94167 0 1.61667 0 1.27778C0 0.93889 0.135228 0.613882 0.375936 0.374252C0.616645 0.134623 0.943115 0 1.28353 0H2.65262C3.1174 0.00350939 3.56878 0.155398 3.94037 0.433328C4.31197 0.711258 4.58418 1.10056 4.71696 1.54398L5.48708 4.25926H23.7132C23.9117 4.26039 24.1073 4.30697 24.2849 4.39541C24.4624 4.48384 24.6171 4.61175 24.7371 4.76925C24.857 4.92675 24.939 5.1096 24.9766 5.30367C25.0142 5.49774 25.0064 5.69782 24.9539 5.88843ZM22.0125 6.81481H6.22511L8.33223 14.1727C8.3596 14.2617 8.41485 14.3397 8.48989 14.3952C8.56494 14.4508 8.65586 14.481 8.74938 14.4815H19.4882C19.5817 14.481 19.6727 14.4508 19.7477 14.3952C19.8228 14.3397 19.878 14.2617 19.9054 14.1727L22.0125 6.81481Z" fill="#96C33D"/>
</svg>
