<svg width="27" height="23" viewBox="0 0 27 23" fill="none" xmlns="http://www.w3.org/2000/svg">
<path d="M11.4344 20.8704C11.4344 21.2916 11.3062 21.7033 11.0662 22.0535C10.8261 22.4037 10.4849 22.6767 10.0857 22.8379C9.68651 22.9991 9.24723 23.0413 8.82343 22.9591C8.39964 22.8769 8.01036 22.6741 7.70482 22.3762C7.39928 22.0784 7.1912 21.6989 7.1069 21.2858C7.02261 20.8727 7.06587 20.4445 7.23123 20.0554C7.39658 19.6663 7.67661 19.3337 8.03588 19.0996C8.39516 18.8656 8.81755 18.7407 9.24965 18.7407C9.82819 18.7435 10.3822 18.9688 10.7913 19.3676C11.2004 19.7664 11.4315 20.3064 11.4344 20.8704V20.8704ZM20.6102 18.7407C20.1781 18.7407 19.7557 18.8656 19.3965 19.0996C19.0372 19.3337 18.7572 19.6663 18.5918 20.0554C18.4265 20.4445 18.3832 20.8727 18.4675 21.2858C18.5518 21.6989 18.7599 22.0784 19.0654 22.3762C19.3709 22.6741 19.7602 22.8769 20.184 22.9591C20.6078 23.0413 21.0471 22.9991 21.4463 22.8379C21.8455 22.6767 22.1867 22.4037 22.4268 22.0535C22.6668 21.7033 22.795 21.2916 22.795 20.8704C22.7921 20.3064 22.561 19.7664 22.1519 19.3676C21.7428 18.9688 21.1888 18.7435 20.6102 18.7407V18.7407ZM25.9956 5.88843L23.3521 14.8755C23.1678 15.497 22.7819 16.0436 22.2522 16.4333C21.7224 16.823 21.0773 17.0348 20.4136 17.037H9.44628C8.78259 17.0348 8.13751 16.823 7.60774 16.4333C7.07797 16.0436 6.69204 15.497 6.50782 14.8755L3.87522 5.90972C3.87522 5.89907 3.8643 5.87778 3.8643 5.86713L2.8921 2.55556H1.82158C1.47392 2.55556 1.14051 2.42093 0.894677 2.1813C0.648848 1.94167 0.510742 1.61667 0.510742 1.27778C0.510742 0.93889 0.648848 0.613882 0.894677 0.374252C1.14051 0.134623 1.47392 0 1.82158 0H3.2198C3.69447 0.00350939 4.15545 0.155398 4.53495 0.433328C4.91446 0.711258 5.19246 1.10056 5.32807 1.54398L6.11457 4.25926H24.7284C24.9312 4.26039 25.131 4.30697 25.3123 4.39541C25.4936 4.48384 25.6517 4.61175 25.7742 4.76925C25.8967 4.92675 25.9803 5.1096 26.0187 5.30367C26.0571 5.49774 26.0492 5.69782 25.9956 5.88843V5.88843ZM22.9916 6.81481H6.8683L9.02026 14.1727C9.04821 14.2617 9.10463 14.3397 9.18127 14.3952C9.25791 14.4508 9.35077 14.481 9.44628 14.4815H20.4136C20.5091 14.481 20.602 14.4508 20.6786 14.3952C20.7553 14.3397 20.8117 14.2617 20.8396 14.1727L22.9916 6.81481Z" fill="#96C33D"/>
</svg>
