<svg width="24" height="21" viewBox="0 0 24 21" fill="none" xmlns="http://www.w3.org/2000/svg">
<path d="M7.01426 1.05052C5.87773 1.04913 4.76412 1.36672 3.80278 1.9664C2.84143 2.56608 2.07179 3.42326 1.58326 4.43836C1.09472 5.45346 0.907337 6.58484 1.04286 7.70109C1.17839 8.81733 1.63127 9.87264 2.3489 10.7444L10.5707 18.951C11.3509 19.7298 12.6143 19.7303 13.3952 18.9522L21.5208 10.856L21.5683 10.8032L21.6158 10.7444C22.1367 10.123 22.5243 9.40307 22.7549 8.62863C22.9856 7.85419 23.0544 7.04141 22.9572 6.23981C22.8601 5.4382 22.599 4.66456 22.1898 3.966C21.7806 3.26744 21.232 2.6586 20.5773 2.17655C19.9226 1.69451 19.1755 1.34937 18.3816 1.16214C17.5877 0.974918 16.7636 0.949536 15.9595 1.08754C15.1553 1.22555 14.388 1.52405 13.7043 1.96487C13.0205 2.40569 12.4346 2.97959 11.9823 3.65162C11.4328 2.85024 10.6932 2.19418 9.8282 1.74076C8.9632 1.28734 7.99913 1.05036 7.0202 1.05052H7.01426Z" stroke="black" stroke-width="2" stroke-linecap="round" stroke-linejoin="round"/>
</svg>
