<svg width="14" height="27" viewBox="0 0 14 27" fill="none" xmlns="http://www.w3.org/2000/svg">
<path fill-rule="evenodd" clip-rule="evenodd" d="M6.06816 0.0823115C4.5871 0.39849 3.44998 1.25385 2.80926 2.53382C2.33776 3.4757 2.37399 2.92586 2.35491 9.42535L2.33803 15.1993L1.85978 15.6913C0.0653927 17.5373 -0.486034 20.2575 0.449035 22.6501C1.11387 24.3514 2.58562 25.808 4.33616 26.4974C6.6185 27.3963 9.21459 27.0752 11.2024 25.6481C12.2293 24.9109 13.1036 23.7947 13.551 22.6501C14.486 20.2575 13.9346 17.5373 12.1402 15.6913L11.662 15.1993L11.6451 9.42535C11.626 2.92586 11.6622 3.4757 11.1907 2.53382C10.5969 1.34755 9.49518 0.471662 8.17554 0.136689C7.54819 -0.022536 6.66596 -0.0452899 6.06816 0.0823115ZM7.68134 2.33854C8.10072 2.47617 8.38991 2.65509 8.69473 2.96551C9.0303 3.30724 9.21996 3.67996 9.29889 4.15299C9.33622 4.37657 9.35634 6.53608 9.35656 10.3512L9.35699 16.2063L10.0626 16.8711C10.8744 17.6361 11.1724 18.0688 11.4479 18.8823C11.7456 19.7615 11.7307 20.8662 11.4092 21.7524C10.9647 22.9778 9.89883 24.0252 8.63723 24.4765C7.6416 24.8326 6.3584 24.8326 5.36277 24.4765C4.10117 24.0252 3.03526 22.9778 2.59078 21.7524C2.38511 21.1854 2.3235 20.7343 2.35447 20.0225C2.37728 19.4995 2.41307 19.293 2.55213 18.8823C2.82757 18.0688 3.12559 17.6361 3.93739 16.8711L4.64301 16.2063L4.64344 10.3512C4.64366 6.53608 4.66378 4.37657 4.70111 4.15299C4.8428 3.30413 5.40355 2.66649 6.28742 2.34915C6.61685 2.23089 7.33667 2.2254 7.68134 2.33854ZM5.84891 13.0389V17.0679L5.56114 17.1838C4.6014 17.5705 3.79827 18.5408 3.57814 19.5796C3.46922 20.0937 3.46933 20.4181 3.57868 20.9278C3.86311 22.2541 4.92842 23.2813 6.29882 23.5507C6.83183 23.6555 7.16817 23.6555 7.70118 23.5507C9.07158 23.2813 10.1369 22.2541 10.4213 20.9278C10.5307 20.4181 10.5308 20.0937 10.4219 19.5796C10.2017 18.5408 9.3986 17.5705 8.43886 17.1838L8.15109 17.0679V13.0389V9.00997H7H5.84891V13.0389Z" fill="#96C33D"/>
</svg>
