<svg width="18" height="21" viewBox="0 0 18 21" fill="none" xmlns="http://www.w3.org/2000/svg">
<path fill-rule="evenodd" clip-rule="evenodd" d="M15.2421 0.483364C14.2511 1.80474 13.512 3.08107 13.3389 3.76999C13.242 4.15562 13.2562 4.62433 13.3763 5.00634C13.6885 5.9991 14.6072 6.67845 15.6377 6.67845C16.2937 6.67845 16.835 6.44845 17.3053 5.9699C17.7735 5.49344 18 4.94874 18 4.29898C18 3.70454 17.6431 2.87201 16.8979 1.72818C16.4596 1.05538 15.6895 0 15.6369 0C15.6191 0 15.4415 0.217493 15.2421 0.483364ZM2.51254 2.00606C1.25209 3.70825 0.365449 5.24901 0.0959833 6.20545C-0.000300884 6.54722 -0.0101982 6.64093 0.00674523 7.04877C0.0396546 7.84099 0.320402 8.47804 0.890287 9.0536C1.52481 9.69439 2.29757 9.99305 3.19321 9.9436C4.29925 9.88256 5.25814 9.24484 5.74262 8.24804C6.03685 7.64263 6.13415 6.97575 6.01013 6.41398C5.78816 5.40837 4.73823 3.56764 3.34342 1.73867L3.02231 1.31767L2.51254 2.00606ZM9.35185 6.38658C7.00702 9.55231 5.29358 12.5217 4.78055 14.3086C4.6057 14.9177 4.54693 15.3562 4.57654 15.8311C4.66614 17.2676 5.21774 18.4847 6.22608 19.4704C7.00568 20.2327 7.90816 20.7082 8.98781 20.9256C9.52035 21.0329 10.5162 21.0227 11.0643 20.9044C12.6148 20.5697 13.8919 19.621 14.6933 18.2088C15.1922 17.3296 15.4733 16.0505 15.3569 15.1891C15.1707 13.8114 14.3071 11.9489 12.6578 9.36817C11.8172 8.05293 10.0697 5.59468 9.97538 5.59468C9.95505 5.59468 9.67443 5.95102 9.35185 6.38658Z" fill="#96C33D"/>
</svg>
