<svg width="36" height="20" viewBox="0 0 36 20" fill="none" xmlns="http://www.w3.org/2000/svg">
<path fill-rule="evenodd" clip-rule="evenodd" d="M6.84588 0.0481609C6.70282 0.101801 6.42861 0.362266 6.32873 0.539307C6.28146 0.623165 6.23237 1.15465 6.21194 1.8044L6.17672 2.92492L4.80317 2.96504C4.04772 2.98709 3.42019 3.01145 3.40864 3.01926C3.39709 3.02699 3.3456 3.13586 3.29432 3.26114C3.16239 3.58313 3.24811 3.83954 3.53888 3.99251C3.76322 4.11049 4.05357 4.11881 7.32747 4.10095L10.8731 4.08158L11.0431 3.87873C11.2516 3.62997 11.259 3.40204 11.067 3.15155L10.9211 2.96106H9.12998H7.33895V2.05742V1.15378H16.6724H26.0057L25.9878 8.69014L25.9699 16.2265L21.8649 16.2451C18.617 16.2599 17.7534 16.2448 17.729 16.1729C17.4018 15.2069 17.106 14.7435 16.5294 14.2939C15.614 13.58 14.3029 13.4734 13.2458 14.0268C12.6065 14.3615 12.0209 15.0881 11.765 15.8641L11.6455 16.2265L9.49218 16.2456L7.33895 16.2647V14.601V12.9372H8.28987C9.14689 12.9372 9.25473 12.9229 9.38166 12.7927C9.59586 12.5728 9.59241 12.1912 9.37412 11.9613C9.24022 11.8203 9.14414 11.8167 5.42909 11.8167H1.62127L1.45123 12.0196C1.24273 12.2683 1.23527 12.4963 1.42728 12.7468L1.57323 12.9372H3.89262H6.21194V14.9895C6.21194 16.9021 6.2211 17.0534 6.34655 17.2125L6.48108 17.3832L9.06828 17.4193L11.6555 17.4554L11.7396 17.7446C12.068 18.8727 13.0327 19.738 14.2064 19.9569C15.6252 20.2216 17.2081 19.2373 17.6076 17.842L17.7286 17.4195L22.8397 17.4194L27.9507 17.4193L28.0406 17.7793C28.2352 18.5583 28.8942 19.3257 29.6898 19.6995C31.3534 20.4812 33.2779 19.6336 33.8884 17.8505L34.0236 17.4554L34.6841 17.4193C35.4165 17.3792 35.6357 17.2819 35.8722 16.8913C36.0048 16.6722 36.011 16.5491 35.9921 14.5277C35.9724 12.4289 35.9693 12.3882 35.7933 11.9613C35.6951 11.7228 34.9094 10.2263 34.0474 8.63592C32.3992 5.59449 32.1885 5.28486 31.6667 5.13616C31.4996 5.08852 30.5679 5.05816 29.2667 5.05794L27.1397 5.05751L27.1183 2.8707C27.0972 0.713746 27.0946 0.680636 26.9328 0.447859C26.5964 -0.036203 27.353 -0.0034549 16.6579 0.00283443C11.3194 0.00594295 6.904 0.0264013 6.84588 0.0481609ZM6.52891 5.36171C6.22575 5.54012 6.21652 5.60063 6.21419 7.42504L6.21194 9.1781H5.36351C4.55657 9.1781 4.50656 9.18678 4.34216 9.35558C4.11337 9.59031 4.11337 9.92256 4.34216 10.1573L4.51501 10.3348H9.68595C14.8105 10.3348 14.8585 10.3334 15.0424 10.1849C15.3046 9.97331 15.3046 9.53956 15.0424 9.32796C14.8599 9.18063 14.7941 9.1781 11.0979 9.1781H7.33895V7.43755V5.69699L7.13306 5.48569C6.91365 5.2605 6.75586 5.22811 6.52891 5.36171ZM0.169959 6.25443C-0.0708689 6.4275 -0.0519915 6.94611 0.202643 7.15164C0.387191 7.30063 0.444457 7.30388 2.53337 7.28342L4.67491 7.26239L4.80944 7.09171C4.99632 6.85481 4.98336 6.49415 4.78106 6.29904C4.62102 6.14477 4.57841 6.14187 2.47223 6.14187C0.64415 6.14187 0.303299 6.1585 0.169959 6.25443ZM31.473 6.34986C31.7056 6.62861 34.6777 12.1923 34.777 12.5347C34.8549 12.8037 34.8803 13.3059 34.8803 14.5804V16.2695L34.4525 16.248L34.0248 16.2265L33.9055 15.8641C33.374 14.249 31.7797 13.3503 30.1933 13.7716C29.1781 14.0413 28.3119 14.901 28.0111 15.9373C27.9273 16.2263 27.9268 16.2265 27.5296 16.2482L27.1321 16.2699V11.242V6.21417H29.2459C31.2264 6.21417 31.3669 6.2227 31.473 6.34986ZM15.2923 14.9301C15.7267 15.0625 16.2244 15.4966 16.4408 15.932C16.6418 16.3364 16.6846 17.0173 16.5376 17.4715C16.3849 17.9435 16.0054 18.3902 15.5547 18.6285C15.1148 18.8612 14.3752 18.8901 13.9378 18.6918C13.5317 18.5077 13.0794 18.0396 12.9045 17.6222C12.7117 17.1624 12.7276 16.3876 12.9391 15.9404C13.2318 15.3213 13.9768 14.8293 14.6341 14.8206C14.7917 14.8185 15.0879 14.8678 15.2923 14.9301ZM31.6636 14.9631C33.003 15.4774 33.3471 17.3221 32.2867 18.3032C31.8822 18.6775 31.5465 18.8118 31.0062 18.816C29.9176 18.8242 29.1191 18.0655 29.0498 16.9569C29.0095 16.3125 29.1801 15.851 29.6237 15.4042C30.1773 14.8465 30.9339 14.6829 31.6636 14.9631Z" fill="white"/>
</svg>
