<svg width="26" height="26" viewBox="0 0 26 26" fill="none" xmlns="http://www.w3.org/2000/svg">
<path d="M23.9229 12.3449C23.0303 10.4645 21.9681 8.9309 20.7364 7.74414L19.4445 9.03601C20.4979 10.0428 21.4156 11.3598 22.209 13C20.0965 17.3723 17.0979 19.4492 12.9998 19.4492C11.7697 19.4492 10.6367 19.2598 9.6008 18.881L8.20101 20.2808C9.63981 20.9451 11.2394 21.2773 12.9998 21.2773C17.8799 21.2773 21.5209 18.7357 23.9229 13.6525C24.0195 13.4481 24.0695 13.2248 24.0695 12.9987C24.0695 12.7726 24.0195 12.5494 23.9229 12.3449ZM22.3088 4.20367L21.2264 3.12C21.2075 3.10111 21.1851 3.08613 21.1605 3.07591C21.1358 3.06569 21.1094 3.06042 21.0827 3.06042C21.056 3.06042 21.0296 3.06569 21.0049 3.07591C20.9802 3.08613 20.9578 3.10111 20.939 3.12L18.162 5.8957C16.631 5.11367 14.9102 4.72265 12.9998 4.72265C8.11976 4.72265 4.47875 7.26426 2.07679 12.3475C1.98025 12.5519 1.93018 12.7752 1.93018 13.0013C1.93018 13.2274 1.98025 13.4506 2.07679 13.6551C3.03639 15.6762 4.19166 17.2962 5.54261 18.5151L2.85578 21.2012C2.81771 21.2393 2.79633 21.2909 2.79633 21.3448C2.79633 21.3986 2.81771 21.4502 2.85578 21.4883L3.9397 22.5723C3.97779 22.6103 4.02944 22.6317 4.08329 22.6317C4.13714 22.6317 4.18878 22.6103 4.22687 22.5723L22.3088 4.49109C22.3277 4.47223 22.3427 4.44983 22.3529 4.42517C22.3631 4.40051 22.3684 4.37408 22.3684 4.34738C22.3684 4.32069 22.3631 4.29426 22.3529 4.2696C22.3427 4.24494 22.3277 4.22254 22.3088 4.20367ZM3.79066 13C5.9057 8.62773 8.90433 6.55078 12.9998 6.55078C14.3846 6.55078 15.6438 6.78844 16.7861 7.27162L15.0011 9.05658C14.1558 8.60555 13.1879 8.43816 12.2402 8.5791C11.2925 8.72004 10.4151 9.16185 9.73763 9.83935C9.06013 10.5169 8.61832 11.3942 8.47738 12.3419C8.33644 13.2896 8.50383 14.2575 8.95486 15.1029L6.83677 17.2209C5.66449 16.1863 4.65394 14.7845 3.79066 13ZM10.0545 13C10.055 12.5523 10.161 12.111 10.3641 11.7119C10.5671 11.3129 10.8614 10.9674 11.2231 10.7034C11.5848 10.4395 12.0036 10.2646 12.4455 10.193C12.8875 10.1213 13.3401 10.1549 13.7666 10.2911L10.1894 13.8684C10.0997 13.5876 10.0542 13.2947 10.0545 13Z" fill="#C4C4C4"/>
<path d="M12.8983 15.8438C12.8104 15.8438 12.7238 15.8397 12.638 15.8318L11.2969 17.173C12.1035 17.4819 12.9824 17.5505 13.8272 17.3706C14.672 17.1907 15.4466 16.7699 16.0574 16.1591C16.6682 15.5484 17.0889 14.7737 17.2689 13.9289C17.4488 13.0841 17.3801 12.2053 17.0712 11.3986L15.7301 12.7398C15.7379 12.8256 15.742 12.9122 15.742 13C15.7422 13.3735 15.6688 13.7434 15.526 14.0885C15.3831 14.4336 15.1737 14.7472 14.9095 15.0113C14.6454 15.2754 14.3319 15.4849 13.9868 15.6277C13.6416 15.7705 13.2718 15.844 12.8983 15.8438Z" fill="#C4C4C4"/>
</svg>
