<svg width="21" height="21" viewBox="0 0 21 21" fill="none" xmlns="http://www.w3.org/2000/svg">
<path d="M4.02782 0.168701C2.01811 0.168701 0.399902 1.78691 0.399902 3.79662V16.4096C0.399902 18.4193 2.01811 20.0375 4.02782 20.0375H10.8639V12.27H8.80999V9.47349H10.8639V7.08428C10.8639 5.20718 12.0775 3.48368 14.8731 3.48368C16.0049 3.48368 16.8419 3.59235 16.8419 3.59235L16.7761 6.20385C16.7761 6.20385 15.9225 6.19579 14.991 6.19579C13.9829 6.19579 13.8212 6.66028 13.8212 7.43139V9.47351H16.8562L16.7239 12.27H13.8212V20.0375H16.6407C18.6504 20.0375 20.2687 18.4193 20.2687 16.4096V3.79664C20.2687 1.78693 18.6504 0.168721 16.6407 0.168721H4.0278L4.02782 0.168701Z" fill="white"/>
</svg>
