<svg width="22" height="19" viewBox="0 0 22 19" fill="none" xmlns="http://www.w3.org/2000/svg">
<path d="M6.46751 1.04593C5.4343 1.04466 4.42193 1.33338 3.54798 1.87855C2.67403 2.42371 1.97436 3.20296 1.53023 4.12578C1.08611 5.0486 0.915761 6.07713 1.03897 7.0919C1.16217 8.10667 1.57388 9.06604 2.22627 9.85858L9.57228 17.191C10.3525 17.9698 11.6159 17.9703 12.3968 17.1922L19.6553 9.96L19.6984 9.91196L19.7416 9.85858C20.2152 9.2936 20.5676 8.63916 20.7772 7.93512C20.9869 7.23108 21.0495 6.49219 20.9611 5.76346C20.8728 5.03473 20.6354 4.33142 20.2635 3.69636C19.8915 3.06131 19.3927 2.50781 18.7975 2.06959C18.2023 1.63137 17.5232 1.31761 16.8015 1.1474C16.0797 0.977199 15.3305 0.954124 14.5995 1.07958C13.8685 1.20504 13.1709 1.47641 12.5493 1.87715C11.9277 2.2779 11.3951 2.79963 10.9839 3.41056C10.4843 2.68203 9.81199 2.08562 9.02563 1.67342C8.23928 1.26122 7.36284 1.04578 6.4729 1.04593H6.46751Z" stroke="#FF6D6D" stroke-width="2" stroke-linecap="round" stroke-linejoin="round"/>
</svg>
