<svg width="17" height="17" viewBox="0 0 17 17" fill="none" xmlns="http://www.w3.org/2000/svg">
<path d="M3.1041 0C1.38456 0 0 1.38456 0 3.1041V13.8959C0 15.6155 1.38456 17 3.1041 17H8.95317V10.3541H7.19579V7.96132H8.95317V5.91707C8.95317 4.311 9.99151 2.83635 12.3834 2.83635C13.3519 2.83635 14.068 2.92932 14.068 2.92932L14.0117 5.16377C14.0117 5.16377 13.2814 5.15687 12.4844 5.15687C11.6218 5.15687 11.4835 5.55429 11.4835 6.21406V7.96134H14.0803L13.9671 10.3541H11.4835V17H13.8959C15.6154 17 17 15.6155 17 13.8959V3.10412C17 1.38458 15.6154 1.7e-05 13.8959 1.7e-05H3.10408L3.1041 0Z" fill="#96C33D"/>
</svg>
