<svg width="43" height="52" viewBox="0 0 43 52" fill="none" xmlns="http://www.w3.org/2000/svg">
<path fill-rule="evenodd" clip-rule="evenodd" d="M1.63329 0.667519C0.980729 1.00016 0.606365 1.50695 0.392643 2.34679C-0.117271 4.35055 0.630456 7.23184 2.1499 9.11833L2.66332 9.75577L2.40541 11.3795C1.29312 18.383 0.887462 24.911 1.23044 30.2884C1.45386 33.7922 1.85151 37.3684 2.40541 40.8562L2.66332 42.4799L2.1515 43.1158C1.23384 44.256 0.576876 45.7564 0.334764 47.2654C0.185618 48.1946 0.260391 49.6059 0.494006 50.2706C0.715025 50.8996 1.26353 51.4649 1.8781 51.6975C2.31754 51.8637 2.46749 51.8707 3.37756 51.7677C5.17 51.5649 6.86998 50.9368 8.33695 49.9353L8.93283 49.5285L9.90958 49.7284C13.6847 50.5011 17.8903 50.9392 21.5324 50.9392C25.1746 50.9392 29.3802 50.5011 33.1553 49.7284L34.1321 49.5285L34.7279 49.9353C36.1949 50.9368 37.8949 51.5649 39.6873 51.7677C40.5974 51.8707 40.7473 51.8637 41.1868 51.6975C41.8175 51.4589 42.3566 50.8903 42.5896 50.218C42.7355 49.797 42.7728 49.407 42.7658 48.3774C42.7582 47.2605 42.7175 46.9405 42.4855 46.1715C42.1455 45.0445 41.5784 43.941 40.9178 43.1207L40.4072 42.4869L40.7609 40.1562C41.8046 33.2816 42.1717 27.0449 41.833 21.9473C41.5919 18.3224 41.1805 14.6082 40.6622 11.3795L40.4016 9.75577L40.915 9.11833C41.5782 8.29487 42.1451 7.19255 42.4855 6.06419C42.7175 5.2952 42.7582 4.97513 42.7658 3.85823C42.7728 2.82866 42.7355 2.43864 42.5896 2.01767C42.3566 1.34536 41.8175 0.776757 41.1868 0.538182C40.7473 0.371964 40.5974 0.364929 39.6873 0.467936C37.893 0.670936 36.195 1.29873 34.7239 2.30307L34.1241 2.71269L33.2013 2.51461C31.008 2.0441 27.7226 1.60292 24.8812 1.39761C20.4693 1.07874 14.8564 1.49469 9.90958 2.50728L8.93283 2.70716L8.33695 2.30036C6.97435 1.37008 5.31215 0.725002 3.69554 0.498889C2.54156 0.337595 2.23057 0.36302 1.63329 0.667519ZM4.38439 2.35925C5.37213 2.61099 6.5379 3.07166 6.5379 3.21024C6.5379 3.25064 6.42624 3.31184 6.28979 3.34631C5.98321 3.42369 5.69971 3.94184 5.78258 4.27357C5.94122 4.9091 6.44924 5.04618 7.56663 4.75515C8.7495 4.44693 11.5507 3.90868 13.2565 3.66166C19.3531 2.77902 24.1537 2.79499 30.2293 3.71814C31.6634 3.93601 34.4879 4.49195 35.4983 4.75515C36.6157 5.04618 37.1237 4.9091 37.2823 4.27357C37.3652 3.94184 37.0817 3.42369 36.7751 3.34631C36.6386 3.31184 36.527 3.25014 36.527 3.20923C36.527 3.09286 37.7335 2.60616 38.5436 2.39573C38.9464 2.29111 39.598 2.17585 39.9914 2.13947L40.707 2.07354L40.8908 2.41311C41.039 2.68706 41.0734 2.96674 41.0684 3.85823C41.065 4.46622 41.006 5.16717 40.9372 5.4159C40.7664 6.03384 40.1142 7.43052 40.0229 7.37374C39.9821 7.34851 39.919 7.13506 39.8827 6.8994C39.8463 6.66384 39.7623 6.39934 39.6961 6.31161C39.3698 5.87918 38.7219 5.83597 38.373 6.22347C38.1299 6.49361 38.1558 6.88694 38.5613 9.08396C39.3976 13.6135 39.979 18.8399 40.2239 24.0301C40.4474 28.7628 39.7246 36.8992 38.4839 43.6213C38.1792 45.2717 38.1582 45.4957 38.2803 45.7897C38.4305 46.1509 38.8324 46.3627 39.1943 46.2714C39.5466 46.1825 39.8118 45.8266 39.8834 45.3466C39.9193 45.1053 39.9821 44.8871 40.0229 44.8619C40.1142 44.8051 40.7664 46.2018 40.9372 46.8198C41.006 47.0685 41.065 47.7694 41.0684 48.3774C41.0734 49.2695 41.0391 49.5485 40.8905 49.8231L40.7064 50.1631L39.9955 50.0968C39.6046 50.0602 39.0128 49.9617 38.6805 49.8779C37.9321 49.6892 36.527 49.1361 36.527 49.0302C36.527 48.9871 36.6386 48.9238 36.7751 48.8894C37.0817 48.812 37.3652 48.2938 37.2823 47.9621C37.1868 47.5795 36.8666 47.3222 36.4859 47.3222C36.2983 47.3222 35.6785 47.433 35.1085 47.5685C32.5532 48.1754 29.2656 48.7069 25.9308 49.0521C24.0247 49.2493 18.6869 49.2179 16.5842 48.9969C13.4985 48.6727 9.64717 48.0235 7.53104 47.4709C6.59398 47.2262 6.24091 47.2483 5.96651 47.569C5.66432 47.9223 5.67112 48.3694 5.98361 48.6834C6.11856 48.8191 6.29849 48.9302 6.38346 48.9302C6.62757 48.9302 6.56369 49.087 6.263 49.2256C5.20269 49.7143 3.93705 50.041 3.00639 50.0664C2.31094 50.0854 2.29375 50.0798 2.14321 49.7844C1.95187 49.4088 1.94178 47.4922 2.12771 46.8198C2.29845 46.2018 2.95071 44.8051 3.04198 44.8619C3.08276 44.8871 3.14624 45.11 3.18303 45.3571C3.23191 45.6844 3.33207 45.8755 3.55219 46.0617C3.71833 46.2023 3.91536 46.3173 3.99003 46.3173C4.32221 46.3173 4.65789 46.0944 4.78454 45.7897C4.9067 45.4957 4.88571 45.2717 4.58102 43.6213C3.68554 38.7697 3.09236 33.5229 2.84365 28.2533C2.61783 23.4684 3.33397 15.3705 4.57982 8.62078C4.76605 7.61201 4.8937 6.7157 4.86361 6.62887C4.73726 6.26558 4.40368 6.01887 4.03881 6.01887C3.57188 6.01887 3.27239 6.32709 3.18103 6.90151C3.14354 7.13707 3.08026 7.35002 3.04038 7.37474C2.95041 7.43072 2.29695 6.02841 2.12771 5.4159C2.05894 5.16717 1.99986 4.46622 1.99646 3.85823C1.99146 2.96614 2.02575 2.68716 2.17439 2.41261L2.35853 2.07254L3.06937 2.13886C3.46033 2.17544 4.05211 2.27463 4.38439 2.35925ZM19.4832 7.32972C15.5419 7.51112 11.6331 8.22282 7.89541 9.43941C7.05722 9.71225 6.29639 10.0188 6.20473 10.1207C5.9984 10.3498 5.9883 10.9275 6.18573 11.2107C6.45294 11.5942 6.75772 11.5784 8.23719 11.1044C10.8151 10.2782 13.796 9.61739 16.4131 9.29158C22.4714 8.53757 28.745 9.15521 34.8277 11.1044C36.3072 11.5784 36.6119 11.5942 36.8792 11.2107C37.0833 10.9178 37.068 10.3083 36.8517 10.1115C36.6341 9.91354 36.393 9.81948 34.8276 9.32193C32.3292 8.52772 29.4812 7.9146 26.7305 7.57875C25.6859 7.45122 21.5116 7.19838 21.1826 7.24269C21.1276 7.25013 20.3629 7.28932 19.4832 7.32972ZM19.883 13.3623C17.6895 13.666 15.4246 14.6189 13.6801 15.9719C12.8346 16.6276 11.4789 18.1057 10.8985 19.0043C9.40496 21.3171 8.79268 23.3854 8.79268 26.1178C8.79268 29.7069 10.0003 32.6393 12.5228 35.1753C14.4157 37.0782 16.4602 38.1822 19.1333 38.7448C20.1816 38.9655 22.6355 38.9906 23.7316 38.792C26.3244 38.3221 28.6295 37.098 30.5421 35.1753C33.0645 32.6393 34.2722 29.7069 34.2722 26.1178C34.2722 22.5288 33.0645 19.5963 30.5421 17.0603C28.679 15.1875 26.5014 14.0027 23.9956 13.4987C23.0765 13.3138 20.7832 13.2378 19.883 13.3623ZM23.7816 15.2011C25.9722 15.6847 27.6463 16.5908 29.2547 18.1638C30.9195 19.7919 31.9402 21.6767 32.4464 24.0577C32.6599 25.0622 32.6078 27.5104 32.3507 28.5505C32.0575 29.7366 31.6229 30.8368 31.0794 31.769L30.6262 32.5462L29.9885 32.1072C29.6377 31.8657 29.1098 31.5856 28.8153 31.4846C28.1282 31.2488 26.8662 31.2503 26.1966 31.4877L25.7126 31.6592L25.0934 31.0615C24.7529 30.7328 24.1947 30.3218 23.853 30.1485L23.2318 29.8332V28.918C23.2318 28.2092 23.0428 26.4321 22.8995 25.7938C22.8898 25.7507 23.2432 25.6961 23.6848 25.6722C26.2158 25.536 27.5697 24.0255 27.7041 21.1882C27.7485 20.249 27.7302 20.0802 27.5446 19.7143C27.2028 19.0409 26.8055 18.8245 25.637 18.6756C24.6562 18.5506 23.4926 18.6979 22.7249 19.0442C22.0617 19.3434 21.3737 20.0162 21.0296 20.702C20.9078 20.9448 20.7941 21.1592 20.777 21.1786C20.7598 21.198 20.5967 21.1014 20.4144 20.964C19.0292 19.9195 17.3941 19.9306 15.5846 20.9969C14.705 21.5152 14.4555 21.7447 14.2241 22.2488C13.9506 22.8445 13.9882 23.2834 14.3801 24.0693C15.1285 25.5701 16.2186 26.5703 17.458 26.893C18.0928 27.0584 18.1786 27.0588 18.9403 26.9004C19.385 26.808 20.0386 26.5961 20.3928 26.4295C20.7469 26.2628 21.0695 26.1218 21.1096 26.1161C21.244 26.0971 21.429 27.162 21.4956 28.3377L21.5614 29.5024L20.8078 29.6246C19.7587 29.7947 18.7624 30.298 17.9806 31.0526L17.3461 31.6652L16.8152 31.483C15.603 31.067 14.1023 31.3324 13.0127 32.1555L12.4882 32.5517L12.3124 32.3245C11.9558 31.8636 11.1353 30.0611 10.8912 29.2025C9.20803 23.2809 12.6153 17.1058 18.4985 15.4153C18.9852 15.2755 19.6531 15.1191 19.983 15.0675C20.8065 14.939 22.933 15.0138 23.7816 15.2011ZM25.519 20.3558L26.0568 20.4207L26.0071 21.2965C25.9436 22.4151 25.6255 23.1733 25.0651 23.5413C24.5863 23.8556 23.5879 24.0415 22.8657 23.9508C22.3969 23.892 22.303 23.8438 22.2155 23.6181C22.0878 23.2885 22.1787 22.3208 22.3836 21.8277C22.8906 20.6081 23.8557 20.155 25.519 20.3558ZM19.1387 22.1809C19.8525 22.6368 20.4095 23.3564 20.5701 24.0305C20.6277 24.2719 20.5862 24.336 20.2229 24.5665C19.6384 24.9374 19.024 25.1874 18.504 25.2658C17.9088 25.3556 17.2916 25.08 16.6565 24.4409C16.1595 23.9408 15.6721 23.085 15.7821 22.9059C15.8845 22.7394 16.7438 22.2652 17.2827 22.0778C18.0451 21.8127 18.6116 21.8443 19.1387 22.1809ZM20.9805 32.0341C20.6003 33.0937 20.6615 33.5177 21.2288 33.7538C21.8651 34.0188 22.2843 33.6118 22.6761 32.3485C22.7704 32.0445 22.8649 31.7398 22.886 31.6714C22.9812 31.3652 23.9906 32.2321 24.5636 33.1122C24.9666 33.7311 25.3192 33.8771 25.764 33.6093C26.635 33.085 26.8803 33.0017 27.5303 33.0093C28.1905 33.0169 28.6598 33.1927 29.2296 33.6459L29.4795 33.8446L29.1297 34.2096C28.2432 35.1344 26.6021 36.1349 25.1311 36.6473C23.8616 37.0896 23.0296 37.2225 21.5324 37.2225C20.0353 37.2225 19.2033 37.0896 17.9338 36.6473C16.4628 36.1349 14.8217 35.1344 13.9352 34.2096L13.5853 33.8446L13.8352 33.6459C14.405 33.1927 14.8744 33.0169 15.5346 33.0093C16.1846 33.0017 16.4299 33.085 17.3009 33.6093C17.7457 33.8771 18.0983 33.7311 18.5012 33.1122C18.676 32.8439 18.9684 32.4664 19.151 32.2732C19.5326 31.8699 20.5538 31.3438 20.9556 31.3437L21.2283 31.3436L20.9805 32.0341ZM6.46943 40.7908C6.02749 40.9698 5.87175 41.8135 6.22182 42.1321C6.61877 42.4932 10.0754 43.5229 12.6755 44.0545C18.5009 45.2458 24.3028 45.2627 30.1684 44.1054C32.706 43.6047 36.4364 42.502 36.8425 42.1326C37.0679 41.9275 37.0879 41.3244 36.8792 41.0249C36.6094 40.6376 36.3152 40.6582 34.6528 41.1806C30.8744 42.368 27.5505 42.972 23.5067 43.206C18.7079 43.4835 13.1504 42.7219 8.12383 41.0977C6.75423 40.6551 6.78861 40.6615 6.46943 40.7908Z" fill="#96C33D"/>
</svg>
