<svg width="35" height="39" viewBox="0 0 35 39" fill="none" xmlns="http://www.w3.org/2000/svg">
<path fill-rule="evenodd" clip-rule="evenodd" d="M12.3106 0.212975C11.5951 0.471555 10.9754 1.20651 10.0433 2.90232C9.20284 4.43132 9.02955 4.55426 7.13739 4.96344C5.15302 5.39268 4.49475 5.71261 4.01796 6.4799C3.58212 7.1811 3.52316 7.87209 3.73846 9.75252C3.89348 11.1062 3.85663 11.6547 3.57844 12.1343C3.46641 12.3275 2.99158 12.9087 2.52331 13.4259C0.904514 15.2137 0.597329 16.1817 1.22865 17.5057C1.48342 18.04 1.70822 18.3361 2.79684 19.572C3.89791 20.8218 3.94762 21.0035 3.7292 22.9817C3.46592 25.367 3.70619 26.2399 4.83338 26.9931L5.03198 27.1258L3.23809 30.2943C2.25151 32.037 1.42929 33.5663 1.41095 33.6928C1.36869 33.984 1.58194 34.3218 1.85162 34.3909C1.98879 34.426 2.97504 34.1949 4.75804 33.7099C6.24237 33.3061 7.46906 32.9913 7.48413 33.0103C7.49912 33.0294 7.83022 34.2672 8.2197 35.7611C8.82539 38.0837 8.95855 38.5045 9.13856 38.6653C9.39095 38.8908 9.66997 38.9061 9.90132 38.7071C9.99476 38.6267 10.8249 37.2258 11.746 35.594L13.4207 32.6271L13.9114 32.4894C14.1813 32.4138 14.9618 32.0996 15.6458 31.7913C17.5009 30.9552 17.6677 30.9592 19.6736 31.8886C20.212 32.1381 20.8852 32.4044 21.1696 32.4806L21.6868 32.619L23.3129 35.5064C24.2072 37.0944 25.0379 38.4972 25.1588 38.6236C25.5283 39.0098 26.031 38.8688 26.2019 38.3308C26.2493 38.1815 26.5831 36.935 26.9436 35.5607C27.3042 34.1864 27.6184 33.0425 27.6417 33.0187C27.665 32.9949 28.8727 33.3013 30.3254 33.6997C31.7781 34.098 33.0425 34.4239 33.1353 34.4239C33.3482 34.4239 33.6455 34.1459 33.7091 33.8874C33.7698 33.6408 33.8469 33.7896 31.7708 30.1514C30.5726 28.0516 30.0742 27.1067 30.1518 27.0819C30.2134 27.0622 30.4719 26.8351 30.7262 26.5772C31.4744 25.8183 31.5833 25.1242 31.3261 22.7566C31.1338 20.9863 31.2078 20.7698 32.4875 19.3598C33.7102 18.0127 34.1538 17.2172 34.1538 16.3715C34.1538 15.4751 33.771 14.7793 32.471 13.3126C31.9864 12.7658 31.5155 12.1492 31.4248 11.9423C31.239 11.5187 31.2163 10.6656 31.3637 9.64404C31.4956 8.72999 31.4724 7.51506 31.3135 7.01311C31.1332 6.44305 30.6092 5.85518 30.0185 5.56008C29.7624 5.43205 29.1417 5.23556 28.639 5.1234C26.3122 4.60415 26.101 4.51715 25.6421 3.88859C25.4697 3.65257 25.1369 3.09914 24.9024 2.65862C23.9074 0.789306 23.1148 0.0867773 21.9926 0.0794227C21.4022 0.0755783 20.9085 0.231529 19.4958 0.868284C17.6186 1.71431 17.4099 1.70955 15.3914 0.774346C13.8797 0.0739067 13.0924 -0.0695073 12.3106 0.212975ZM14.2843 1.77992C14.6503 1.93654 15.2545 2.20289 15.627 2.37171C15.9996 2.54053 16.5931 2.73952 16.946 2.81399C17.5625 2.94411 17.6146 2.94261 18.2767 2.77579C18.6556 2.68035 19.4257 2.38734 19.9878 2.12483C20.5499 1.86224 21.2409 1.58544 21.5233 1.5098C22.0298 1.37408 22.0418 1.37491 22.3944 1.56588C22.8139 1.79295 23.0601 2.12424 23.8438 3.51651C24.996 5.56342 25.3667 5.81632 28.0452 6.38246C29.1823 6.62282 29.7004 6.85892 29.9567 7.25364C30.1125 7.49367 30.1408 7.64895 30.1394 8.25653C30.1385 8.65193 30.0994 9.2387 30.0525 9.56047C30.0056 9.88223 29.9658 10.5216 29.9641 10.9812C29.9591 12.3082 30.2007 12.78 31.8118 14.5912C32.5778 15.4523 32.8388 15.8989 32.8417 16.3536C32.8453 16.8995 32.6671 17.1708 31.2607 18.7609C30.0207 20.1627 29.8189 20.8208 30.0229 22.7955C30.3346 25.8106 30.2989 25.8584 27.251 26.5172C25.3039 26.938 24.8857 27.2953 23.5848 29.6496C23.2463 30.2621 22.9312 30.7152 22.6987 30.9241C22.3795 31.2108 22.2899 31.2479 21.9196 31.2467C21.501 31.2452 21.1306 31.1113 19.5357 30.3843C17.8086 29.5972 17.1823 29.6323 14.9497 30.642C13.9901 31.076 13.6137 31.2049 13.2299 31.2311C12.7545 31.2636 12.7265 31.2538 12.3689 30.9323C12.1266 30.7145 11.8181 30.2724 11.4739 29.6496C10.1805 27.3089 9.76136 26.947 7.85192 26.5227C6.15949 26.1466 5.88417 26.0699 5.54283 25.8789C4.89538 25.5166 4.80595 24.9713 5.03476 22.7806C5.25784 20.6442 5.0753 20.169 3.25021 18.1346C2.47844 17.2744 2.21515 16.8184 2.21515 16.342C2.21515 15.8851 2.44699 15.4928 3.25389 14.5845C4.80783 12.8351 5.09176 12.3001 5.0997 11.1066C5.10232 10.7159 5.05802 9.99999 5.00118 9.51567C4.94443 9.03136 4.91225 8.34738 4.92961 7.9957C4.95631 7.45581 4.99291 7.32175 5.16464 7.13396C5.4846 6.7842 5.87458 6.6229 6.96975 6.38747C8.52787 6.0525 8.93063 5.93299 9.4491 5.65185C10.089 5.30485 10.487 4.81702 11.2882 3.39767C12.0395 2.06666 12.2028 1.84352 12.6157 1.58335C12.9868 1.34967 13.3899 1.39714 14.2843 1.77992ZM16.0143 6.04657C14.9218 6.22183 14.0974 6.49094 13.0661 7.00893C10.0391 8.52924 7.98901 11.3447 7.4395 14.7357C7.31158 15.5251 7.31666 17.2664 7.44924 18.0433C8.19063 22.3899 11.5696 25.8601 15.7925 26.6116C16.6944 26.7721 18.3802 26.7692 19.2995 26.6057C21.8071 26.1594 24.1699 24.6651 25.7187 22.5459C26.6112 21.3247 27.3498 19.5659 27.6094 18.0433C27.742 17.2664 27.7471 15.5251 27.6192 14.7357C27.1875 12.0718 25.769 9.66259 23.6819 8.04885C22.8593 7.41285 21.2762 6.59098 20.3956 6.34293C18.9663 5.94026 17.356 5.83137 16.0143 6.04657ZM18.7222 7.35176C20.6335 7.62304 22.2609 8.43756 23.6854 9.83576C27.2919 13.3753 27.341 19.1608 23.7952 22.7638C22.6818 23.8952 21.3504 24.6762 19.7708 25.1244C19.031 25.3343 18.8412 25.3538 17.5293 25.3538C16.2162 25.3538 16.0277 25.3344 15.2773 25.1227C9.89935 23.6054 7.12298 17.6049 9.46114 12.5526C9.93588 11.5267 10.3228 10.9457 11.0595 10.1529C13.0837 7.97455 15.8878 6.94951 18.7222 7.35176ZM23.0162 12.0834C22.9487 12.1077 21.374 13.674 19.517 15.5639L16.1406 19.0001L14.1934 17.0241C12.8797 15.6909 12.1682 15.0281 12.0067 14.9867C11.5473 14.869 11.1301 15.3151 11.2497 15.796C11.277 15.9058 12.3249 17.0393 13.5783 18.3149C15.6817 20.4554 15.8791 20.6341 16.1405 20.6344C16.405 20.6345 16.6695 20.3834 20.1295 16.848C23.4282 13.4774 23.8352 13.033 23.8352 12.8013C23.8352 12.4266 23.7636 12.2864 23.5017 12.1482C23.2567 12.0188 23.2119 12.0129 23.0162 12.0834ZM7.41288 27.7774C8.54237 28.0266 9.0185 28.2424 9.32929 28.6458C9.45811 28.813 9.85038 29.4654 10.201 30.0954C10.8014 31.174 11.3095 31.8436 11.8096 32.2148L12.0271 32.3763L10.8741 34.4136L9.72099 36.4509L9.13053 34.2047C8.46006 31.6539 8.47177 31.6897 8.27105 31.58C8.02218 31.4441 7.84512 31.478 5.63447 32.0847C4.46036 32.4069 3.4841 32.6545 3.46493 32.635C3.39958 32.5682 6.26866 27.5716 6.37266 27.5712C6.42974 27.571 6.89785 27.6638 7.41288 27.7774ZM30.2046 30.093C30.9827 31.4767 31.6029 32.6256 31.5829 32.646C31.5628 32.6665 30.5888 32.4168 29.4185 32.091C27.2887 31.4983 27.0754 31.4538 26.828 31.5507C26.6118 31.6354 26.5088 31.9363 25.9229 34.1941C25.6158 35.3778 25.3429 36.3458 25.3165 36.3455C25.29 36.3451 24.7624 35.4519 24.1439 34.3606C23.0231 32.3826 23.0202 32.3759 23.2021 32.2562C23.6761 31.9444 24.2452 31.2009 24.8749 30.0708C25.6435 28.6913 25.8917 28.3834 26.4316 28.1397C26.7491 27.9963 28.409 27.5878 28.7079 27.5794C28.7529 27.5782 29.4264 28.7093 30.2046 30.093Z" fill="white"/>
</svg>
