<svg width="37" height="37" viewBox="0 0 37 37" fill="none" xmlns="http://www.w3.org/2000/svg">
<path fill-rule="evenodd" clip-rule="evenodd" d="M17.159 0.0181233C17.0198 0.0344515 16.597 0.0812688 16.2193 0.122234C13.8346 0.380885 11.1937 1.27533 9.06277 2.54626C6.35066 4.16369 4.14632 6.36706 2.52817 9.07799C1.2671 11.1906 0.429509 13.6457 0.0877666 16.2314C-0.0292555 17.1167 -0.0292555 19.8256 0.0877666 20.7108C0.429509 23.2966 1.2671 25.7516 2.52817 27.8643C4.14632 30.5752 6.35066 32.7786 9.06277 34.396C11.1763 35.6565 13.6325 36.4938 16.2193 36.8353C17.105 36.9523 19.8151 36.9523 20.7007 36.8353C25.2015 36.241 29.0165 34.265 32.1301 30.9159C33.8526 29.063 35.2002 26.7583 36.0272 24.251C36.6791 22.2747 36.9231 20.701 36.9231 18.4711C36.9231 16.8215 36.8534 16.0928 36.5572 14.6419C35.5415 9.66754 32.3441 5.22214 27.8573 2.54626C25.7653 1.29859 23.2706 0.443669 20.773 0.118405C20.1391 0.0358965 17.6071 -0.0344017 17.159 0.0181233ZM19.9418 2.21586C24.155 2.60189 28.2238 4.71914 30.909 7.9228C32.5322 9.85943 33.7452 12.2294 34.314 14.5755C34.6668 16.0309 34.7546 16.8065 34.7546 18.4711C34.7546 20.1357 34.6668 20.9113 34.314 22.3668C33.7452 24.7129 32.5322 27.0828 30.909 29.0195C28.2238 32.2231 24.155 34.3404 19.9418 34.7264C15.6201 35.1223 11.2962 33.7528 7.90707 30.9147C5.34646 28.7704 3.39605 25.6253 2.60602 22.3668C2.25322 20.9113 2.16547 20.1357 2.16547 18.4711C2.16547 16.8065 2.25322 16.0309 2.60602 14.5755C3.30295 11.701 5.01831 8.72389 7.13403 6.71689C10.6039 3.42538 15.2648 1.78735 19.9418 2.21586ZM10.3646 10.5654C8.90939 10.9474 7.63508 12.1481 7.15001 13.5943C6.97928 14.1035 6.89406 14.9572 6.98224 15.2763C7.15911 15.9167 7.82569 16.2256 8.44238 15.9529C8.86804 15.7647 9.02164 15.5013 9.12283 14.7864C9.22222 14.084 9.40321 13.7127 9.86551 13.2626C10.9672 12.19 12.9004 12.5044 13.592 13.8687C13.6936 14.0692 13.8203 14.5023 13.8736 14.8312C13.9896 15.547 14.1036 15.7406 14.5314 15.9476C15.0439 16.1956 15.5129 16.0591 15.8896 15.5524C16.2315 15.0924 15.9716 13.579 15.3847 12.6133C14.7758 11.6115 13.5997 10.7703 12.4753 10.5325C11.9511 10.4217 10.8466 10.4389 10.3646 10.5654ZM24.3509 10.552C22.4171 11.024 20.9247 12.8403 20.8916 14.7621C20.8831 15.2549 20.9059 15.3849 21.0305 15.5524C21.4071 16.0591 21.8762 16.1956 22.3887 15.9476C22.8164 15.7406 22.9305 15.547 23.0464 14.8312C23.0997 14.5023 23.2264 14.0692 23.3281 13.8687C24.0197 12.5044 25.9528 12.19 27.0545 13.2626C27.5169 13.7127 27.6978 14.084 27.7972 14.7864C27.8984 15.5013 28.052 15.7647 28.4777 15.9529C28.9166 16.147 29.3213 16.0822 29.6363 15.7674C29.9439 15.4599 30.0237 15.1342 29.9507 14.4849C29.8283 13.3966 29.4352 12.6008 28.6149 11.781C27.9779 11.1444 27.3287 10.7659 26.5222 10.561C26.0101 10.4308 24.8666 10.4262 24.3509 10.552ZM8.1435 20.9938C7.46313 21.3101 7.38441 21.9269 7.8799 23.0589C8.4812 24.4325 9.23855 25.5244 10.3606 26.6353C12.3609 28.6155 14.8806 29.7654 17.6218 29.9493C19.7682 30.0933 21.7242 29.7066 23.6166 28.7639C24.7053 28.2216 25.6398 27.5457 26.5594 26.6353C27.6815 25.5244 28.4389 24.4325 29.0402 23.0589C29.5427 21.911 29.4581 21.3011 28.7532 20.9894C28.0392 20.6737 27.5567 20.9751 27.134 22.0007C25.9117 24.9661 23.2278 27.1244 20.0626 27.6872C19.2495 27.8318 17.6706 27.8318 16.8575 27.6872C14.6807 27.3002 12.7278 26.1748 11.3164 24.4942C10.6424 23.6916 10.156 22.8987 9.7868 22.0007C9.5881 21.5172 9.44051 21.2693 9.26826 21.1293C8.93888 20.8618 8.53273 20.8129 8.1435 20.9938Z" fill="white"/>
</svg>
