<svg width="18" height="18" viewBox="0 0 18 18" fill="none" xmlns="http://www.w3.org/2000/svg">
<path d="M8.5858 5.72408C7.00884 5.72408 5.72193 7.01099 5.72193 8.58794C5.72193 10.1649 7.00884 11.4518 8.5858 11.4518C10.1627 11.4518 11.4497 10.1649 11.4497 8.58794C11.4497 7.01099 10.1627 5.72408 8.5858 5.72408ZM17.1752 8.58794C17.1752 7.40201 17.186 6.22681 17.1194 5.04302C17.0528 3.66802 16.7391 2.44771 15.7336 1.44224C14.726 0.434623 13.5079 0.1231 12.1329 0.0564984C10.9469 -0.0101032 9.77173 0.00063904 8.58794 0.00063904C7.40201 0.00063904 6.22681 -0.0101032 5.04302 0.0564984C3.66802 0.1231 2.44771 0.436772 1.44224 1.44224C0.434623 2.44986 0.1231 3.66802 0.0564984 5.04302C-0.0101032 6.22896 0.00063904 7.40415 0.00063904 8.58794C0.00063904 9.77173 -0.0101032 10.9491 0.0564984 12.1329C0.1231 13.5079 0.436772 14.7282 1.44224 15.7336C2.44986 16.7413 3.66802 17.0528 5.04302 17.1194C6.22896 17.186 7.40415 17.1752 8.58794 17.1752C9.77388 17.1752 10.9491 17.186 12.1329 17.1194C13.5079 17.0528 14.7282 16.7391 15.7336 15.7336C16.7413 14.726 17.0528 13.5079 17.1194 12.1329C17.1881 10.9491 17.1752 9.77388 17.1752 8.58794ZM8.5858 12.9944C6.14732 12.9944 4.17935 11.0264 4.17935 8.58794C4.17935 6.14947 6.14732 4.1815 8.5858 4.1815C11.0243 4.1815 12.9922 6.14947 12.9922 8.58794C12.9922 11.0264 11.0243 12.9944 8.5858 12.9944ZM13.1727 5.03013C12.6034 5.03013 12.1436 4.57036 12.1436 4.00103C12.1436 3.43169 12.6034 2.97193 13.1727 2.97193C13.742 2.97193 14.2018 3.43169 14.2018 4.00103C14.202 4.13622 14.1755 4.27012 14.1238 4.39505C14.0722 4.51998 13.9964 4.6335 13.9008 4.72909C13.8052 4.82469 13.6917 4.90048 13.5667 4.95214C13.4418 5.0038 13.3079 5.0303 13.1727 5.03013Z" fill="#96C33D"/>
</svg>
