<svg width="34" height="32" viewBox="0 0 34 32" fill="none" xmlns="http://www.w3.org/2000/svg">
<path fill-rule="evenodd" clip-rule="evenodd" d="M15.2929 1.94558C13.5022 3.32166 11.684 5.11573 11.0838 6.09872L10.6601 6.79272L8.68278 5.89846C7.59535 5.40657 5.71975 4.74595 4.51516 4.4302C1.78725 3.71554 1.66306 3.80481 1.09999 6.8849C0.382707 10.8084 1.21174 15.2158 3.25402 18.3383C5.26437 21.4115 9.11976 23.8908 13.9822 25.2367L16.2821 25.8732L16.3592 28.552C16.4301 31.0128 16.4796 31.2308 16.968 31.2308C17.4604 31.2308 17.4997 31.0387 17.4997 28.6219V26.0133L19.8488 25.4057C27.0246 23.5499 31.5261 19.3917 32.8297 13.4146C33.5822 9.96445 32.9447 4.50914 31.7361 4.05513C31.15 3.83501 27.4667 4.88872 25.1336 5.94403C24.018 6.44863 23.0675 6.86132 23.0212 6.86132C22.975 6.86132 22.5564 6.31963 22.0913 5.65795C21.0566 4.18545 17.6046 0.768961 17.1522 0.769226C16.9712 0.769226 16.1346 1.29847 15.2929 1.94558ZM16.4174 7.71876V12.8141L15.4387 11.3917C14.9005 10.6092 13.8656 9.41402 13.1388 8.73538C12.4124 8.05675 11.8176 7.34739 11.8176 7.15879C11.8176 6.86 16.0099 2.62316 16.3056 2.62316C16.367 2.62316 16.4174 4.916 16.4174 7.71876ZM21.5645 7.00515C21.8973 7.61413 21.8383 7.73279 20.6167 8.9118C19.9002 9.60341 19.0113 10.6171 18.6415 11.1641C18.2716 11.7114 17.9242 12.159 17.8695 12.159C17.8149 12.159 17.7759 10.0434 17.7832 7.45731L17.7959 2.7556L19.5027 4.55576C20.4416 5.5459 21.3694 6.64809 21.5645 7.00515ZM4.59281 5.68974C5.97192 6.03965 9.52183 7.4393 9.85328 7.76379C9.90685 7.81623 9.68769 8.61804 9.36598 9.54541C7.94926 13.6323 9.48503 18.5022 13.502 22.6601C15.0109 24.2222 14.8727 24.3501 12.5295 23.561C5.41616 21.1651 1.74639 15.9991 2.17227 8.9804C2.32 6.54372 2.53998 5.27201 2.81353 5.27201C2.88631 5.27201 3.68694 5.46008 4.59281 5.68974ZM31.6235 6.33314C31.7396 6.84225 31.8481 8.51023 31.8649 10.0399C31.8901 12.3482 31.7834 13.1367 31.2393 14.6754C30.0675 17.9886 28.1529 20.3056 25.1758 22.0138C23.6297 22.9009 20.7749 24.0789 20.1713 24.0789C20.0149 24.0789 20.6304 23.2845 21.5393 22.3134C25.155 18.4506 26.0876 14.1123 24.2916 9.51017C23.9791 8.7089 23.7231 8.01728 23.7231 7.97304C23.7226 7.77332 27.5352 6.17527 28.9968 5.76258C31.1067 5.16685 31.3708 5.22433 31.6235 6.33314ZM12.9251 10.2177C14.2 11.5477 14.8359 12.5124 15.5797 14.245C16.1122 15.4852 16.1968 16.1771 16.2366 19.6092C16.2615 21.7762 16.2085 23.5494 16.1184 23.5491C15.8313 23.5491 13.3123 20.8139 12.4096 19.5223C10.5216 16.8215 9.73369 13.7915 10.2324 11.1503C10.7551 8.38256 11.0638 8.27581 12.9251 10.2177ZM23.4309 10.7599C24.8711 14.9774 23.3438 19.4269 19.286 22.836C18.4523 23.5364 17.7608 23.9536 17.7489 23.7631C17.7259 23.3875 17.7553 21.7227 17.8584 17.5892C17.918 15.2028 18.0091 14.7801 18.7787 13.3232C19.7208 11.5387 22.3296 8.56559 22.6592 8.90041C22.7742 9.01722 23.1216 9.854 23.4309 10.7599ZM1.54184 24.6749C1.55618 26.7439 3.42042 29.2629 5.72976 30.3336C8.0372 31.4032 12.7646 31.0173 12.7646 29.7591C12.7646 29.3858 11.4851 28.5816 7.63946 26.5378C4.82063 25.0396 2.29403 23.814 2.02508 23.814C1.65223 23.814 1.53724 24.019 1.54184 24.6749ZM26.0227 26.5789C20.4167 29.584 19.9773 30.02 21.9641 30.6059C23.8394 31.159 26.3877 31.0424 27.9167 30.3336C30.39 29.1869 32.0919 26.9409 32.1046 24.8073C32.1092 24.0338 32.0056 23.815 31.6371 23.8185C31.3768 23.8211 28.8502 25.0632 26.0227 26.5789ZM9.33567 28.7951C10.8668 29.6176 10.7803 29.9063 9.0026 29.9063C6.7398 29.9063 3.86281 28.0598 3.19233 26.1768L2.90769 25.3771L5.40101 26.6991C6.77227 27.4265 8.5429 28.3695 9.33567 28.7951ZM30.0372 27.0797C28.9148 28.6428 27.112 29.655 25.1379 29.8303C24.219 29.9119 23.4568 29.8629 23.3643 29.7164C23.275 29.575 24.8717 28.565 26.9121 27.4718C28.9527 26.3786 30.6671 25.5972 30.7217 25.7357C30.7766 25.874 30.4685 26.479 30.0372 27.0797Z" fill="white"/>
</svg>
