<svg width="21" height="21" viewBox="0 0 21 21" fill="none" xmlns="http://www.w3.org/2000/svg">
<path d="M10.0346 6.85872C8.19158 6.85872 6.6875 8.3628 6.6875 10.2059C6.6875 12.0489 8.19158 13.553 10.0346 13.553C11.8777 13.553 13.3818 12.0489 13.3818 10.2059C13.3818 8.3628 11.8777 6.85872 10.0346 6.85872ZM20.0736 10.2059C20.0736 8.81979 20.0861 7.44629 20.0083 6.06273C19.9304 4.4557 19.5638 3.02946 18.3887 1.85432C17.211 0.676667 15.7873 0.312574 14.1803 0.234734C12.7942 0.156893 11.4207 0.169448 10.0372 0.169448C8.65109 0.169448 7.27758 0.156893 5.89403 0.234734C4.287 0.312574 2.86076 0.679178 1.68562 1.85432C0.507966 3.03197 0.143873 4.4557 0.0660325 6.06273C-0.0118081 7.4488 0.000746878 8.82231 0.000746878 10.2059C0.000746878 11.5894 -0.0118081 12.9654 0.0660325 14.349C0.143873 15.956 0.510477 17.3823 1.68562 18.5574C2.86327 19.7351 4.287 20.0991 5.89403 20.177C7.2801 20.2548 8.6536 20.2423 10.0372 20.2423C11.4232 20.2423 12.7967 20.2548 14.1803 20.177C15.7873 20.0991 17.2136 19.7325 18.3887 18.5574C19.5664 17.3797 19.9304 15.956 20.0083 14.349C20.0886 12.9654 20.0736 11.5919 20.0736 10.2059ZM10.0346 15.3559C7.18468 15.3559 4.88461 13.0558 4.88461 10.2059C4.88461 7.35589 7.18468 5.05583 10.0346 5.05583C12.8846 5.05583 15.1847 7.35589 15.1847 10.2059C15.1847 13.0558 12.8846 15.3559 10.0346 15.3559ZM15.3956 6.04767C14.7302 6.04767 14.1928 5.51032 14.1928 4.8449C14.1928 4.17949 14.7302 3.64214 15.3956 3.64214C16.061 3.64214 16.5984 4.17949 16.5984 4.8449C16.5986 5.00291 16.5676 5.1594 16.5072 5.30542C16.4468 5.45143 16.3583 5.5841 16.2465 5.69583C16.1348 5.80755 16.0021 5.89614 15.8561 5.95652C15.7101 6.01689 15.5536 6.04786 15.3956 6.04767Z" fill="white"/>
</svg>
