<svg width="220" height="57" viewBox="0 0 220 57" fill="none" xmlns="http://www.w3.org/2000/svg">
<path d="M79.6432 35.9878H68.6779L77.3347 24.0305H69.8321C69.3704 24.0305 69.0241 23.6823 69.0241 23.2179C69.0241 22.7536 69.3704 22.4053 69.8321 22.4053H80.3358L71.5635 34.4786H79.6432C80.1049 34.4786 80.4512 34.8269 80.4512 35.2912C80.3358 35.6395 79.9895 35.9878 79.6432 35.9878Z" fill="#010102"/>
<path d="M83.6831 35.9878C83.2214 35.9878 82.8751 35.6395 82.8751 35.1752V23.334C82.8751 22.8697 83.2214 22.5214 83.6831 22.5214C84.1448 22.5214 84.4911 22.8697 84.4911 23.334V35.1752C84.4911 35.6395 84.1448 35.9878 83.6831 35.9878Z" fill="#010102"/>
<path d="M83.6831 21.1283C83.2214 21.1283 82.8751 20.78 82.8751 20.3157V18.2261C82.8751 17.7617 83.2214 17.4134 83.6831 17.4134C84.1448 17.4134 84.4911 17.7617 84.4911 18.2261V20.3157C84.4911 20.78 84.1448 21.1283 83.6831 21.1283Z" fill="#010102"/>
<path d="M139.549 21.1283C139.087 21.1283 138.741 20.78 138.741 20.3157V18.2261C138.741 17.7617 139.087 17.4134 139.549 17.4134C140.01 17.4134 140.357 17.7617 140.357 18.2261V20.3157C140.357 20.78 140.01 21.1283 139.549 21.1283Z" fill="#010102"/>
<path d="M144.858 21.1283C144.397 21.1283 144.05 20.78 144.05 20.3157V18.2261C144.05 17.7617 144.397 17.4134 144.858 17.4134C145.32 17.4134 145.666 17.7617 145.666 18.2261V20.3157C145.551 20.78 145.205 21.1283 144.858 21.1283Z" fill="#010102"/>
<path d="M176.485 21.1283C176.023 21.1283 175.677 20.78 175.677 20.3157V18.2261C175.677 17.7617 176.023 17.4134 176.485 17.4134C176.946 17.4134 177.293 17.7617 177.293 18.2261V20.3157C177.177 20.78 176.831 21.1283 176.485 21.1283Z" fill="#010102"/>
<path d="M181.679 21.1283C181.217 21.1283 180.871 20.78 180.871 20.3157V18.2261C180.871 17.7617 181.217 17.4134 181.679 17.4134C182.141 17.4134 182.487 17.7617 182.487 18.2261V20.3157C182.487 20.78 182.141 21.1283 181.679 21.1283Z" fill="#010102"/>
<path d="M199.108 21.1283C198.646 21.1283 198.3 20.78 198.3 20.3157V18.2261C198.3 17.7617 198.646 17.4134 199.108 17.4134C199.57 17.4134 199.916 17.7617 199.916 18.2261V20.3157C199.916 20.78 199.57 21.1283 199.108 21.1283Z" fill="#010102"/>
<path d="M204.418 21.1283C203.956 21.1283 203.61 20.78 203.61 20.3157V18.2261C203.61 17.7617 203.956 17.4134 204.418 17.4134C204.879 17.4134 205.226 17.7617 205.226 18.2261V20.3157C205.11 20.78 204.764 21.1283 204.418 21.1283Z" fill="#010102"/>
<path d="M95.341 30.5316C96.6107 30.0672 97.9958 28.6741 97.9958 26.2362C97.9958 23.4501 95.4564 22.4053 94.1868 22.1731H87.723V35.1751C87.723 35.6395 88.0692 35.9878 88.5309 35.9878C88.9926 35.9878 89.3389 35.6395 89.3389 35.1751V30.7637H93.9559L96.149 35.5234C96.2644 35.7556 96.6107 35.9878 96.8416 35.9878C96.957 35.9878 97.0724 35.9878 97.1878 35.8717C97.5341 35.6395 97.7649 35.2912 97.5341 34.8269L95.341 30.5316ZM89.1081 23.6823H93.9559C94.3022 23.6823 96.3798 24.1466 96.3798 26.2362C96.3798 28.6741 94.533 29.2546 94.1868 29.2546H89.1081V23.6823Z" fill="#010102"/>
<path d="M106.076 36.3361C103.074 36.3361 98.8038 34.1304 98.8038 29.2546V28.442H111.27C110.923 25.3075 108.153 23.6823 105.498 23.6823C102.844 23.6823 101.574 25.5397 101.574 25.5397C101.343 25.888 100.881 26.0041 100.535 25.7719C100.189 25.5397 100.073 25.0754 100.304 24.7271C100.42 24.611 102.036 22.2892 105.498 22.2892C108.846 22.2892 112.424 24.4949 112.77 28.6741H116.81C117.272 28.6741 117.618 29.0224 117.618 29.4868C117.618 29.9511 117.272 30.2994 116.81 30.2994H112.77C112.539 32.1568 111.616 33.5499 110.923 34.3625C109.654 35.4073 107.807 36.3361 106.076 36.3361ZM100.42 30.0672C100.881 33.3177 103.882 34.8269 106.076 34.8269C107.345 34.8269 108.846 34.1304 109.885 33.0855C110.462 32.5051 111.154 31.4603 111.385 30.0672H100.42Z" fill="#010102"/>
<path d="M127.314 36.3361C125.582 36.3361 123.736 35.5234 122.35 34.1304C121.427 33.2016 120.388 31.5764 120.388 29.1385C120.504 24.611 124.313 22.2892 127.775 22.2892C131.123 22.2892 132.854 24.7271 132.97 24.7271C133.2 25.0754 133.085 25.5397 132.739 25.7719C132.392 26.0041 131.931 25.888 131.7 25.5397C131.584 25.4236 130.315 23.6823 127.775 23.6823C125.005 23.6823 122.12 25.5397 122.004 29.0224C121.889 30.8798 122.812 32.1568 123.505 32.9695C124.544 34.0143 126.044 34.7108 127.314 34.7108C129.507 34.7108 132.508 33.2016 132.97 29.9511H125.467C125.005 29.9511 124.659 29.6029 124.659 29.1385C124.659 28.6741 125.005 28.3259 125.467 28.3259H134.586V29.1385C134.47 34.1304 130.199 36.3361 127.314 36.3361Z" fill="#010102"/>
<path d="M171.406 33.5499C171.637 33.8982 171.637 34.3625 171.291 34.5947C170.136 35.4073 168.751 35.9878 167.482 36.22V38.89C167.482 39.3544 167.135 39.7026 166.674 39.7026C166.212 39.7026 165.866 39.3544 165.866 38.89V36.22C164.365 35.9878 162.865 35.1751 161.71 34.1303C160.787 33.2016 159.748 31.5764 159.748 29.0224C159.864 24.611 163.673 22.1731 167.135 22.1731C169.79 22.1731 171.291 23.9145 171.291 24.0305C171.522 24.3788 171.522 24.8432 171.175 25.0754C170.829 25.3075 170.367 25.3075 170.136 24.9593C170.021 24.9593 169.098 23.6823 167.135 23.6823C164.365 23.6823 161.48 25.5397 161.364 29.0224C161.364 30.8798 162.172 32.2729 162.865 32.9694C163.903 34.0143 165.289 34.7108 166.674 34.7108C167.943 34.7108 169.328 34.2464 170.367 33.4338C170.598 33.2016 171.175 33.3177 171.406 33.5499Z" fill="#010102"/>
<path d="M179.255 36.336C174.869 36.336 173.599 33.0855 173.484 31.4603V22.9857C173.484 22.5214 173.83 22.1731 174.292 22.1731C174.753 22.1731 175.1 22.5214 175.1 22.9857V31.3442C175.1 31.6925 175.331 34.7108 179.255 34.7108C182.718 34.7108 183.064 32.2729 183.064 31.2281V22.8697C183.064 22.4053 183.41 22.057 183.872 22.057C184.334 22.057 184.68 22.4053 184.68 22.8697V31.2281C184.565 33.5499 183.179 36.336 179.255 36.336Z" fill="#010102"/>
<path d="M142.319 36.336C137.933 36.336 136.663 33.0855 136.548 31.4603V22.9857C136.548 22.5214 136.894 22.1731 137.356 22.1731C137.817 22.1731 138.164 22.5214 138.164 22.9857V31.3442C138.164 31.6925 138.395 34.7108 142.319 34.7108C145.782 34.7108 146.128 32.2729 146.128 31.2281V22.8697C146.128 22.4053 146.474 22.057 146.936 22.057C147.398 22.057 147.744 22.4053 147.744 22.8697V31.2281C147.629 33.5499 146.243 36.336 142.319 36.336Z" fill="#010102"/>
<path d="M202.109 36.336C197.723 36.336 196.453 33.0855 196.338 31.4603V22.9857C196.338 22.5214 196.684 22.1731 197.146 22.1731C197.608 22.1731 197.954 22.5214 197.954 22.9857V31.3442C197.954 31.6925 198.185 34.7108 202.109 34.7108C205.572 34.7108 205.918 32.2729 205.918 31.2281V22.8697C205.918 22.4053 206.264 22.057 206.726 22.057C207.188 22.057 207.534 22.4053 207.534 22.8697V31.2281C207.419 33.5499 206.034 36.336 202.109 36.336Z" fill="#010102"/>
<path d="M159.286 36.336H150.514V22.8697C150.514 22.4053 150.86 22.057 151.322 22.057C151.784 22.057 152.13 22.4053 152.13 22.8697V34.7108H159.286C159.748 34.7108 160.094 35.0591 160.094 35.5234C160.094 35.9878 159.748 36.336 159.286 36.336Z" fill="#010102"/>
<path d="M195.761 36.336H186.988V22.8697C186.988 22.4053 187.335 22.057 187.796 22.057C188.258 22.057 188.604 22.4053 188.604 22.8697V34.7108H195.761C196.222 34.7108 196.569 35.0591 196.569 35.5234C196.453 35.9878 196.107 36.336 195.761 36.336Z" fill="#010102"/>
<path d="M219.769 36.1039C219.654 36.22 219.423 36.336 219.307 36.336C219.077 36.336 218.846 36.22 218.73 36.1039L212.728 29.3707L211.459 30.6477V35.6395C211.459 36.1039 211.112 36.4521 210.651 36.4521C210.189 36.4521 209.843 36.1039 209.843 35.6395V22.8697C209.843 22.4053 210.189 22.057 210.651 22.057C211.112 22.057 211.459 22.4053 211.459 22.8697V28.3259L212.267 27.5132L217.576 22.2892C217.922 22.057 218.384 22.057 218.615 22.2892C218.846 22.6375 218.846 23.1018 218.615 23.334L213.882 27.9776L219.885 34.8269C220.115 35.2912 220.115 35.7556 219.769 36.1039Z" fill="#010102"/>
<path fill-rule="evenodd" clip-rule="evenodd" d="M27.1249 32.0407C25.8552 30.9959 24.5855 29.9511 23.3158 29.0224C23.893 28.4419 24.4701 27.8615 24.9318 27.2811C25.9706 26.0041 27.0094 24.7271 27.9328 23.334C28.51 23.9145 29.0871 24.4949 29.6642 24.9593C30.9339 26.0041 32.2036 27.0489 33.4732 27.9776C32.8961 28.558 32.319 29.1385 31.8573 29.7189C30.8185 30.9959 29.7796 32.2729 28.8562 33.666C28.2791 33.0855 27.702 32.5051 27.1249 32.0407ZM19.276 8.12627C18.6988 8.35845 18.468 8.93889 18.8143 9.51934C19.7377 11.609 20.7765 13.4664 21.8153 15.3238C22.9696 17.1813 24.1238 18.9226 25.3935 20.5479C25.7398 21.0122 26.086 21.3605 26.4323 21.8248C24.9318 24.1466 23.085 26.3523 20.8919 28.3259L20.7765 28.4419C17.4292 31.4603 13.5047 34.1303 8.65687 36.336C8.07975 36.5682 7.8489 37.1487 8.07975 37.7291C8.3106 38.0774 8.65687 38.3096 9.11857 38.3096C9.234 38.3096 9.46485 38.3096 9.58027 38.1935C11.6579 37.2648 13.5047 36.22 15.3515 35.1751C17.1983 34.0142 18.9297 32.8534 20.5456 31.5764C21.0073 31.2281 21.3536 30.8798 21.8153 30.5316C27.8174 34.4786 32.5498 40.3992 36.2434 48.4094C36.4743 48.7576 36.8206 48.9898 37.1668 48.9898C37.2823 48.9898 37.5131 48.9898 37.6285 48.8737C38.2057 48.6415 38.4365 48.0611 38.0902 47.4806C37.1668 45.391 36.128 43.5336 35.0892 41.6762C33.9349 39.8187 32.7807 38.0774 31.511 36.4521C31.1647 35.9878 30.8185 35.6395 30.4722 35.1751C31.9727 32.8534 33.8195 30.6477 36.0126 28.6741L36.128 28.558C39.4753 25.5397 43.5152 22.8696 48.2476 20.6639C48.8248 20.4318 49.0556 19.8513 48.7093 19.2709C48.4785 18.6904 47.9014 18.4582 47.3242 18.8065C45.2466 19.7352 43.3998 20.78 41.553 21.8248C39.7062 22.9857 37.9748 24.1466 36.3589 25.4236C35.8972 25.7719 35.5509 26.1202 35.0892 26.4684C29.0871 22.5214 24.3547 16.6008 20.6611 8.59063C20.4302 8.24236 20.0839 8.12627 19.6222 8.12627C19.5068 8.12627 19.3914 8.12627 19.276 8.12627Z" fill="#96C33D"/>
<path fill-rule="evenodd" clip-rule="evenodd" d="M22.277 20.4318C18.6988 25.7719 14.0818 29.4868 8.65687 31.6925C7.50262 32.1568 6.34837 32.2729 5.19412 32.0407C3.00105 31.6925 2.07765 30.6477 2.07765 28.558C2.07765 27.5132 2.42392 26.5845 3.2319 26.0041C4.27072 25.1914 5.5404 24.8432 7.04092 25.0754C8.65687 25.3075 10.5037 26.1202 12.6967 27.5132C13.1584 27.8615 13.851 27.6293 14.0818 27.165C14.4281 26.7006 14.1973 26.0041 13.7356 25.7719C12.5813 25.0754 11.4271 24.4949 10.3882 24.0305C9.34942 23.5662 8.19517 23.2179 7.27177 23.1018C5.0787 22.7536 3.2319 23.2179 1.73137 24.4949C1.15425 24.9593 0.577125 25.6558 0.346275 26.3523C0.115425 27.0489 0 27.8615 0 28.558C0 30.1833 0.577125 31.4603 1.3851 32.389C1.8468 32.8534 2.3085 33.2016 2.88562 33.4338C3.46275 33.666 4.03987 33.8982 4.73242 34.0142C5.19412 34.1303 5.65582 34.1303 6.11752 34.1303C7.15635 34.1303 8.3106 33.8982 9.34942 33.5499C10.8499 32.9694 12.235 32.2729 13.6201 31.4603C15.0052 30.6477 16.2749 29.7189 17.4292 28.7902C18.5834 27.7454 19.8531 26.7006 20.8919 25.4236C21.9307 24.2627 22.9696 22.8696 23.893 21.4766C24.2392 21.0122 24.1238 20.3157 23.6621 20.0835C23.4313 19.9674 23.3158 19.8513 23.085 19.8513C22.8541 19.9674 22.5079 20.0835 22.277 20.4318Z" fill="#108B45"/>
<path fill-rule="evenodd" clip-rule="evenodd" d="M14.7744 19.387C13.7356 19.0387 12.6967 18.3422 12.1196 17.5295C11.1962 16.2525 11.6579 15.4399 11.8888 15.0916C12.4659 14.279 13.2739 14.279 13.7356 14.3951C15.1207 14.7434 16.6212 16.6008 16.9675 19.7352C16.852 19.7352 16.7366 19.7352 16.7366 19.7352C16.1595 19.7352 15.4669 19.6191 14.7744 19.387ZM16.7366 21.8248C17.3137 21.8248 17.8909 21.7088 18.468 21.5927C18.9297 21.4766 19.1605 21.0122 19.1605 20.5479C19.0451 18.4582 18.5834 16.6008 17.66 15.0916C16.852 13.6986 15.6978 12.7699 14.4281 12.4216C14.0818 12.3055 13.7356 12.3055 13.2739 12.3055C12.8122 12.3055 12.4659 12.4216 12.1196 12.5377C11.3116 12.7699 10.7345 13.2342 10.2728 13.9308C9.34942 15.4399 9.46485 17.2974 10.6191 18.8065C11.0808 19.387 11.5425 19.8513 12.235 20.3157C12.8122 20.78 13.5047 21.1283 14.1973 21.3605C15.0052 21.7088 15.9286 21.8248 16.7366 21.8248Z" fill="#379D57"/>
<path fill-rule="evenodd" clip-rule="evenodd" d="M28.2791 57C28.3945 57 28.3945 57 28.3945 57C30.0105 57 31.2802 56.4196 32.2036 55.6069C32.6653 55.1426 33.0115 54.6782 33.3578 54.0978C33.5887 53.5173 33.8195 52.9369 33.9349 52.2403C34.1658 50.7312 34.0504 49.1059 33.4732 47.5967C32.8961 46.0876 32.2036 44.6945 31.3956 43.3014C30.5876 41.9084 29.6642 40.6314 28.7408 39.4705C27.702 38.3096 26.6632 37.0326 25.3935 35.9878C24.2392 34.943 22.8541 33.8982 21.469 32.9695C21.2382 32.8534 21.1228 32.7373 20.8919 32.7373C20.5456 32.7373 20.1994 32.8534 20.0839 33.2016C19.7377 33.666 19.8531 34.3625 20.3148 34.5947C25.6243 38.1935 29.3179 42.8371 31.511 48.2933C31.9727 49.4542 32.0881 50.6151 31.8573 51.776C31.511 53.9817 30.4722 54.9104 28.3945 54.9104H28.2791C27.3557 54.9104 26.4323 54.446 25.8552 53.7495C25.0472 52.7047 24.7009 51.4277 24.9318 49.9185C25.1626 48.2933 25.9706 46.4358 27.3557 44.2301C27.702 43.7658 27.4711 43.0693 27.0094 42.8371C26.5477 42.4888 25.8552 42.721 25.6243 43.1853C24.9318 44.3462 24.3547 45.5071 23.893 46.5519C23.4313 47.5967 23.085 48.7576 22.9696 49.6864C22.6233 51.8921 23.085 53.7495 24.3547 55.2587C24.8164 55.8391 25.5089 56.4196 26.2015 56.6517C26.7786 56.8839 27.4711 57 28.2791 57Z" fill="#108B45"/>
<path fill-rule="evenodd" clip-rule="evenodd" d="M15.0052 45.0428C14.1973 44.4623 14.1973 43.6497 14.3127 43.1853C14.659 41.7923 16.5058 40.2831 19.6222 39.9348C19.6222 40.6314 19.5068 41.444 19.276 42.1405C18.9297 43.1853 18.2371 44.2301 17.4292 44.8106C16.852 45.275 16.3903 45.391 16.0441 45.391C15.5824 45.391 15.2361 45.1589 15.0052 45.0428ZM20.4302 37.7291C18.3526 37.8452 16.5058 38.3096 15.0052 39.2383C13.6201 40.0509 12.6967 41.2118 12.3505 42.4888C12.1196 43.3014 12.1196 44.1141 12.3505 44.8106C12.5813 45.5071 13.1584 46.2037 13.851 46.668C14.5435 47.1324 15.2361 47.3646 16.0441 47.3646C16.9675 47.3646 17.8909 47.0163 18.6988 46.4358C19.276 45.9715 19.7377 45.5071 20.1994 44.8106C20.6611 44.2301 21.0073 43.5336 21.2382 42.8371C21.8153 41.3279 21.8153 39.7026 21.469 38.4257C21.2382 38.0774 20.8919 37.7291 20.4302 37.7291Z" fill="#379D57"/>
<path fill-rule="evenodd" clip-rule="evenodd" d="M47.2088 23.4501C45.7083 24.0306 44.3232 24.7271 42.9381 25.5397C41.553 26.3523 40.2833 27.2811 39.1291 28.2098C37.9748 29.2546 36.7051 30.2994 35.6663 31.5764C34.6275 32.7373 33.5887 34.1304 32.6653 35.5234C32.319 35.9878 32.4344 36.6843 32.8961 36.9165C33.127 37.0326 33.2424 37.1487 33.4732 37.1487C33.8195 37.1487 34.1658 37.0326 34.2812 36.6843C37.8594 31.3442 42.4764 27.6293 47.9014 25.4236C49.0556 24.9593 50.2099 24.8432 51.3641 25.0754C53.5572 25.4236 54.4806 26.4684 54.4806 28.5581C54.4806 29.6029 54.1343 30.5316 53.3263 31.112C52.2875 31.9246 51.0178 32.2729 49.5173 32.0407C47.9014 31.8086 46.0546 30.9959 43.8615 29.6029C43.3998 29.2546 42.7072 29.4868 42.4764 29.9511C42.1301 30.4155 42.361 31.112 42.8227 31.3442C43.9769 32.0407 45.1312 32.6212 46.17 33.0855C47.2088 33.5499 48.3631 33.8982 49.2865 34.0143C49.7482 34.1304 50.0944 34.1304 50.5561 34.1304C52.1721 34.1304 53.5572 33.666 54.7114 32.6212C55.2886 32.1568 55.8657 31.4603 56.0965 30.7638C56.4428 30.0672 56.5582 29.2546 56.5582 28.442C56.5582 26.8167 55.9811 25.5397 55.1731 24.611C54.7114 24.1466 54.2497 23.7984 53.6726 23.4501C53.0955 23.2179 52.5184 22.9858 51.8258 22.8697C51.3641 22.7536 50.9024 22.7536 50.4407 22.7536C49.2865 22.7536 48.2476 22.9858 47.2088 23.4501Z" fill="#108B45"/>
<path fill-rule="evenodd" clip-rule="evenodd" d="M42.8227 42.6049C41.4376 42.2566 39.937 40.3992 39.5908 37.2648C40.2833 37.2648 41.0913 37.3809 41.7838 37.613C42.8227 37.9613 43.8615 38.6578 44.4386 39.4705C45.362 40.7475 44.9003 41.5601 44.6695 41.9084C44.2078 42.4888 43.7461 42.721 43.2844 42.721C43.1689 42.6049 43.0535 42.6049 42.8227 42.6049ZM43.3998 44.6945C43.8615 44.6945 44.2078 44.5784 44.554 44.4623C45.2466 44.2301 45.9391 43.6497 46.4008 42.9532C47.3242 41.444 47.2088 39.5866 46.0546 38.0774C45.5929 37.4969 45.1312 37.0326 44.4386 36.5682C43.8615 36.1039 43.1689 35.7556 42.4764 35.5234C41.553 35.1752 40.6296 35.0591 39.8216 35.0591C39.2445 35.0591 38.6674 35.1752 38.0902 35.2912C37.6285 35.4073 37.3977 35.8717 37.3977 36.3361C37.5131 38.4257 37.9748 40.2831 38.8982 41.7923C39.7062 43.1853 40.8604 44.1141 42.1301 44.4623C42.5918 44.6945 43.0535 44.6945 43.3998 44.6945Z" fill="#379D57"/>
<path fill-rule="evenodd" clip-rule="evenodd" d="M35.7817 24.3788C36.128 24.3788 36.4743 24.2627 36.7051 23.9145C37.0514 23.4501 36.936 22.7536 36.4743 22.5214C31.1647 18.9226 27.4711 14.279 25.2781 8.82281C24.8164 7.66191 24.7009 6.50102 24.9318 5.34012C25.2781 3.13442 26.3169 2.2057 28.3945 2.2057C29.4334 2.2057 30.3568 2.55397 30.9339 3.3666C31.7419 4.41141 32.0881 5.68839 31.8573 7.19756C31.6264 8.82281 30.8185 10.6802 29.4334 12.8859C29.0871 13.3503 29.3179 14.0468 29.7796 14.279C29.8951 14.3951 30.1259 14.3951 30.3568 14.3951C30.703 14.3951 31.0493 14.279 31.2802 13.9308C31.9727 12.7699 32.5498 11.609 33.0115 10.5642C33.4732 9.51935 33.8195 8.35845 33.9349 7.42973C34.2812 5.22403 33.8195 3.3666 32.5498 1.85743C32.0881 1.27699 31.3956 0.696538 30.703 0.464358C29.8951 0.11609 29.2025 0 28.3945 0H28.2791C26.6632 0 25.3935 0.580448 24.4701 1.39308C24.0084 1.85743 23.6621 2.32179 23.3158 2.90224C23.085 3.48269 22.8541 4.06314 22.7387 4.75967C22.5079 6.26884 22.6233 7.89409 23.2004 9.40326C23.7775 10.9124 24.4701 12.3055 25.2781 13.6986C26.086 15.0916 27.0094 16.3686 27.9328 17.5295C28.9717 18.6904 30.0105 19.9674 31.2802 21.0122C32.4344 22.057 33.8195 23.1018 35.2046 24.0306C35.4355 24.2627 35.6663 24.3788 35.7817 24.3788Z" fill="#108B45"/>
<path fill-rule="evenodd" clip-rule="evenodd" d="M37.3977 14.8595C37.744 13.8147 38.4365 12.7699 39.2445 12.1894C39.8216 11.725 40.2833 11.609 40.6296 11.609C41.0913 11.609 41.4376 11.8411 41.6684 11.9572C42.4764 12.5377 42.4764 13.3503 42.361 13.8147C42.0147 15.2077 40.1679 16.7169 37.0514 17.0652C37.0514 16.4847 37.1668 15.6721 37.3977 14.8595ZM36.2434 19.2709C38.3211 19.1548 40.1679 18.6904 41.6684 17.7617C43.0535 16.9491 43.9769 15.7882 44.3232 14.5112C44.554 13.6986 44.554 12.8859 44.3232 12.1894C44.0923 11.4929 43.5152 10.7963 42.8227 10.332C42.1301 9.86762 41.4376 9.63544 40.6296 9.63544C39.7062 9.63544 38.7828 9.98371 37.9748 10.5642C37.3977 11.0285 36.936 11.4929 36.4743 12.1894C36.0126 12.7699 35.6663 13.4664 35.4355 14.1629C34.8583 15.6721 34.8583 17.2974 35.2046 18.5743C35.32 19.0387 35.7817 19.2709 36.2434 19.2709Z" fill="#379D57"/>
</svg>
