<svg width="23" height="22" viewBox="0 0 23 22" fill="none" xmlns="http://www.w3.org/2000/svg">
<path fill-rule="evenodd" clip-rule="evenodd" d="M14.6272 0.238597C14.8167 0.4221 15.3692 1.77855 17.0214 6.11677C18.2027 9.21853 19.1952 11.8413 19.2269 11.9452C19.3016 12.1899 19.0709 12.7137 18.8355 12.8339C18.6034 12.9525 18.1355 12.9547 17.9077 12.8383C17.8114 12.7892 17.6762 12.6428 17.607 12.5129C17.5379 12.3831 16.5891 9.93433 15.4984 7.07116C14.4078 4.20799 13.5062 1.85282 13.4951 1.83746C13.472 1.8057 2.08165 3.97252 2.03428 4.01763C1.99718 4.05312 4.22302 10.4114 4.95593 12.3637C7.04274 17.922 7.8693 19.4438 9.13883 20.064C9.64899 20.3133 10.612 20.369 11.1322 20.1794C12.0446 19.847 12.6393 18.7833 12.6393 17.4842V16.8534L14.5713 16.1046C21.1586 13.5518 22.7846 12.9454 22.858 13.0145C22.9024 13.0565 22.9591 13.5572 22.9836 14.1271C23.022 15.0153 23.0008 15.25 22.8354 15.7695C22.5905 16.539 22.03 17.3426 21.4597 17.7422C21.0294 18.0437 13.194 21.4964 12.1847 21.8294C11.4457 22.0731 9.62371 22.0518 8.87343 21.7905C7.11021 21.1766 6.01443 19.8008 4.68217 16.5283C3.13288 12.7226 0.00129318 3.892 0.00129318 3.329C0.00129318 2.61746 -0.274015 2.69606 7.20795 1.27185C10.8828 0.572373 14 0 14.1351 0C14.2828 0 14.4791 0.0951787 14.6272 0.238597ZM12.8211 4.78036C13.293 4.95901 13.5164 5.55758 13.273 5.9914C13.1493 6.21212 12.7147 6.42044 12.378 6.42044C12.0401 6.42044 11.5856 6.06749 11.5234 5.7567C11.3908 5.09453 12.1474 4.52519 12.8211 4.78036ZM10.3015 5.72738C10.7546 6.06749 10.6944 6.81955 10.1943 7.06621C9.72109 7.29969 5.88532 8.25087 5.63165 8.19769C4.95375 8.05557 4.74636 7.07489 5.31861 6.71708C5.60465 6.53826 9.36832 5.55281 9.76537 5.55281C9.93239 5.55281 10.1736 5.63133 10.3015 5.72738ZM14.2304 8.32445C14.9277 8.59679 14.937 9.54346 14.2456 9.85815C13.5924 10.1553 12.912 9.77598 12.912 9.11477C12.912 8.50847 13.618 8.08533 14.2304 8.32445ZM11.757 9.16179C12.2344 9.40881 12.3204 10.0101 11.9346 10.4035C11.731 10.6111 11.3146 10.7739 9.69072 11.2811C8.59403 11.6236 7.55208 11.9038 7.37533 11.9038C6.68933 11.9038 6.27955 11.0065 6.75734 10.5505C6.97092 10.3467 10.9457 9.01959 11.3209 9.02679C11.4209 9.0287 11.6171 9.08943 11.757 9.16179ZM15.9081 11.7822C16.4493 12.2987 16.1757 13.0889 15.4083 13.2263C14.9789 13.3031 14.631 13.1298 14.4308 12.7391C14.2859 12.4562 14.2818 12.3881 14.3941 12.1318C14.5663 11.7386 14.7501 11.6126 15.2263 11.5613C15.5864 11.5226 15.6616 11.547 15.9081 11.7822ZM13.3736 12.7474C13.5644 12.9295 13.6394 13.0853 13.6394 13.2997C13.6394 13.8786 13.4573 13.9834 11.2064 14.6993C10.0691 15.061 9.00263 15.357 8.83634 15.357C8.4151 15.357 8.00232 14.9581 8.00232 14.5511C8.00232 13.9682 8.18471 13.8637 10.4481 13.1493C11.5902 12.7888 12.6559 12.4938 12.8163 12.4938C13.0173 12.4938 13.1904 12.5726 13.3736 12.7474Z" fill="black"/>
</svg>
