<svg width="18" height="18" viewBox="0 0 18 18" fill="none" xmlns="http://www.w3.org/2000/svg">
<path d="M1.15606 3.12832L3.44414 0.842383C3.72344 0.563086 4.09727 0.40625 4.49258 0.40625C4.88789 0.40625 5.26172 0.560938 5.54102 0.842383L8.00527 3.30234C8.28457 3.58164 8.44141 3.95762 8.44141 4.35293C8.44141 4.75039 8.28672 5.12207 8.00527 5.40352L6.08027 7.33066C6.5188 8.35243 7.1489 9.28079 7.93652 10.0656C8.725 10.8584 9.64668 11.4836 10.6693 11.9262L12.5943 9.99902C12.8736 9.71973 13.2475 9.56289 13.6428 9.56289C13.8378 9.56217 14.0309 9.60037 14.211 9.67526C14.391 9.75015 14.5543 9.86022 14.6912 9.99902L17.1576 12.459C17.4369 12.7383 17.5938 13.1143 17.5938 13.5096C17.5938 13.907 17.4391 14.2787 17.1576 14.5602L14.8717 16.8461C14.3947 17.323 13.7373 17.5959 13.0627 17.5959C12.923 17.5959 12.7877 17.5852 12.6502 17.5615C9.80566 17.0932 6.98262 15.5785 4.70312 13.3012C2.42578 11.0195 0.91328 8.19648 0.440624 5.3498C0.305273 4.54199 0.575977 3.71055 1.15606 3.12832ZM1.96387 5.09414C2.38281 7.62715 3.74492 10.1537 5.79668 12.2055C7.84844 14.2572 10.3729 15.6193 12.9059 16.0383C13.2238 16.092 13.5504 15.9846 13.7824 15.7547L16.0275 13.5096L13.6471 11.127L11.0732 13.7051L11.0539 13.7244L10.5898 13.5525C9.18277 13.0352 7.90502 12.2181 6.84514 11.1578C5.78526 10.0976 4.9686 8.81956 4.45176 7.4123L4.27988 6.94824L6.87519 4.35508L4.49473 1.97246L2.24961 4.21758C2.01758 4.44961 1.91016 4.77617 1.96387 5.09414Z" fill="white"/>
</svg>
