<svg width="57" height="59" viewBox="0 0 57 59" fill="none" xmlns="http://www.w3.org/2000/svg">
<path fill-rule="evenodd" clip-rule="evenodd" d="M26.6599 0.692624C26.3113 0.809235 25.8515 1.0139 25.6383 1.1474C25.0553 1.51219 24.3418 2.35068 24.0328 3.03402L23.7577 3.64246L20.4523 3.67714L17.1468 3.7117L16.8204 4.08182C16.3743 4.58759 16.3745 5.13812 16.8211 5.59028L17.1482 5.92153L20.4304 5.92266L23.7125 5.92391L24.0122 6.57428C24.1771 6.93204 24.4943 7.43985 24.7173 7.70265L25.1225 8.18054L23.1555 16.4788C22.0736 21.043 21.1678 24.7981 21.1426 24.8236C21.1174 24.8491 20.7725 24.7607 20.3761 24.6272C19.9798 24.4936 19.3158 24.3209 18.9006 24.2433L18.1456 24.1022L17.8726 23.1429C17.3019 21.1368 16.134 19.6693 14.4617 18.8567C13.2621 18.2738 12.4214 18.113 10.9678 18.188C8.81824 18.2992 8.49469 18.8051 9.07072 21.154C9.28649 22.0336 9.81193 23.1109 10.3423 23.7607C10.7757 24.2918 11.5465 24.9922 11.921 25.1951C12.0999 25.2921 12.0066 25.3906 11.2253 25.9293L10.3229 26.5515L9.56337 26.2739C6.11873 25.0158 2.68852 26.4456 1.101 29.8015C0.677405 30.697 0.63152 31.0427 0.873257 31.5163C1.06161 31.885 2.11955 32.4417 3.18554 32.7332C4.03307 32.9648 5.69591 32.9948 6.4049 32.7911C6.67271 32.7142 6.89934 32.6674 6.90851 32.687C6.91769 32.7067 6.90001 33.8904 6.86923 35.3173L6.81328 37.9119L5.86199 38.1088C2.56553 38.7909 0.512442 41.3138 0.467788 44.7373C0.446524 46.3709 0.718031 46.6493 2.31876 46.6356C3.84293 46.6225 5.24254 46.1862 6.27418 45.4024C6.47014 45.2536 6.68424 45.1318 6.74982 45.1318C6.82749 45.1318 6.86923 45.5853 6.86923 46.4278V47.7238L6.27239 48.4169C5.15268 49.7168 4.63093 51.1505 4.63093 52.9267C4.63093 54.7331 5.22576 56.1407 6.60455 57.5975C7.38102 58.418 7.42713 58.4474 7.93243 58.4474C8.43795 58.4474 8.4835 58.4182 9.25829 57.5975C10.1392 56.6645 10.789 55.5402 11.0629 54.4752C11.2822 53.6228 11.2822 52.053 11.0629 51.2006C10.8258 50.2787 10.1739 49.0686 9.53024 48.3554L8.98857 47.7554L9.02013 46.382L9.05158 45.0086L9.44329 45.306C10.4105 46.04 11.4424 46.4362 12.8219 46.6029C13.9839 46.7433 14.7837 46.6083 15.1174 46.2154C15.3483 45.9437 15.3748 45.7975 15.3748 44.7984C15.3748 43.9654 15.3084 43.4523 15.1118 42.7648L14.8488 41.8454H15.8137C16.6753 41.8454 17.7166 41.6436 18.4208 41.3402C18.5967 41.2644 18.6131 41.3844 18.6149 42.7697C18.6169 44.3043 18.8055 45.7472 19.1353 46.7529C19.2351 47.057 19.2733 47.3455 19.2202 47.3946C19.1673 47.4436 18.8677 47.568 18.5544 47.6707C17.4016 48.0491 16.0331 49.1593 15.3037 50.3076C15.0989 50.63 14.7949 51.2929 14.6279 51.7808C14.3699 52.5345 14.324 52.8553 14.3226 53.9145C14.3196 56.0391 14.7395 56.9176 15.7581 56.9176C16.6665 56.9176 18.4253 56.2959 19.299 55.6659C19.6985 55.3777 19.7006 55.4139 19.345 56.4725C19.0148 57.4554 19.0529 57.8091 19.5325 58.2177C20.1672 58.7585 20.9109 58.5032 21.2883 57.6149C21.4191 57.3067 21.66 56.5776 21.8234 55.9945C21.9868 55.4115 22.1344 54.9175 22.1515 54.8969C22.1685 54.8763 22.4609 55.089 22.8012 55.3696C23.5542 55.9907 24.608 56.5136 25.5689 56.7429C27.5619 57.2187 27.977 56.8093 28.0932 54.2544C28.1476 53.0584 28.0065 52.1316 27.6314 51.223C27.5544 51.0363 27.7851 51.0247 31.5833 51.0247C33.8759 51.0247 35.7382 50.978 35.8982 50.9165C36.0528 50.8569 36.2598 50.6838 36.3581 50.532C36.4771 50.3479 36.9118 47.8196 37.6593 42.9624C38.6983 36.2115 38.8018 35.6478 39.0516 35.3814C39.785 34.5992 39.6903 31.96 38.8657 30.2018C38.4057 29.2212 37.0943 27.859 36.1351 27.3655C35.4665 27.0214 35.4649 27.0194 35.7673 26.901C36.8801 26.465 37.4001 26.3771 38.8211 26.3847C40.0872 26.3913 40.3921 26.4317 41.1713 26.695C41.6637 26.8615 42.3376 27.1561 42.6687 27.3495L43.2708 27.7013L42.5959 28.3422C40.3577 30.4675 39.8503 33.6559 41.292 36.5367C41.7685 37.489 42.3053 37.6417 43.4199 37.1427C44.6161 36.607 46.1588 35.2951 46.5186 34.5076C46.7656 33.9672 46.8275 34.3163 46.7978 36.0823L46.7671 37.9118L45.8158 38.1088C43.6287 38.5614 42.0218 39.7789 41.1122 41.6728C40.6335 42.6695 40.4438 43.5597 40.4438 44.8093C40.4438 45.7969 40.4708 45.9441 40.7012 46.2154C41.035 46.6083 41.8347 46.7433 42.9967 46.6029C44.3762 46.4362 45.4082 46.04 46.3753 45.306L46.7671 45.0086L46.7985 46.382L46.8301 47.7554L46.2884 48.3554C45.6448 49.0686 44.9929 50.2787 44.7557 51.2006C44.5365 52.053 44.5365 53.6228 44.7557 54.4752C45.0297 55.5402 45.6795 56.6645 46.5603 57.5975C47.3291 58.4119 47.384 58.4474 47.8724 58.4474C48.3389 58.4474 48.4357 58.3946 49.0151 57.8242C49.7763 57.0745 50.5045 55.9732 50.8506 55.0477C51.165 54.2075 51.2793 52.4137 51.0803 51.4434C50.8955 50.5417 50.1889 49.1594 49.5131 48.3774L48.9494 47.7251V46.4285C48.9494 45.5854 48.9911 45.1318 49.0688 45.1318C49.1344 45.1318 49.3485 45.2536 49.5445 45.4024C50.5761 46.1862 51.9757 46.6225 53.4999 46.6356C55.0979 46.6493 55.3595 46.3816 55.3459 44.7465C55.3273 42.5145 54.4148 40.5804 52.8105 39.373C51.9258 38.7072 51.1169 38.3488 49.9566 38.1088L49.0054 37.9119L48.9494 35.3173C48.9186 33.8904 48.9009 32.7067 48.9101 32.687C48.9193 32.6674 49.1459 32.7142 49.4137 32.7911C50.1227 32.9948 51.7856 32.9648 52.6331 32.7332C53.6991 32.4417 54.757 31.885 54.9454 31.5163C55.1871 31.0427 55.1412 30.697 54.7176 29.8015C53.7058 27.6626 51.9792 26.2975 49.7888 25.9046C48.7016 25.7096 47.442 25.8405 46.2635 26.271L45.4957 26.5515L44.6014 25.9349L43.7072 25.3183L44.1387 25.0291C45.2784 24.2654 46.3911 22.6157 46.746 21.1637C47.3233 18.8023 47.0029 18.2993 44.8508 18.188C43.3963 18.1129 42.5566 18.2738 41.3535 18.8584C39.6589 19.6818 38.5278 21.104 37.9468 23.142L37.6762 24.0913L36.7378 24.2886C36.2216 24.3972 35.5853 24.5649 35.3237 24.6613C35.0622 24.7578 34.8481 24.8134 34.8481 24.7851C34.8481 24.7566 33.9141 21.0087 32.7727 16.4562L30.6973 8.17907L31.102 7.70197C31.3246 7.43951 31.6416 6.93204 31.8064 6.57428L32.1061 5.92391L44.0022 5.92266L55.8983 5.92153L56.1685 5.64796C56.6908 5.11908 56.6477 4.38292 56.0688 3.94526C55.7626 3.71374 55.6583 3.71125 43.9101 3.65504L32.0603 3.59838L31.7138 2.89611C30.7966 1.0377 28.5527 0.0592532 26.6599 0.692624ZM28.7487 2.96263C29.5549 3.33943 29.9238 3.93393 29.9238 4.85685C29.9238 6.50708 28.1483 7.4513 26.7644 6.53711C25.7875 5.89161 25.5902 4.31187 26.378 3.44176C26.7068 3.07845 27.43 2.75343 27.9093 2.75343C28.1248 2.75343 28.5025 2.8476 28.7487 2.96263ZM30.7412 17.5107L32.8422 25.8978L31.9875 26.6952C30.0729 28.4816 28.8938 30.7388 28.6268 33.1292L28.5519 33.7994H27.8949C27.2657 33.7994 27.2378 33.7871 27.2378 33.5113C27.2378 32.9728 26.8835 31.4793 26.544 30.5864C26.083 29.3744 25.0758 27.8897 24.0364 26.89L23.1722 26.0586L25.1617 17.6616C26.2559 13.0433 27.1678 9.23593 27.1881 9.2008C27.2085 9.16567 27.5436 9.13394 27.9327 9.13032L28.6403 9.12352L30.7412 17.5107ZM13.3846 20.8132C14.4629 21.3302 15.383 22.4436 15.7225 23.6424L15.8153 23.97L15.0529 23.9149C14.0879 23.8449 13.2144 23.4491 12.4706 22.7446C11.912 22.2156 11.2339 21.0508 11.2339 20.6204C11.2339 20.4143 11.2935 20.4009 11.9894 20.4515C12.4878 20.4878 12.9625 20.6108 13.3846 20.8132ZM44.5847 20.6356C44.5847 21.0525 43.8979 22.2237 43.348 22.7446C42.6023 23.4508 41.7312 23.8449 40.7598 23.9153C39.9107 23.9767 39.9536 24.0367 40.25 23.2035C40.7975 21.6647 42.4501 20.4419 43.9971 20.4311C44.4946 20.4277 44.5847 20.459 44.5847 20.6356ZM19.4597 26.7043C20.6973 27.1117 20.6541 27.0652 20.4727 27.7971C20.3883 28.1378 20.0341 29.6229 19.6854 31.0975L19.0516 33.7785L18.2703 33.9572C17.2338 34.1942 16.1809 34.7383 15.4043 35.4381C15.0558 35.7522 14.805 35.9181 14.847 35.8067C15.4026 34.3319 15.48 32.5602 15.0479 31.2124C14.7058 30.1456 14.0721 29.1488 13.2245 28.3438L12.5513 27.7045L13.0683 27.3978C14.3737 26.6231 15.676 26.3082 17.3333 26.3663C18.269 26.3992 18.7793 26.4803 19.4597 26.7043ZM7.8852 28.1348C8.69054 28.2895 8.75501 28.382 8.39251 28.8633C7.62679 29.8799 6.51536 30.5581 5.40124 30.6884C4.85744 30.7521 3.64383 30.6016 3.37132 30.4367C3.23758 30.3558 3.91209 29.4365 4.37677 29.0662C5.48238 28.1853 6.60108 27.8882 7.8852 28.1348ZM50.3859 28.4201C50.7144 28.5719 51.1813 28.8551 51.4235 29.0494C51.904 29.4347 52.583 30.3546 52.4473 30.4367C52.4009 30.4648 52.069 30.549 51.7099 30.6237C50.0945 30.96 48.5172 30.3117 47.4261 28.8633C47.0722 28.3936 47.1334 28.2858 47.8383 28.1368C48.5815 27.9796 49.7027 28.1042 50.3859 28.4201ZM24.0967 30.6293C24.5496 31.5062 24.9995 32.9296 24.9995 33.4855V33.7994H23.2089C21.7031 33.7994 21.4182 33.7727 21.4182 33.6318C21.4182 33.5395 21.67 32.4011 21.9778 31.1017C22.2856 29.8023 22.5395 28.6922 22.5422 28.6345C22.5537 28.3864 23.6941 29.8501 24.0967 30.6293ZM35.0213 29.3406C36.2257 29.9377 37.1273 31.2659 37.2707 32.6539L37.3434 33.3589L37.019 33.2833C35.2516 32.8717 33.89 31.3445 33.7533 29.6208L33.6954 28.8913L34.0502 28.9631C34.2453 29.0027 34.6823 29.1726 35.0213 29.3406ZM11.3061 29.6679C11.9747 30.1842 12.3686 30.6698 12.7271 31.4195C13.0452 32.0844 13.0787 32.2554 13.0719 33.1761C13.0679 33.737 13.0057 34.3383 12.9337 34.5122C12.8173 34.7934 12.7758 34.8137 12.558 34.6958C12.1138 34.4551 11.2574 33.4987 10.9679 32.9203C10.5822 32.1496 10.4338 31.1493 10.5743 30.2662C10.7366 29.2455 10.7477 29.2366 11.3061 29.6679ZM45.0761 29.473C45.1073 29.5243 45.1831 29.8813 45.2443 30.2662C45.3848 31.1493 45.2364 32.1496 44.8507 32.9203C44.5612 33.4987 43.7048 34.4551 43.2606 34.6958C43.0428 34.8137 43.0013 34.7934 42.8849 34.5122C42.813 34.3383 42.7513 33.737 42.7478 33.1761C42.7425 32.296 42.7833 32.0654 43.0459 31.4946C43.3979 30.7293 43.7456 30.2828 44.3986 29.757C44.8899 29.3615 44.9839 29.322 45.0761 29.473ZM32.5797 32.8497C32.706 33.0292 32.9156 33.2732 33.0453 33.392C33.175 33.5107 33.2813 33.6509 33.2813 33.7036C33.2813 33.7563 32.7273 33.7994 32.0502 33.7994H30.8191V33.4855C30.8191 33.0894 31.2191 31.6149 31.4484 31.166L31.6217 30.8267L31.9857 31.675C32.1861 32.1415 32.4533 32.6702 32.5797 32.8497ZM9.30003 34.5076C9.84361 35.6973 12.4498 37.5051 13.4779 37.4058L13.8824 37.3667L13.6241 38.0104C13.4821 38.3644 13.333 38.8621 13.2928 39.1164C13.2527 39.3709 13.2012 39.5789 13.1785 39.5789C13.1556 39.5789 12.8952 39.403 12.5996 39.1881C11.8596 38.6497 11.1217 38.3433 10.0029 38.1101L9.05158 37.9118L9.0208 36.0823C8.99115 34.3163 9.05304 33.9672 9.30003 34.5076ZM19.9602 36.4169C19.4831 38.1014 18.1065 39.3229 16.4229 39.5561C15.3476 39.705 15.3176 39.658 15.8123 38.5992C16.5404 37.0407 17.9152 36.0938 19.4799 36.0734L20.0596 36.0659L19.9602 36.4169ZM36.4149 36.2439C36.4149 36.4288 34.6697 47.8968 34.5579 48.4466L34.4945 48.7582H30.1313H25.768L25.4117 48.4876C24.6083 47.8772 23.315 47.3784 22.1302 47.2219L21.5552 47.1458L21.3255 46.3371C20.6982 44.1284 20.6274 41.9267 21.1212 39.9766L21.2645 39.411L21.6491 40.1466C22.4455 41.6694 24.0468 42.9058 25.8944 43.4242C27.9625 44.0045 28.4278 43.5784 28.5487 40.9933C28.6324 39.2015 28.2501 37.8671 27.2873 36.5903L26.8918 36.0659H31.6533C35.9073 36.0659 36.4149 36.0848 36.4149 36.2439ZM23.9363 36.675C25.3545 37.3513 26.2285 38.6681 26.3199 40.2662C26.3779 41.2807 26.3585 41.2995 25.6151 40.9501C24.0751 40.2266 23.097 38.6995 23.097 37.019C23.097 36.3093 23.1361 36.2933 23.9363 36.675ZM6.71132 40.7405C6.59605 41.4853 6.04184 42.5758 5.49973 43.1247C4.93052 43.7012 3.96872 44.1972 3.21833 44.3014L2.69423 44.3741L2.75657 43.9034C2.85181 43.1844 3.43533 42.0335 3.9723 41.506C4.64783 40.842 5.78813 40.2873 6.51983 40.2665C6.77063 40.2593 6.7816 40.2864 6.71132 40.7405ZM10.7303 40.7024C11.9335 41.2784 12.8901 42.5625 13.0933 43.8747L13.1707 44.3741L12.622 44.2984C10.9484 44.0678 9.3758 42.4654 9.14425 40.7549L9.0724 40.2242L9.56561 40.3026C9.83689 40.3457 10.361 40.5256 10.7303 40.7024ZM46.672 40.7722C46.4428 42.4653 44.8624 44.0688 43.1966 44.2984L42.6479 44.3741L42.7253 43.8747C42.9103 42.6803 43.8472 41.3325 44.8645 40.797C45.4125 40.5087 46.1166 40.2767 46.4745 40.2665C46.7275 40.2592 46.7378 40.2857 46.672 40.7722ZM50.6841 40.6989C51.0534 40.8738 51.5774 41.2416 51.8486 41.5162C52.3954 42.0698 52.9675 43.1891 53.0597 43.8856C53.1167 44.3155 53.1047 44.3385 52.8225 44.3385C51.9478 44.3385 50.5254 43.5216 49.8955 42.6576C49.5231 42.1466 49.0613 40.9297 49.0613 40.4591C49.0613 40.2532 49.1096 40.2376 49.537 40.3054C49.7985 40.3469 50.3148 40.524 50.6841 40.6989ZM19.7648 50.5014C19.7213 51.5748 19.3898 52.3779 18.6616 53.1742C18.0646 53.8272 17.1183 54.4244 16.6807 54.4244C16.4819 54.4244 16.4687 54.3609 16.5217 53.6595C16.6438 52.0438 17.5106 50.6974 18.872 50.0085C19.2502 49.8172 19.6126 49.6798 19.6775 49.703C19.7486 49.7285 19.7833 50.0461 19.7648 50.5014ZM23.2792 49.8471C24.9124 50.5347 25.9822 52.2248 25.876 53.9499L25.8389 54.5521L25.0407 54.1471C23.5754 53.4037 22.7638 52.1702 22.6709 50.5453C22.6394 49.9964 22.663 49.6648 22.7331 49.6648C22.7951 49.6648 23.0408 49.7468 23.2792 49.8471ZM8.63212 51.0247C8.909 51.5858 8.93967 51.7667 8.93967 52.8379C8.93967 53.909 8.909 54.09 8.63212 54.6511C8.46302 54.9939 8.22878 55.3989 8.11172 55.5512L7.89896 55.8281L7.5555 55.2798C6.59112 53.7398 6.59112 51.9359 7.5555 50.396L7.89896 49.8477L8.11172 50.1246C8.22878 50.2769 8.46302 50.6819 8.63212 51.0247ZM48.5786 50.9883C48.9381 51.7756 49.0739 52.6868 48.9481 53.4692C48.8415 54.1327 48.4404 55.0908 48.0809 55.5408L47.8682 55.8073L47.5031 55.2313C47.026 54.4784 46.8147 53.7454 46.8133 52.8379C46.8117 51.9341 47.0232 51.2018 47.505 50.4414L47.872 49.8623L48.0912 50.1318C48.2119 50.2802 48.4311 50.6656 48.5786 50.9883Z" fill="#96C33D"/>
</svg>
