<svg width="24" height="24" viewBox="0 0 24 24" fill="none" xmlns="http://www.w3.org/2000/svg">
<path d="M11.8891 6.13333C12.0836 6.13333 12.2701 6.21059 12.4077 6.34812C12.5452 6.48565 12.6225 6.67217 12.6225 6.86666V11.2667H17.0225C17.217 11.2667 17.4035 11.3439 17.541 11.4815C17.6785 11.619 17.7558 11.8055 17.7558 12C17.7558 12.1945 17.6785 12.381 17.541 12.5185C17.4035 12.6561 17.217 12.7333 17.0225 12.7333H12.6225V17.1333C12.6225 17.3278 12.5452 17.5143 12.4077 17.6519C12.2701 17.7894 12.0836 17.8667 11.8891 17.8667C11.6946 17.8667 11.5081 17.7894 11.3706 17.6519C11.2331 17.5143 11.1558 17.3278 11.1558 17.1333V12.7333H6.75579C6.5613 12.7333 6.37478 12.6561 6.23725 12.5185C6.09972 12.381 6.02246 12.1945 6.02246 12C6.02246 11.8055 6.09972 11.619 6.23725 11.4815C6.37478 11.3439 6.5613 11.2667 6.75579 11.2667H11.1558V6.86666C11.1558 6.67217 11.2331 6.48565 11.3706 6.34812C11.5081 6.21059 11.6946 6.13333 11.8891 6.13333Z" fill="white"/>
</svg>
