<svg width="58" height="62" viewBox="0 0 58 62" fill="none" xmlns="http://www.w3.org/2000/svg">
<path fill-rule="evenodd" clip-rule="evenodd" d="M32.4654 0.787845C32.3564 0.912545 32.2033 1.32226 32.125 1.69856C31.9683 2.45168 31.5943 3.27291 31.2932 3.52503C31.1304 3.66126 31.0203 3.59768 30.61 3.13112C29.6909 2.08587 29.5645 1.98564 29.1639 1.98564C28.5193 1.98564 28.2597 2.36932 28.2597 3.32147C28.2597 5.00835 27.9453 5.98562 26.8564 7.68559C26.5785 8.11938 26.3329 8.52961 26.3104 8.59746C26.2881 8.66519 25.877 8.34159 25.397 7.87827C24.4368 6.95163 23.9877 6.81359 23.5079 7.29763C23.2765 7.5311 23.257 7.66746 23.3268 8.56017C23.3957 9.43916 23.3504 9.77337 22.955 11.309C22.7073 12.2705 22.3095 13.6094 22.0709 14.2843L21.6372 15.5115L21.1186 15.4737C20.6578 15.4402 20.5523 15.4907 20.1728 15.9268C19.1258 17.1298 17.537 20.1648 16.6586 22.6395C15.6781 25.4015 14.7666 29.1058 14.1646 32.775L13.819 34.8821L12.6003 34.9215C10.4969 34.9893 9.58489 35.6611 9.58489 37.1425C9.58489 38.091 9.97507 38.9634 10.9379 40.1678C11.3003 40.621 11.5482 41.0328 11.4892 41.0829C11.4302 41.1331 10.9691 41.2699 10.4648 41.387C7.91789 41.9784 5.08895 43.7363 2.51325 46.3282C1.58875 47.2586 0.734714 48.2104 0.615478 48.4432C0.409478 48.8457 0.411532 48.9102 0.658219 49.7381C1.54999 52.732 3.91302 55.6479 7.75194 58.4912C9.82747 60.0285 12.6395 61.585 13.1147 61.4596C13.5194 61.3529 14.9318 59.7518 15.8533 58.3551C16.3208 57.6467 17.0466 56.3426 17.4662 55.457C18.1993 53.9096 19.286 50.8791 19.4719 49.8636C19.5209 49.5957 19.6103 49.3459 19.6705 49.3082C19.7309 49.2707 20.103 49.5053 20.4975 49.8294C23.352 52.1752 25.394 51.6474 25.761 48.4691L25.8436 47.7529L27.3404 47.5245C33.158 46.6364 41.1771 43.6208 49.0141 39.3739C51.0765 38.2563 51.1499 38.1483 50.6648 36.9439C50.4838 36.4944 50.3357 36.1076 50.3357 36.0843C50.3357 35.9777 53.0322 36.057 53.7604 36.1849C54.4513 36.3064 54.622 36.2971 54.8842 36.1237C55.0543 36.0113 55.2308 35.8009 55.2762 35.6561C55.3813 35.3221 55.0354 34.1114 54.5927 33.2633C54.4052 32.9041 54.2322 32.5666 54.2082 32.5132C54.1309 32.3407 55.0839 32.41 55.935 32.6388C56.8527 32.8855 57.0653 32.8283 57.3931 32.2458C57.572 31.9279 57.555 31.8484 57.1202 30.9637C56.1672 29.025 54.7021 27.4873 52.8955 26.5294L52.0213 26.066L52.7508 23.8998L53.4802 21.7337L53.9338 21.6612C54.5065 21.5696 54.6917 21.4534 54.8193 21.1054C55.0064 20.5948 54.7219 20.1674 53.7694 19.5285L52.8549 18.9149L53.3674 18.4327C53.6493 18.1674 54.2231 17.8224 54.6427 17.666C55.4912 17.3498 55.7263 17.1214 55.7263 16.6135C55.7263 15.9583 55.383 15.8188 52.5415 15.3196L49.8864 14.8532L49.8046 13.3725C49.6862 11.2309 49.0639 9.44473 47.8789 7.84512C47.4406 7.25334 47.3177 7.16529 46.9303 7.16529C46.3833 7.16529 45.9718 7.54457 45.9718 8.04868C45.9718 8.51096 45.6196 9.56645 45.4055 9.74566C45.2832 9.84809 45.1451 9.73025 44.8461 9.2681C43.8759 7.76872 42.506 6.81269 40.4993 6.23412C39.6638 5.99326 39.2141 5.94742 37.8858 5.96763C37.0034 5.98122 36.1114 6.00854 35.9036 6.02836L35.5259 6.06461L34.7274 3.56207C34.2883 2.1857 33.8286 0.947378 33.7056 0.810377C33.4234 0.495713 32.7315 0.483152 32.4654 0.787845ZM33.4426 5.40369C33.6275 6.00168 33.7787 6.54593 33.7787 6.61314C33.7787 6.68035 33.638 6.79987 33.466 6.87899C33.1691 7.01547 33.1302 6.98025 32.6959 6.1831C32.4443 5.72133 32.2385 5.30981 32.2385 5.26863C32.2385 5.16258 32.9276 4.33707 33.0255 4.32581C33.0702 4.32063 33.2578 4.8057 33.4426 5.40369ZM30.5426 6.03626C32.7304 9.5311 33.1057 12.4343 31.7264 15.1912C31.4164 15.8106 30.3728 16.9882 30.252 16.8549C30.2308 16.8314 29.9544 16.1412 29.6376 15.3209C29.3208 14.5007 28.7078 13.1176 28.2756 12.2476C27.8433 11.3774 27.4901 10.5918 27.4908 10.5016C27.493 10.2197 28.1137 8.97519 28.6966 8.08429C29.1562 7.3818 29.5814 6.40686 29.8738 5.38479C29.9485 5.12373 30.0071 5.18084 30.5426 6.03626ZM39.2885 7.82026C40.5562 8.02783 40.5722 8.06836 39.6683 8.78484L38.8719 9.41611L37.4483 9.44641C36.5541 9.46544 35.6787 9.56813 35.094 9.72248L34.1632 9.96839L34.0359 9.50558C33.8148 8.70313 33.8534 8.62867 34.645 8.32773C36.1898 7.74036 37.7553 7.5693 39.2885 7.82026ZM44.0477 11.506C44.4819 12.5279 44.7303 14.098 44.6507 15.3187C44.6112 15.9265 44.5437 16.5148 44.5008 16.6259C44.4563 16.7414 44.0023 16.9526 43.4406 17.1194C41.5 17.6954 39.5731 18.917 39.0502 19.9027C38.9507 20.0903 38.8253 20.2439 38.7718 20.2439C38.5753 20.2439 38.4934 18.7632 38.6433 17.9214C38.8613 16.6977 39.3262 15.8172 40.1077 15.1475C40.8743 14.4907 42.137 13.6512 42.971 13.2439C44.0535 12.7152 44.1611 12.0107 43.2698 11.288L42.7809 10.8917L42.9868 10.4559L43.1928 10.0203L43.4958 10.4702C43.6624 10.7176 43.9108 11.1837 44.0477 11.506ZM26.3917 12.4097C27.545 14.5412 28.8764 18.208 29.8611 21.9658C30.2951 23.6221 30.6065 24.5671 31.1497 25.8768L31.3645 26.3947L30.8877 25.9415C28.5986 23.7656 23.0515 17.3834 23.08 16.9586C23.0901 16.8069 23.3571 15.9545 23.6732 15.0643C23.9892 14.174 24.4058 12.8046 24.5989 12.0212C24.7919 11.2378 24.9752 10.5124 25.0061 10.4093C25.074 10.1831 25.5897 10.9278 26.3917 12.4097ZM47.766 11.7163C48.0869 12.9161 48.1311 14.9311 47.8623 16.1002L47.6985 16.8124H47.0598H46.421L46.4602 15.4527C46.4831 14.6561 46.4231 13.6641 46.3153 13.0571L46.1311 12.0212L46.6612 11.1481C47.2889 10.1139 47.3451 10.1428 47.766 11.7163ZM39.1984 11.3686C39.6732 11.4701 40.3343 11.6748 40.6674 11.8235L41.2731 12.0937L40.4457 12.6349C39.6013 13.1874 38.0587 14.6641 37.2306 15.7129C36.9771 16.034 36.5231 16.469 36.2219 16.6797L35.6742 17.0626L35.272 16.549C35.0508 16.2666 34.6351 15.7732 34.3481 15.4527L33.8264 14.87L34.0487 13.9636C34.171 13.465 34.2759 12.782 34.2815 12.4457L34.292 11.8342L35.0084 11.6241C36.5868 11.1611 37.864 11.0833 39.1984 11.3686ZM51.0737 16.8862C51.5855 16.9753 52.0042 17.0856 52.0042 17.1315C52.0042 17.1773 51.8119 17.4029 51.5768 17.6327L51.1495 18.0506L50.3896 17.766C49.4366 17.409 49.3855 17.3618 49.4907 16.9388C49.559 16.6641 49.635 16.6064 49.86 16.6586C50.0157 16.6947 50.5618 16.7971 51.0737 16.8862ZM34.6958 18.8692C35.7157 20.3563 35.9606 21.1427 35.9606 22.9318C35.9606 24.4081 35.7537 25.9415 35.5544 25.9415C35.2859 25.9415 34.0022 25.2485 33.2873 24.7176C32.1611 23.8811 31.93 23.3195 32.0154 21.6257C32.0788 20.3685 32.3949 18.9639 32.9649 17.4066L33.1739 16.8354L33.5404 17.2771C33.742 17.5201 34.2619 18.2365 34.6958 18.8692ZM24.8567 22.1215C29.177 27.039 32.7407 30.3725 35.0621 31.6678C35.3798 31.8449 36.315 32.3807 37.1402 32.8583C38.8452 33.845 42.1606 35.4361 45.5335 36.8864C46.797 37.4297 47.8494 37.8931 47.8721 37.916C47.9388 37.9832 44.5405 39.6922 42.3766 40.6798C36.2815 43.4617 31.1218 45.1517 26.7231 45.8072C25.4758 45.993 25.3705 45.9918 25.2589 45.7907C24.9456 45.2259 24.0444 44.4217 23.334 44.0732C22.1464 43.4903 21.1852 43.2858 19.2363 43.2015L17.4647 43.1249L17.5461 42.4646C17.6603 41.5368 17.3906 39.2953 17.038 38.244C16.7364 37.3444 16.4116 36.7785 15.8312 36.1409L15.5088 35.7869L15.8609 33.5511C16.8942 26.9887 18.6036 21.5463 20.6424 18.3276L21.077 17.6413L22.3411 19.1693C23.0365 20.0095 24.1684 21.3381 24.8567 22.1215ZM48.8091 19.1204C49.5577 19.3696 50.5107 19.7482 50.9268 19.962L51.6833 20.3505L51.2983 20.4995C50.3933 20.8501 49.793 21.2335 48.8428 22.0679C47.6131 23.148 46.6872 23.6656 45.3819 24.0024C43.5836 24.4664 42.1127 24.2669 40.8412 23.3869C40.0864 22.8644 39.9651 22.5851 40.1233 21.7337C40.3381 20.5792 42.3943 19.145 44.4958 18.6843C45.5525 18.4525 47.3472 18.6341 48.8091 19.1204ZM50.8611 23.902C50.486 25.0342 50.3235 25.3662 50.1324 25.392C49.6575 25.4558 49.5909 25.2855 49.7252 24.3518C49.8505 23.4818 49.8577 23.4698 50.5637 22.9597C50.9555 22.6768 51.2912 22.4453 51.3098 22.4453C51.3286 22.4453 51.1266 23.1009 50.8611 23.902ZM37.903 23.3069C37.7822 23.5164 37.7648 23.4988 37.7613 23.1639C37.7585 22.8854 37.7958 22.8207 37.8992 22.9249C38.0007 23.0273 38.0017 23.1355 37.903 23.3069ZM39.7212 24.8231C40.071 25.112 40.0744 25.127 39.8496 25.3891C39.5768 25.7071 38.296 25.9593 38.4837 25.6581C38.8596 25.055 39.2427 24.5207 39.2977 24.5233C39.333 24.525 39.5236 24.66 39.7212 24.8231ZM47.5042 26.2997C47.3478 26.7793 47.1097 27.393 46.9751 27.6635L46.7303 28.1554L46.2548 27.7859C45.6348 27.304 44.6226 26.6703 44.0015 26.3751L43.5074 26.1402L44.8539 25.9171C45.5945 25.7943 46.5388 25.5558 46.9524 25.387C47.8637 25.0151 47.902 25.0786 47.5042 26.2997ZM50.3802 27.3591C51.7865 27.8472 52.9288 28.5563 53.9294 29.5622L54.8921 30.5298L53.8157 30.6241L52.7394 30.7185L52.1472 30.219C51.3898 29.5804 50.2015 28.8867 49.3403 28.5804C48.9694 28.4486 48.6914 28.2816 48.7223 28.2094C48.7534 28.1372 48.8495 27.8597 48.9358 27.5925C49.1217 27.0173 49.3086 26.9872 50.3802 27.3591ZM34.5123 27.4592C34.7794 27.5818 35.0167 27.6929 35.0396 27.7061C35.0918 27.7365 34.6884 28.5314 34.6206 28.5314C34.5932 28.5314 34.3931 28.24 34.1759 27.8839C33.7445 27.1766 33.7849 27.1256 34.5123 27.4592ZM42.6848 27.7767C43.7521 28.132 46.6252 30.1253 46.3991 30.3534C46.2077 30.5465 43.2163 31.3584 42.1574 31.5046C40.0416 31.797 39.0435 31.1651 37.8784 28.7956C37.6707 28.3734 37.5008 27.9714 37.5008 27.9025C37.5008 27.7523 38.2241 27.6171 39.6185 27.5067C40.9672 27.3999 41.7635 27.47 42.6848 27.7767ZM36.5124 30.0205C36.7504 30.5245 36.6823 30.5798 36.2431 30.239C36.0476 30.0872 35.9765 29.9352 36.0322 29.7886C36.1572 29.4599 36.274 29.5164 36.5124 30.0205ZM50.1431 30.966C51.107 31.5761 51.7825 32.2171 52.407 33.114C52.7502 33.6072 53.031 34.0597 53.031 34.1198C53.031 34.1799 52.3235 34.2291 51.4587 34.2291C50.2211 34.2292 49.6047 34.2981 48.5627 34.5528C47.7584 34.7494 46.8638 34.8764 46.283 34.8764C45.3931 34.8764 45.2153 34.8251 43.7076 34.133L42.0882 33.3896L42.5861 33.2843C44.2904 32.9237 45.5597 32.5796 46.7466 32.1566C48.6189 31.4891 48.917 31.3172 49.0091 30.8533C49.0979 30.4052 49.2869 30.4241 50.1431 30.966ZM13.5359 36.7864C13.6025 36.9119 13.2955 39.9167 13.2069 40.006C13.1185 40.0953 11.796 38.4286 11.5186 37.8783C11.2322 37.3102 11.2996 36.9171 11.7026 36.8047C12.146 36.681 13.473 36.6678 13.5359 36.7864ZM15.4945 39.4277C15.7284 40.3204 15.8887 42.3869 15.7239 42.3869C15.6564 42.3869 15.449 42.2266 15.2632 42.0308C14.9268 41.6764 14.9257 41.669 15.0432 40.4445C15.108 39.768 15.1627 39.0736 15.1646 38.9014C15.1696 38.4484 15.2867 38.6352 15.4945 39.4277ZM14.0492 43.3558L14.6633 43.9259L13.7925 44.1945C12.5798 44.5686 9.39198 45.2054 8.23722 45.3042C6.873 45.421 6.4972 45.5617 6.30634 46.0265C6.16541 46.3698 6.17761 46.4602 6.4062 46.7655C6.65904 47.1032 6.70178 47.1126 7.86912 47.0887C9.16159 47.0625 11.8418 46.6013 13.66 46.0924C14.2777 45.9196 14.783 45.7972 14.783 45.8204C14.783 45.8436 14.587 46.5519 14.3475 47.3943C13.8803 49.0381 13.4995 51.0508 13.4995 51.8764C13.4995 52.3111 13.4668 52.3716 13.2749 52.2901C12.4749 51.9509 12.0837 52.1187 11.6469 52.9882C11.2316 53.8152 9.91384 55.7771 9.29263 56.4936L8.79413 57.0684L7.97026 56.442C7.11045 55.7885 4.13006 52.8134 4.13006 52.6087C4.13006 52.4091 5.54112 51.361 6.67188 50.7207C7.94728 49.9985 8.21027 49.6801 7.98476 49.1308C7.89979 48.9236 7.66838 48.6867 7.47072 48.6039C7.15999 48.4742 7.01765 48.5014 6.42275 48.8039C5.61544 49.2145 4.09258 50.1892 3.57469 50.6267C3.37524 50.7954 3.16372 50.9333 3.10481 50.9333C3.04577 50.9333 2.83784 50.5223 2.64249 50.02L2.28735 49.1067L3.5616 47.8088C5.14581 46.1953 6.61348 45.0673 8.21835 44.2293C9.99573 43.3015 11.5693 42.8149 12.8578 42.7947C13.3676 42.7868 13.5074 42.8526 14.0492 43.3558ZM20.8863 45.1683C21.4319 45.2735 22.1445 45.492 22.4698 45.6539L23.0615 45.9479L22.4707 45.9866C22.1458 46.0079 21.2884 45.9038 20.5656 45.7551C19.8428 45.6065 19.1518 45.5167 19.0301 45.5557C18.8938 45.5993 18.6927 45.5018 18.5063 45.3016L18.2036 44.9767H19.0491C19.514 44.9767 20.3408 45.0629 20.8863 45.1683ZM18.0627 47.6414C18.2045 48.1564 17.1644 51.6847 16.2235 53.88C15.3789 55.8505 14.2938 57.6472 13.0797 59.0849L12.724 59.5061L11.6235 58.8779C11.0182 58.5323 10.494 58.1781 10.4586 58.0908C10.423 58.0036 10.6507 57.6248 10.9644 57.2491C11.6256 56.4572 12.3874 55.3303 12.9842 54.2606L13.4037 53.5088L13.6845 53.775C14.0329 54.1052 14.5786 54.1179 14.8908 53.8029C15.0658 53.6264 15.1488 53.2795 15.2108 52.4657C15.3639 50.4558 15.9163 47.9185 16.5111 46.4933L16.7158 46.0028L17.3522 46.6876C17.7023 47.0641 18.022 47.4934 18.0627 47.6414ZM23.1111 47.8244L24.0591 47.8256L23.9792 48.4134C23.8777 49.16 23.6925 49.5089 23.3978 49.5089C23.1261 49.5089 21.8472 48.6836 21.2005 48.091L20.7512 47.6794L21.4572 47.7514C21.8454 47.7908 22.5897 47.8239 23.1111 47.8244Z" fill="#96C33D"/>
</svg>
