<svg width="24" height="24" viewBox="0 0 24 24" fill="none" xmlns="http://www.w3.org/2000/svg">
<path fill-rule="evenodd" clip-rule="evenodd" d="M0 12C0 5.37321 5.37321 0 12 0C18.6268 0 24 5.37321 24 12C24 18.6268 18.6268 24 12 24C5.37321 24 0 18.6268 0 12ZM12 1.92C6.43359 1.92 1.92 6.43359 1.92 12C1.92 17.5664 6.43359 22.08 12 22.08C17.5664 22.08 22.08 17.5664 22.08 12C22.08 6.43359 17.5664 1.92 12 1.92Z" fill="white"/>
<path fill-rule="evenodd" clip-rule="evenodd" d="M9.36035 10.32C9.36035 9.78981 9.79016 9.36 10.3204 9.36H12.2404C12.7705 9.36 13.2004 9.78981 13.2004 10.32V17.28C13.2004 17.8102 12.7705 18.24 12.2404 18.24C11.7102 18.24 11.2804 17.8102 11.2804 17.28V11.28H10.3204C9.79016 11.28 9.36035 10.8502 9.36035 10.32Z" fill="white"/>
<path fill-rule="evenodd" clip-rule="evenodd" d="M8.63965 17.52C8.63965 16.9898 9.06946 16.56 9.59965 16.56H14.8796C15.4098 16.56 15.8396 16.9898 15.8396 17.52C15.8396 18.0502 15.4098 18.48 14.8796 18.48H9.59965C9.06946 18.48 8.63965 18.0502 8.63965 17.52Z" fill="white"/>
<path d="M11.9995 4.92C11.6909 4.92 11.3893 5.01149 11.1328 5.18291C10.8762 5.35432 10.6763 5.59796 10.5582 5.88301C10.4401 6.16806 10.4092 6.48173 10.4694 6.78434C10.5296 7.08695 10.6782 7.36492 10.8964 7.58309C11.1145 7.80125 11.3925 7.94983 11.6951 8.01002C11.9977 8.07022 12.3114 8.03932 12.5964 7.92125C12.8815 7.80318 13.1251 7.60323 13.2965 7.34669C13.468 7.09015 13.5595 6.78854 13.5595 6.48C13.5595 6.06626 13.3951 5.66947 13.1025 5.37691C12.81 5.08435 12.4132 4.92 11.9995 4.92Z" fill="white"/>
</svg>
