<svg width="25" height="25" viewBox="0 0 25 25" fill="none" xmlns="http://www.w3.org/2000/svg">
<path d="M22.0703 3.90625H2.92969C2.82227 3.90625 2.73438 3.99414 2.73438 4.10156V5.66406C2.73438 5.77148 2.82227 5.85938 2.92969 5.85938H22.0703C22.1777 5.85938 22.2656 5.77148 22.2656 5.66406V4.10156C22.2656 3.99414 22.1777 3.90625 22.0703 3.90625ZM22.0703 19.1406H2.92969C2.82227 19.1406 2.73438 19.2285 2.73438 19.3359V20.8984C2.73438 21.0059 2.82227 21.0938 2.92969 21.0938H22.0703C22.1777 21.0938 22.2656 21.0059 22.2656 20.8984V19.3359C22.2656 19.2285 22.1777 19.1406 22.0703 19.1406ZM22.0703 11.5234H2.92969C2.82227 11.5234 2.73438 11.6113 2.73438 11.7188V13.2812C2.73438 13.3887 2.82227 13.4766 2.92969 13.4766H22.0703C22.1777 13.4766 22.2656 13.3887 22.2656 13.2812V11.7188C22.2656 11.6113 22.1777 11.5234 22.0703 11.5234Z" fill="black"/>
</svg>
