<svg width="52" height="62" viewBox="0 0 52 62" fill="none" xmlns="http://www.w3.org/2000/svg">
<mask id="path-1-inside-1_33_1040" fill="white">
<path fill-rule="evenodd" clip-rule="evenodd" d="M16.1312 1.06242C14.6263 2.29652 13.1645 4.32866 12.331 6.34521C11.6789 7.92289 11.3786 9.33479 11.2881 11.2494L11.2122 12.8553L10.2631 12.4467C8.40391 11.6459 6.46398 11.3012 3.81735 11.3012C0.997883 11.3012 0.877817 11.6142 2.42771 14.9237C3.8494 17.9596 6.06027 20.6784 8.82019 22.7846L9.78307 23.5194L10.1491 24.6107C10.3504 25.2109 10.4978 25.719 10.4768 25.7399C10.4559 25.7609 9.95848 25.6172 9.37159 25.4208C7.0526 24.6446 5.02282 24.2607 2.47911 24.1175L1.04017 24.0365L0.702032 24.3733C0.368829 24.7054 0.364884 24.727 0.438847 25.8489C0.746779 30.5173 3.16734 34.7528 6.95251 37.2467L7.90305 37.873L7.60276 38.1501C7.4377 38.3026 7.3026 38.5276 7.3026 38.6501C7.3026 39.2443 10.6632 57.1807 10.8854 57.7721C11.5425 59.5218 13.1332 60.8571 15.0439 61.2631C15.5031 61.3606 19.0735 61.4013 27.0629 61.4C39.0696 61.3981 39.275 61.3894 40.3763 60.8347C41.6122 60.2123 42.6868 59.0265 43.1753 57.7458C43.5539 56.7533 46.7984 38.8163 46.6671 38.4416C46.4771 37.8994 46.1277 37.8289 43.6237 37.8269C41.4578 37.8252 41.3053 37.8105 41.3901 37.6102C41.8531 36.5161 41.9144 34.6641 41.524 33.5644L41.341 33.0489L42.0421 32.8468C46.3565 31.6029 50.1766 27.5912 51.2946 23.1304C51.8046 21.095 51.7553 20.5506 51.0339 20.2529C50.6824 20.1079 50.3994 20.1814 47.0998 21.2757C45.1443 21.9242 43.5444 22.4399 43.5444 22.4218C43.5444 22.4038 43.8158 21.8145 44.1476 21.1122C45.2245 18.8328 46.0181 16.1615 46.4424 13.3888C46.712 11.6266 46.8356 7.50698 46.6334 7.02083C46.4607 6.60566 45.9106 6.3263 45.5129 6.45204C45.3652 6.4987 44.0576 7.24763 42.6069 8.11629C41.1564 8.98495 39.9695 9.64841 39.9695 9.59057C39.9695 9.53286 40.052 9.07901 40.1528 8.58218C40.4413 7.16033 40.6899 5.00637 40.7819 3.13141C40.8811 1.11031 40.762 0.684336 40.0617 0.555278C39.3951 0.432483 37.1195 1.47293 35.4176 2.67878C33.8461 3.79217 31.9638 5.92451 31.1469 7.51656C30.9848 7.83263 30.8017 8.12218 30.7401 8.16013C30.6784 8.19807 30.2883 7.76325 29.873 7.19385C29.4577 6.62457 28.5224 5.54667 27.7946 4.79872C26.6089 3.58022 26.4269 3.43901 26.0444 3.4406C25.6774 3.44208 25.5081 3.55873 24.8382 4.27119C24.1342 5.02 22.9435 6.50484 22.4647 7.23081C22.2825 7.50722 22.2719 7.4974 21.7956 6.61278C20.6197 4.42874 18.0591 0.750769 17.5897 0.571242C17.1468 0.402029 16.7901 0.522123 16.1312 1.06242ZM38.7975 3.84141C38.6375 5.6804 38.3507 7.6924 38.0517 9.07471C37.8817 9.86023 37.7107 10.6508 37.6715 10.8313C37.6229 11.0554 37.282 11.405 36.5968 11.933C36.0449 12.3584 35.1089 13.1708 34.5169 13.7385C33.8448 14.3827 33.4229 14.707 33.3941 14.6015C33.2817 14.1909 32.3409 11.4305 32.1343 10.9053L31.9061 10.3254L32.3321 9.43782C33.5641 6.87114 35.4229 4.84624 37.8329 3.44515C38.2961 3.17586 38.7202 2.95446 38.7751 2.95335C38.83 2.95212 38.8401 3.3517 38.7975 3.84141ZM18.7026 5.25442C19.1757 5.98002 19.906 7.23364 20.3254 8.0404L21.0878 9.50732L20.6515 10.3702C19.7181 12.2166 18.8436 14.9642 18.5139 17.0863L18.3688 18.0207L17.8602 17.8712C17.3933 17.7339 17.3426 17.6772 17.2421 17.1822C17.0763 16.3657 17.091 8.99023 17.2613 7.49458C17.5377 5.0674 17.7 3.93351 17.7712 3.93437C17.8103 3.93486 18.2295 4.52894 18.7026 5.25442ZM15.4929 5.83684C15.1811 8.28882 15.0195 12.693 15.155 15.0465C15.2249 16.2622 15.2684 17.2734 15.2515 17.2937C15.2346 17.3139 14.9401 17.2934 14.5972 17.2481L13.9737 17.1657L13.6401 15.7991C13.2369 14.1468 13.1052 11.6418 13.3382 10.0545C13.6014 8.26131 14.3089 6.38438 15.2202 5.06077C15.4211 4.76901 15.5999 4.54797 15.6173 4.56959C15.6348 4.5912 15.5788 5.16146 15.4929 5.83684ZM25.8477 8.12292C26.6973 12.5367 26.9131 15.0035 26.9855 21.1249L27.0471 26.3437L26.496 25.2385C25.3615 22.9639 23.6841 21.0518 21.6117 19.671C20.9873 19.255 20.4194 18.9146 20.3498 18.9146C20.0778 18.9146 20.6736 15.7967 21.3043 13.919C21.8418 12.3184 22.5074 10.8738 23.3396 9.50155C24.0336 8.35672 25.4193 6.46715 25.5034 6.55077C25.5317 6.57914 25.6868 7.28656 25.8477 8.12292ZM28.5497 8.66445C29.9055 10.514 31.1045 13.2448 31.5813 15.5697L31.8245 16.7559L31.0256 17.9515C30.5861 18.609 29.9506 19.6887 29.6135 20.3508L29.0005 21.5547L28.9982 20.1425C28.9953 18.3021 28.7923 14.9691 28.5605 12.959C28.381 11.4019 27.9549 8.59716 27.8109 8.02567C27.7713 7.86861 27.7689 7.74017 27.8055 7.74017C27.8421 7.74017 28.1769 8.15608 28.5497 8.66445ZM43.3564 10.8898C42.7085 12.4526 41.371 15.0862 40.4658 16.5814C38.6524 19.5773 36.6864 22.0655 34.0553 24.6949C32.1169 26.6321 29.2212 29.0722 29.1377 28.8389C28.982 28.4036 29.8542 24.7148 30.4906 23.1174C31.9691 19.406 34.8588 15.626 37.9765 13.3254C38.9723 12.5906 43.6911 9.68734 43.7669 9.76286C43.789 9.78484 43.6043 10.2919 43.3564 10.8898ZM7.63999 13.627C9.52124 14.0873 11.6159 15.1449 11.6186 15.6357C11.6193 15.7844 11.6976 16.1962 11.7923 16.5507L11.9646 17.1954H10.9416C9.41338 17.1954 9.35297 17.2664 9.27494 19.1562L9.21331 20.6484L8.00475 19.4438C6.57542 18.019 5.47128 16.5178 4.53331 14.7237C4.15807 14.0058 3.851 13.376 3.851 13.324C3.851 13.1531 6.60279 13.3733 7.63999 13.627ZM44.0965 15.1694C43.4622 17.9868 42.2486 20.971 40.8897 23.0545C40.0256 24.3795 37.9317 26.4887 36.6292 27.3461C35.8509 27.8584 35.5664 27.9756 34.9447 28.0404C34.2799 28.1096 33.8496 28.2241 33.0047 28.5566C32.8691 28.6099 33.2297 28.2218 33.806 27.6941C37.8995 23.946 41.2422 19.5963 43.6417 14.8952C44.0288 14.1366 44.3623 13.5647 44.3828 13.6245C44.4031 13.6843 44.2743 14.3795 44.0965 15.1694ZM16.6712 19.5659C18.9476 20.1629 20.6754 21.1548 22.3565 22.8293C24.6396 25.1037 25.835 27.7943 26.0043 31.0406C26.044 31.8005 26.0373 32.4221 25.9892 32.4221C25.581 32.4221 22.2506 30.5821 20.8008 29.5557C17.2518 27.0431 13.9297 23.2609 12.1134 19.665L11.8412 19.126L13.6707 19.1924C15.0661 19.243 15.778 19.3316 16.6712 19.5659ZM49.1635 23.4273C48.5205 25.309 47.5577 26.8146 46.1157 28.1936C44.7582 29.4918 43.3336 30.3574 41.5931 30.9414C40.5182 31.3022 40.4211 31.2811 39.9756 30.5896C39.5945 29.998 38.7756 29.1636 38.2985 28.8805C38.0697 28.7448 38.0755 28.7258 38.4267 28.462C39.3991 27.7312 40.4155 26.7943 41.1025 25.9956L41.8591 25.1157L45.5678 23.8668C47.6077 23.1799 49.3148 22.6134 49.3616 22.6081C49.4084 22.6028 49.3193 22.9714 49.1635 23.4273ZM14.068 26.0302C15.8157 28.1309 18.2333 30.2537 20.6159 31.78C22.0217 32.6806 22.0346 32.7033 20.9782 32.4127C19.8503 32.1027 18.0662 31.2736 17.0553 30.5897C14.8043 29.0671 12.8931 26.5658 12.0043 23.9794C11.614 22.8436 11.6729 22.8245 12.3875 23.8551C12.7434 24.3684 13.4997 25.3472 14.068 26.0302ZM6.87115 26.7144C8.17142 27.038 10.0501 27.712 11.3009 28.3039C12.2607 28.758 12.5049 28.9395 13.0318 29.5893C13.6564 30.3598 14.5645 31.1983 15.5618 31.9252L16.1165 32.3296L15.6234 32.2435C13.6262 31.8949 9.43113 30.0934 7.17933 28.6173C5.98458 27.8341 4.11147 26.4042 4.10247 26.2687C4.09606 26.1708 5.76947 26.4402 6.87115 26.7144ZM4.67014 29.2359C6.75047 30.7971 8.85163 31.9606 11.3706 32.9462C14.025 33.9846 17.1167 34.6929 19.5658 34.8236C20.2451 34.8597 21.0432 34.9189 21.3394 34.9548L21.8781 35.0202L21.466 35.4437C20.9168 36.0082 19.7242 36.7717 18.8206 37.1375C15.5283 38.4701 11.0134 37.7757 7.73405 35.4323C6.87731 34.8201 5.17493 33.1024 4.62896 32.2993C3.83436 31.1304 2.74156 28.6244 2.74156 27.971C2.74156 27.7612 2.7815 27.7706 3.14219 28.0639C3.36247 28.2432 4.05008 28.7705 4.67014 29.2359ZM34.6411 30.9178C34.3668 33.0068 33.7798 35.3208 32.9857 37.4433C32.2193 39.4918 30.3505 43.0444 30.0462 43.0314C29.8084 43.021 28.6687 41.1574 28.391 40.3243C27.5791 37.8902 28.1712 35.1625 29.9141 33.3063C30.6578 32.5143 33.2186 30.5929 33.9552 30.274C34.7173 29.9443 34.7633 29.9875 34.6411 30.9178ZM37.4017 30.6377C37.9031 30.9771 38.6494 32.043 39.3096 33.3628C39.8936 34.53 39.9828 35.4912 39.6182 36.687C39.2791 37.7994 38.9275 38.1874 35.7167 40.9948C33.3307 43.081 32.4374 43.7476 32.262 43.573C32.2248 43.5358 32.5296 42.9048 32.9395 42.1704C34.6602 39.0883 35.9769 35.2273 36.4839 31.7774C36.6005 30.9839 36.754 30.3345 36.8249 30.3345C36.8958 30.3345 37.1554 30.471 37.4017 30.6377ZM28.309 32.1151C28.0663 32.4841 28.0122 32.4968 28.0122 32.1854C28.0122 32.0554 28.1093 31.9236 28.2279 31.8927C28.3465 31.8619 28.4588 31.8302 28.4773 31.8223C28.4958 31.8145 28.4201 31.9462 28.309 32.1151ZM26.4103 35.6455C26.2933 36.0676 26.1581 36.7306 26.1099 37.119L26.0221 37.8251H23.8491C22.654 37.8251 21.7288 37.781 21.7932 37.7272C21.8575 37.6733 22.235 37.3603 22.6318 37.0314C23.0287 36.7026 23.635 36.0836 23.9791 35.6558L24.6048 34.878H25.6139H26.623L26.4103 35.6455ZM26.3802 40.428C26.6891 41.7233 27.7408 43.5534 28.709 44.4803C28.9699 44.73 29.5161 45.0881 29.9229 45.2758C30.5532 45.5667 30.8175 45.6166 31.7103 45.6123C33.2973 45.6045 33.6114 45.4163 37.0948 42.3842L40.0754 39.7898H42.303C44.0202 39.7898 44.5306 39.8255 44.5306 39.9456C44.5306 40.0312 43.8425 43.8689 43.0014 48.4738C41.8529 54.7618 41.4012 56.9877 41.1872 57.4146C40.8614 58.0644 40.2194 58.6855 39.4512 59.0941L38.9217 59.3757H27.026H15.1303L14.4702 59.0115C13.639 58.5528 12.9177 57.7443 12.6775 57.0022C12.5125 56.4922 9.52148 40.3253 9.52148 39.9433C9.52148 39.822 11.2748 39.7898 17.8747 39.7898H26.2281L26.3802 40.428Z"/>
</mask>
<path fill-rule="evenodd" clip-rule="evenodd" d="M16.1312 1.06242C14.6263 2.29652 13.1645 4.32866 12.331 6.34521C11.6789 7.92289 11.3786 9.33479 11.2881 11.2494L11.2122 12.8553L10.2631 12.4467C8.40391 11.6459 6.46398 11.3012 3.81735 11.3012C0.997883 11.3012 0.877817 11.6142 2.42771 14.9237C3.8494 17.9596 6.06027 20.6784 8.82019 22.7846L9.78307 23.5194L10.1491 24.6107C10.3504 25.2109 10.4978 25.719 10.4768 25.7399C10.4559 25.7609 9.95848 25.6172 9.37159 25.4208C7.0526 24.6446 5.02282 24.2607 2.47911 24.1175L1.04017 24.0365L0.702032 24.3733C0.368829 24.7054 0.364884 24.727 0.438847 25.8489C0.746779 30.5173 3.16734 34.7528 6.95251 37.2467L7.90305 37.873L7.60276 38.1501C7.4377 38.3026 7.3026 38.5276 7.3026 38.6501C7.3026 39.2443 10.6632 57.1807 10.8854 57.7721C11.5425 59.5218 13.1332 60.8571 15.0439 61.2631C15.5031 61.3606 19.0735 61.4013 27.0629 61.4C39.0696 61.3981 39.275 61.3894 40.3763 60.8347C41.6122 60.2123 42.6868 59.0265 43.1753 57.7458C43.5539 56.7533 46.7984 38.8163 46.6671 38.4416C46.4771 37.8994 46.1277 37.8289 43.6237 37.8269C41.4578 37.8252 41.3053 37.8105 41.3901 37.6102C41.8531 36.5161 41.9144 34.6641 41.524 33.5644L41.341 33.0489L42.0421 32.8468C46.3565 31.6029 50.1766 27.5912 51.2946 23.1304C51.8046 21.095 51.7553 20.5506 51.0339 20.2529C50.6824 20.1079 50.3994 20.1814 47.0998 21.2757C45.1443 21.9242 43.5444 22.4399 43.5444 22.4218C43.5444 22.4038 43.8158 21.8145 44.1476 21.1122C45.2245 18.8328 46.0181 16.1615 46.4424 13.3888C46.712 11.6266 46.8356 7.50698 46.6334 7.02083C46.4607 6.60566 45.9106 6.3263 45.5129 6.45204C45.3652 6.4987 44.0576 7.24763 42.6069 8.11629C41.1564 8.98495 39.9695 9.64841 39.9695 9.59057C39.9695 9.53286 40.052 9.07901 40.1528 8.58218C40.4413 7.16033 40.6899 5.00637 40.7819 3.13141C40.8811 1.11031 40.762 0.684336 40.0617 0.555278C39.3951 0.432483 37.1195 1.47293 35.4176 2.67878C33.8461 3.79217 31.9638 5.92451 31.1469 7.51656C30.9848 7.83263 30.8017 8.12218 30.7401 8.16013C30.6784 8.19807 30.2883 7.76325 29.873 7.19385C29.4577 6.62457 28.5224 5.54667 27.7946 4.79872C26.6089 3.58022 26.4269 3.43901 26.0444 3.4406C25.6774 3.44208 25.5081 3.55873 24.8382 4.27119C24.1342 5.02 22.9435 6.50484 22.4647 7.23081C22.2825 7.50722 22.2719 7.4974 21.7956 6.61278C20.6197 4.42874 18.0591 0.750769 17.5897 0.571242C17.1468 0.402029 16.7901 0.522123 16.1312 1.06242ZM38.7975 3.84141C38.6375 5.6804 38.3507 7.6924 38.0517 9.07471C37.8817 9.86023 37.7107 10.6508 37.6715 10.8313C37.6229 11.0554 37.282 11.405 36.5968 11.933C36.0449 12.3584 35.1089 13.1708 34.5169 13.7385C33.8448 14.3827 33.4229 14.707 33.3941 14.6015C33.2817 14.1909 32.3409 11.4305 32.1343 10.9053L31.9061 10.3254L32.3321 9.43782C33.5641 6.87114 35.4229 4.84624 37.8329 3.44515C38.2961 3.17586 38.7202 2.95446 38.7751 2.95335C38.83 2.95212 38.8401 3.3517 38.7975 3.84141ZM18.7026 5.25442C19.1757 5.98002 19.906 7.23364 20.3254 8.0404L21.0878 9.50732L20.6515 10.3702C19.7181 12.2166 18.8436 14.9642 18.5139 17.0863L18.3688 18.0207L17.8602 17.8712C17.3933 17.7339 17.3426 17.6772 17.2421 17.1822C17.0763 16.3657 17.091 8.99023 17.2613 7.49458C17.5377 5.0674 17.7 3.93351 17.7712 3.93437C17.8103 3.93486 18.2295 4.52894 18.7026 5.25442ZM15.4929 5.83684C15.1811 8.28882 15.0195 12.693 15.155 15.0465C15.2249 16.2622 15.2684 17.2734 15.2515 17.2937C15.2346 17.3139 14.9401 17.2934 14.5972 17.2481L13.9737 17.1657L13.6401 15.7991C13.2369 14.1468 13.1052 11.6418 13.3382 10.0545C13.6014 8.26131 14.3089 6.38438 15.2202 5.06077C15.4211 4.76901 15.5999 4.54797 15.6173 4.56959C15.6348 4.5912 15.5788 5.16146 15.4929 5.83684ZM25.8477 8.12292C26.6973 12.5367 26.9131 15.0035 26.9855 21.1249L27.0471 26.3437L26.496 25.2385C25.3615 22.9639 23.6841 21.0518 21.6117 19.671C20.9873 19.255 20.4194 18.9146 20.3498 18.9146C20.0778 18.9146 20.6736 15.7967 21.3043 13.919C21.8418 12.3184 22.5074 10.8738 23.3396 9.50155C24.0336 8.35672 25.4193 6.46715 25.5034 6.55077C25.5317 6.57914 25.6868 7.28656 25.8477 8.12292ZM28.5497 8.66445C29.9055 10.514 31.1045 13.2448 31.5813 15.5697L31.8245 16.7559L31.0256 17.9515C30.5861 18.609 29.9506 19.6887 29.6135 20.3508L29.0005 21.5547L28.9982 20.1425C28.9953 18.3021 28.7923 14.9691 28.5605 12.959C28.381 11.4019 27.9549 8.59716 27.8109 8.02567C27.7713 7.86861 27.7689 7.74017 27.8055 7.74017C27.8421 7.74017 28.1769 8.15608 28.5497 8.66445ZM43.3564 10.8898C42.7085 12.4526 41.371 15.0862 40.4658 16.5814C38.6524 19.5773 36.6864 22.0655 34.0553 24.6949C32.1169 26.6321 29.2212 29.0722 29.1377 28.8389C28.982 28.4036 29.8542 24.7148 30.4906 23.1174C31.9691 19.406 34.8588 15.626 37.9765 13.3254C38.9723 12.5906 43.6911 9.68734 43.7669 9.76286C43.789 9.78484 43.6043 10.2919 43.3564 10.8898ZM7.63999 13.627C9.52124 14.0873 11.6159 15.1449 11.6186 15.6357C11.6193 15.7844 11.6976 16.1962 11.7923 16.5507L11.9646 17.1954H10.9416C9.41338 17.1954 9.35297 17.2664 9.27494 19.1562L9.21331 20.6484L8.00475 19.4438C6.57542 18.019 5.47128 16.5178 4.53331 14.7237C4.15807 14.0058 3.851 13.376 3.851 13.324C3.851 13.1531 6.60279 13.3733 7.63999 13.627ZM44.0965 15.1694C43.4622 17.9868 42.2486 20.971 40.8897 23.0545C40.0256 24.3795 37.9317 26.4887 36.6292 27.3461C35.8509 27.8584 35.5664 27.9756 34.9447 28.0404C34.2799 28.1096 33.8496 28.2241 33.0047 28.5566C32.8691 28.6099 33.2297 28.2218 33.806 27.6941C37.8995 23.946 41.2422 19.5963 43.6417 14.8952C44.0288 14.1366 44.3623 13.5647 44.3828 13.6245C44.4031 13.6843 44.2743 14.3795 44.0965 15.1694ZM16.6712 19.5659C18.9476 20.1629 20.6754 21.1548 22.3565 22.8293C24.6396 25.1037 25.835 27.7943 26.0043 31.0406C26.044 31.8005 26.0373 32.4221 25.9892 32.4221C25.581 32.4221 22.2506 30.5821 20.8008 29.5557C17.2518 27.0431 13.9297 23.2609 12.1134 19.665L11.8412 19.126L13.6707 19.1924C15.0661 19.243 15.778 19.3316 16.6712 19.5659ZM49.1635 23.4273C48.5205 25.309 47.5577 26.8146 46.1157 28.1936C44.7582 29.4918 43.3336 30.3574 41.5931 30.9414C40.5182 31.3022 40.4211 31.2811 39.9756 30.5896C39.5945 29.998 38.7756 29.1636 38.2985 28.8805C38.0697 28.7448 38.0755 28.7258 38.4267 28.462C39.3991 27.7312 40.4155 26.7943 41.1025 25.9956L41.8591 25.1157L45.5678 23.8668C47.6077 23.1799 49.3148 22.6134 49.3616 22.6081C49.4084 22.6028 49.3193 22.9714 49.1635 23.4273ZM14.068 26.0302C15.8157 28.1309 18.2333 30.2537 20.6159 31.78C22.0217 32.6806 22.0346 32.7033 20.9782 32.4127C19.8503 32.1027 18.0662 31.2736 17.0553 30.5897C14.8043 29.0671 12.8931 26.5658 12.0043 23.9794C11.614 22.8436 11.6729 22.8245 12.3875 23.8551C12.7434 24.3684 13.4997 25.3472 14.068 26.0302ZM6.87115 26.7144C8.17142 27.038 10.0501 27.712 11.3009 28.3039C12.2607 28.758 12.5049 28.9395 13.0318 29.5893C13.6564 30.3598 14.5645 31.1983 15.5618 31.9252L16.1165 32.3296L15.6234 32.2435C13.6262 31.8949 9.43113 30.0934 7.17933 28.6173C5.98458 27.8341 4.11147 26.4042 4.10247 26.2687C4.09606 26.1708 5.76947 26.4402 6.87115 26.7144ZM4.67014 29.2359C6.75047 30.7971 8.85163 31.9606 11.3706 32.9462C14.025 33.9846 17.1167 34.6929 19.5658 34.8236C20.2451 34.8597 21.0432 34.9189 21.3394 34.9548L21.8781 35.0202L21.466 35.4437C20.9168 36.0082 19.7242 36.7717 18.8206 37.1375C15.5283 38.4701 11.0134 37.7757 7.73405 35.4323C6.87731 34.8201 5.17493 33.1024 4.62896 32.2993C3.83436 31.1304 2.74156 28.6244 2.74156 27.971C2.74156 27.7612 2.7815 27.7706 3.14219 28.0639C3.36247 28.2432 4.05008 28.7705 4.67014 29.2359ZM34.6411 30.9178C34.3668 33.0068 33.7798 35.3208 32.9857 37.4433C32.2193 39.4918 30.3505 43.0444 30.0462 43.0314C29.8084 43.021 28.6687 41.1574 28.391 40.3243C27.5791 37.8902 28.1712 35.1625 29.9141 33.3063C30.6578 32.5143 33.2186 30.5929 33.9552 30.274C34.7173 29.9443 34.7633 29.9875 34.6411 30.9178ZM37.4017 30.6377C37.9031 30.9771 38.6494 32.043 39.3096 33.3628C39.8936 34.53 39.9828 35.4912 39.6182 36.687C39.2791 37.7994 38.9275 38.1874 35.7167 40.9948C33.3307 43.081 32.4374 43.7476 32.262 43.573C32.2248 43.5358 32.5296 42.9048 32.9395 42.1704C34.6602 39.0883 35.9769 35.2273 36.4839 31.7774C36.6005 30.9839 36.754 30.3345 36.8249 30.3345C36.8958 30.3345 37.1554 30.471 37.4017 30.6377ZM28.309 32.1151C28.0663 32.4841 28.0122 32.4968 28.0122 32.1854C28.0122 32.0554 28.1093 31.9236 28.2279 31.8927C28.3465 31.8619 28.4588 31.8302 28.4773 31.8223C28.4958 31.8145 28.4201 31.9462 28.309 32.1151ZM26.4103 35.6455C26.2933 36.0676 26.1581 36.7306 26.1099 37.119L26.0221 37.8251H23.8491C22.654 37.8251 21.7288 37.781 21.7932 37.7272C21.8575 37.6733 22.235 37.3603 22.6318 37.0314C23.0287 36.7026 23.635 36.0836 23.9791 35.6558L24.6048 34.878H25.6139H26.623L26.4103 35.6455ZM26.3802 40.428C26.6891 41.7233 27.7408 43.5534 28.709 44.4803C28.9699 44.73 29.5161 45.0881 29.9229 45.2758C30.5532 45.5667 30.8175 45.6166 31.7103 45.6123C33.2973 45.6045 33.6114 45.4163 37.0948 42.3842L40.0754 39.7898H42.303C44.0202 39.7898 44.5306 39.8255 44.5306 39.9456C44.5306 40.0312 43.8425 43.8689 43.0014 48.4738C41.8529 54.7618 41.4012 56.9877 41.1872 57.4146C40.8614 58.0644 40.2194 58.6855 39.4512 59.0941L38.9217 59.3757H27.026H15.1303L14.4702 59.0115C13.639 58.5528 12.9177 57.7443 12.6775 57.0022C12.5125 56.4922 9.52148 40.3253 9.52148 39.9433C9.52148 39.822 11.2748 39.7898 17.8747 39.7898H26.2281L26.3802 40.428Z" stroke="#96C33D" stroke-width="14" mask="url(#path-1-inside-1_33_1040)"/>
</svg>
