<svg width="22" height="22" viewBox="0 0 22 22" fill="none" xmlns="http://www.w3.org/2000/svg">
<path fill-rule="evenodd" clip-rule="evenodd" d="M10.9998 0.916664C5.43109 0.916664 0.916504 5.43125 0.916504 11C0.916504 16.5687 5.43109 21.0833 10.9998 21.0833C16.5686 21.0833 21.0832 16.5687 21.0832 11C21.0832 5.43125 16.5686 0.916664 10.9998 0.916664ZM15.3705 9.295C15.451 9.203 15.5123 9.09584 15.5507 8.97982C15.5892 8.86379 15.604 8.74125 15.5944 8.6194C15.5848 8.49755 15.5509 8.37885 15.4948 8.27028C15.4386 8.16172 15.3613 8.06548 15.2674 7.98723C15.1735 7.90898 15.0649 7.8503 14.948 7.81464C14.8311 7.77898 14.7082 7.76706 14.5866 7.77959C14.4651 7.79212 14.3472 7.82883 14.24 7.88758C14.1328 7.94632 14.0385 8.02591 13.9625 8.12166L10.0208 12.8507L7.98125 10.8102C7.80837 10.6433 7.57682 10.5509 7.33647 10.553C7.09612 10.5551 6.86621 10.6515 6.69625 10.8214C6.5263 10.9914 6.42989 11.2213 6.4278 11.4616C6.42571 11.702 6.51811 11.9335 6.68509 12.1064L9.43509 14.8564C9.52516 14.9464 9.63299 15.0167 9.75172 15.0627C9.87045 15.1087 9.99746 15.1295 10.1247 15.1238C10.2519 15.118 10.3765 15.0858 10.4905 15.0292C10.6046 14.9726 10.7056 14.8928 10.7872 14.795L15.3705 9.295Z" fill="#96C33D"/>
</svg>
