<svg width="51" height="61" viewBox="0 0 51 61" fill="none" xmlns="http://www.w3.org/2000/svg">
<path fill-rule="evenodd" clip-rule="evenodd" d="M22.9979 0.754146C17.1131 1.48692 11.8168 4.73462 8.2934 9.77105C7.44483 10.984 6.11415 13.6428 5.6222 15.1081C5.15964 16.4855 4.7313 18.5347 4.58554 20.0664C4.50569 20.9054 4.46381 27.3017 4.46381 38.655V55.9645L3.29113 55.967C1.95553 55.97 1.3931 56.1571 0.893706 56.7644C-0.0335726 57.8923 0.3013 59.5608 1.59503 60.2598L2.10128 60.5333L25.6395 60.5029L49.1777 60.4726L49.6636 60.1213C50.9563 59.1866 50.9566 57.3096 49.6641 56.3743C49.2042 56.0414 49.1101 56.0209 47.8723 55.9837L46.566 55.9443V45.666C46.566 35.4449 46.5647 35.3859 46.3289 35.0791C46.0317 34.6924 45.4194 34.656 45.0787 35.0047C44.8631 35.2254 44.8499 35.395 44.8499 37.9446C44.8499 40.4772 44.8371 40.6445 44.6497 40.5613C43.7858 40.1774 43.2174 40.0469 42.3901 40.0421L41.4749 40.0368L41.2163 39.6284C41.0742 39.4037 40.7487 39.0648 40.493 38.8754C38.6334 37.4966 35.9786 38.214 35.0582 40.3441C34.9078 40.6918 34.7352 40.9765 34.6743 40.9765C34.6136 40.9765 34.4604 40.737 34.334 40.4444C34.2074 40.1518 34.0039 39.7685 33.8817 39.5929C33.6768 39.2984 33.6728 39.2417 33.8292 38.8662C33.9226 38.6422 34.2714 37.7186 34.6045 36.8137C34.9376 35.9088 35.3005 34.9867 35.4108 34.7646C36.2379 33.099 38.6548 31.6123 41.8959 30.7752C43.3583 30.3974 43.6414 30.238 43.7642 29.7227C43.8905 29.1924 43.4506 28.8271 42.5045 28.6771C40.5971 28.3745 36.5917 28.6019 34.8557 29.1114C34.6939 29.1588 34.7527 29.0105 35.1027 28.4886C35.7749 27.4857 36.6863 26.6289 37.4447 26.2869C38.1745 25.9577 38.4013 25.6138 38.2165 25.1164C38.0045 24.5459 37.6456 24.4313 36.0629 24.4289C33.4613 24.4252 30.845 25.1857 28.5473 26.6139L27.8614 27.0402L27.597 26.2509C27.0946 24.7514 26.5589 22.4032 26.4278 21.1244C26.2804 19.6882 26.1245 19.3923 25.5149 19.3923C24.8963 19.3923 24.7141 19.7129 24.5939 21.0122C24.4791 22.2552 24.1107 23.9548 23.5534 25.8129C23.3603 26.4569 23.1893 26.9982 23.1736 27.0159C23.1578 27.0336 22.8024 26.8351 22.3838 26.5748C20.1435 25.1819 17.5686 24.4294 15.033 24.4266C13.4764 24.425 13.0178 24.5522 12.8203 25.0403C12.6057 25.5705 12.8272 25.945 13.5483 26.2713C13.8914 26.4266 14.416 26.7822 14.7139 27.0614C15.2419 27.5563 16.2479 28.8496 16.2479 29.0335C16.2479 29.084 16.0549 29.0797 15.8188 29.0237C13.9306 28.576 10.3439 28.4022 8.5253 28.67C7.88805 28.7639 7.67182 28.8502 7.46703 29.0927C6.84453 29.8293 7.29004 30.3117 8.98294 30.7341C11.8508 31.4496 14.2489 32.7626 15.2228 34.1505C15.4415 34.4623 15.9716 35.658 16.4306 36.8753L17.2485 39.0444L16.4335 39.1184C15.9853 39.1592 15.4082 39.28 15.1511 39.3869L14.6837 39.5814L14.1171 39.1912C13.2144 38.5694 12.1506 38.2596 10.6969 38.1949C9.18292 38.1276 8.36834 38.3021 7.0666 38.9724L6.17994 39.4291L6.18085 30.2792C6.18142 24.9375 6.22959 20.6905 6.29675 20.0753C6.80175 15.4429 8.61386 11.552 11.7818 8.29755C13.8086 6.21539 15.3985 5.07478 17.7506 4.0152C20.3211 2.85738 22.4937 2.40517 25.5149 2.39908C27.8394 2.39428 29.0079 2.55739 31.0248 3.16791C37.6894 5.18543 42.9042 10.9474 44.3757 17.9198C44.7705 19.7907 44.8499 21.2604 44.8499 26.6949V31.9433L45.1514 32.1859C45.5272 32.4885 45.8889 32.4948 46.2387 32.2049L46.5088 31.9811L46.5444 26.965C46.5967 19.5867 46.3789 17.7148 45.0655 14.2551C43.4613 10.0297 40.3864 6.24911 36.591 3.83628C32.5481 1.26596 27.7057 0.167976 22.9979 0.754146ZM25.63 25.5494C25.6305 25.63 26.0159 26.9482 26.4866 28.4789C27.8781 33.0038 28.2635 34.8113 28.2771 36.8782C28.286 38.2349 28.1536 38.9133 27.7355 39.6525L27.4578 40.1435L26.8205 39.9191C26.0231 39.6383 24.384 39.4091 23.7207 39.4856C23.2594 39.5388 23.2049 39.5166 23.0506 39.2111C22.7505 38.6171 22.6252 37.1913 22.761 35.9139C22.9928 33.7334 23.3019 32.4777 24.8944 27.2473C25.3891 25.6226 25.6277 25.0718 25.63 25.5494ZM17.5636 26.4626C18.8957 26.7322 20.7662 27.5437 22.0375 28.4038L22.6215 28.799L22.2804 29.9991C22.0927 30.6591 21.9005 31.2427 21.8534 31.2961C21.8062 31.3494 21.4745 31.2238 21.1165 31.017C20.7584 30.8102 20.0803 30.4696 19.6094 30.2601L18.7533 29.8792L18.1343 28.8071C17.7939 28.2175 17.2817 27.4204 16.996 27.0361C16.4197 26.2605 16.3866 26.1807 16.6769 26.2653C16.7871 26.2974 17.186 26.3862 17.5636 26.4626ZM34.5532 26.2735C34.5532 26.3015 34.2725 26.7062 33.9294 27.1729C33.5863 27.6396 33.0653 28.4599 32.7715 28.9956C32.4777 29.5314 32.1747 29.9697 32.0982 29.9697C32.0217 29.9697 31.3299 30.2916 30.561 30.685C29.792 31.0785 29.1494 31.3815 29.133 31.3583C29.1166 31.3352 28.9438 30.763 28.7492 30.0868L28.3953 28.8573L28.6915 28.6022C29.5154 27.8925 32.1085 26.7405 33.6379 26.4047C34.5111 26.2129 34.5532 26.2069 34.5532 26.2735ZM15.1293 30.6775C17.3284 31.1363 20.1306 32.2481 21.0898 33.0426L21.4127 33.3099L21.2238 34.4208C20.9717 35.9033 20.9695 38.1153 21.219 39.0898C21.3244 39.5011 21.3688 39.8735 21.3176 39.9171C21.2665 39.9609 21.0045 40.094 20.7355 40.2129L20.2464 40.4292L19.8968 40.0881C19.3714 39.5756 18.8587 38.5405 18.1324 36.5269C17.7725 35.5287 17.2938 34.3488 17.0689 33.9047C16.549 32.8786 15.5019 31.7997 14.2779 31.0288C13.1787 30.3364 13.2846 30.2929 15.1293 30.6775ZM36.7299 31.0426C35.4875 31.8252 34.494 32.8491 33.9649 33.8923C33.7363 34.3431 33.2575 35.5025 32.9009 36.4687L32.2527 38.2255L31.1151 38.2251L29.9774 38.2248L29.9771 36.9507C29.977 36.25 29.8944 35.1455 29.7934 34.4962L29.6101 33.3158L29.9365 33.0454C30.4591 32.6126 32.4562 31.6605 33.657 31.2717C34.9104 30.8658 36.7044 30.4588 37.2942 30.4464C37.6685 30.4385 37.6382 30.4706 36.7299 31.0426ZM12.6096 40.3573L13.3674 40.7203L13.0992 41.2624C12.688 42.0938 12.6319 42.8906 12.9253 43.7313C13.0596 44.116 13.1989 44.523 13.2348 44.6359C13.2856 44.7955 13.164 44.904 12.686 45.1257C10.987 45.9133 8.83901 45.75 7.37951 44.7222C5.39727 43.3264 6.03967 41.0308 8.66031 40.1459C9.19208 39.9663 9.58049 39.9284 10.5889 39.9577C11.7206 39.9906 11.9303 40.032 12.6096 40.3573ZM31.8861 40.1166C32.23 40.2836 32.9555 41.1567 32.8251 41.2467C32.8002 41.264 32.4709 41.4042 32.0934 41.5584C31.7158 41.7128 31.1589 41.994 30.8558 42.1837L30.3047 42.5284L30.1145 42.2501C30.0098 42.0971 29.7579 41.7833 29.5547 41.5529L29.1851 41.1341L29.4582 40.7227C29.9597 39.9675 31.0293 39.7005 31.8861 40.1166ZM39.1876 40.1066C39.396 40.2078 39.6549 40.3905 39.763 40.5129C39.9513 40.7259 39.9377 40.7582 39.4426 41.272L38.9256 41.8088L37.7795 41.4165L36.6333 41.0241L36.8142 40.7191C37.2347 40.0099 38.3799 39.7143 39.1876 40.1066ZM17.8205 41.0395C18.0521 41.1385 18.33 41.3015 18.4381 41.4015C18.6218 41.5718 18.6026 41.6312 18.1387 42.3247C17.8659 42.7324 17.6081 43.2281 17.5655 43.4263C17.5003 43.7303 17.4348 43.7867 17.148 43.7867C16.961 43.7867 16.446 43.8709 16.0038 43.974C15.207 44.1594 15.1972 44.1587 14.9262 43.8981C14.0775 43.0821 14.4019 41.7079 15.5847 41.1086C16.1788 40.8076 17.2042 40.776 17.8205 41.0395ZM26.209 41.5549C27.3808 41.9256 28.4822 42.7593 28.9128 43.6018C29.0723 43.9139 29.0699 43.9748 28.8854 44.2946C28.7741 44.4874 28.6227 44.8543 28.549 45.1098C28.4189 45.5606 28.3895 45.5819 27.5612 45.8264C26.268 46.2082 25.5352 46.8138 24.9526 47.9827C24.7071 48.475 24.6948 48.4823 24.1661 48.4474L23.6289 48.4119L23.5514 47.8536C23.3209 46.1924 21.8194 44.684 19.7794 44.064C19.2531 43.9041 19.2276 43.8784 19.354 43.6354C19.9488 42.4918 21.2834 41.6388 22.9708 41.3239C23.7692 41.1748 25.3682 41.289 26.209 41.5549ZM43.6728 42.0423C44.9801 42.69 45.1993 44.0816 44.1402 45.0093C43.3886 45.6678 41.9739 45.8646 41.799 45.3347C41.5697 44.6405 41.1588 43.8705 40.8016 43.4658C40.5741 43.2081 40.388 42.9476 40.388 42.887C40.388 42.7023 40.993 42.1711 41.4177 41.9828C42.0138 41.7185 43.0759 41.7465 43.6728 42.0423ZM36.7691 42.9095C38.2534 43.3051 39.4959 44.2359 39.9727 45.3089C40.3171 46.0842 40.2894 47.0757 39.9018 47.8409C38.9026 49.8138 35.8698 50.8327 33.3233 50.0509L32.7226 49.8666L32.7215 49.1977C32.7194 47.9514 31.8831 46.6958 30.6581 46.0999L30.0996 45.8283L30.3641 45.2467C30.8314 44.2192 31.926 43.3792 33.3519 42.9542C34.2218 42.6948 35.8826 42.6732 36.7691 42.9095ZM19.7124 45.8853C21.0738 46.4265 21.8485 47.3327 21.852 48.3885C21.8542 49.0596 21.6781 49.436 21.091 50.0159C18.9036 52.1759 14.0191 51.304 13.5533 48.6704C13.3387 47.457 14.5879 46.1165 16.3602 45.6584C17.0995 45.4671 18.9808 45.5945 19.7124 45.8853ZM7.93324 46.9513C8.95697 47.3191 10.2374 47.4687 11.167 47.3293C11.6019 47.2641 11.9675 47.219 11.9797 47.229C11.9919 47.2391 11.9498 47.483 11.886 47.7711C11.5205 49.4239 12.6525 51.3349 14.5377 52.2477C15.7189 52.8197 16.4528 52.9785 17.8496 52.9643C19.8839 52.9438 21.3228 52.3178 22.6281 50.8852L23.284 50.1653L24.0364 50.2052C24.7866 50.2449 24.7895 50.2464 24.9399 50.6723C25.023 50.9073 25.3797 51.3952 25.7328 51.7566C26.5977 52.6418 27.3896 52.9614 28.7184 52.9614C29.9014 52.9614 30.7362 52.6662 31.5009 51.9773L32.0187 51.5107L32.9142 51.7689C34.0687 52.1018 36.0709 52.1247 37.1846 51.8179C39.3785 51.2134 41.1567 49.7007 41.6861 47.9884L41.8809 47.3581L42.6651 47.3392C43.1993 47.3264 43.6724 47.2281 44.1496 47.0308L44.8499 46.7412V51.3528V55.9645H25.5149H6.17994V50.9928V46.0212L6.72338 46.3665C7.02221 46.5565 7.56668 46.8196 7.93324 46.9513ZM29.9448 47.715C31.6799 48.5999 31.3041 50.7257 29.3327 51.1773C28.4787 51.3729 27.6468 51.1743 27.0197 50.6249C25.6221 49.4005 26.6725 47.4166 28.7184 47.4166C29.1766 47.4166 29.5271 47.5019 29.9448 47.715ZM48.8502 57.9473C49.0111 58.255 48.9996 58.3749 48.7889 58.5908C48.6265 58.7568 46.3531 58.7747 25.4725 58.7747C7.62983 58.7747 2.30436 58.7425 2.19853 58.6342C2.022 58.4535 2.022 58.0421 2.19853 57.8614C2.30436 57.7531 7.64345 57.7209 25.5338 57.7209C48.3518 57.7209 48.7337 57.7246 48.8502 57.9473Z" fill="#96C33D"/>
</svg>
