<svg width="62" height="64" viewBox="0 0 62 64" fill="none" xmlns="http://www.w3.org/2000/svg">
<g clip-path="url(#clip0_33_1043)">
<path d="M28.3159 48.6105C28.0957 48.3903 27.7653 48.2802 27.6552 48.2802C27.435 48.2802 27.1046 48.3903 26.8844 48.6105C26.6641 48.8308 26.554 49.1611 26.554 49.4915C26.554 50.923 25.6731 58.9615 25.2326 61.7144C25.0124 62.8155 25.0124 63.3661 25.563 63.6964C25.7832 63.8066 25.8933 63.8066 26.1136 63.8066C26.6641 63.8066 27.1046 63.3661 27.2147 62.8155C27.6552 60.0626 28.0957 56.4288 28.426 52.4646C28.7563 49.051 28.7563 49.051 28.3159 48.6105ZM35.3633 60.1727L35.2532 59.6221C35.033 58.1906 34.7026 56.3187 34.5925 55.5479C34.4824 54.777 34.3723 54.1163 34.3723 54.0062C34.2621 53.5658 33.8217 53.2354 33.3812 53.2354C33.161 53.2354 32.8306 53.3455 32.7205 53.4557C32.5003 53.6759 32.3902 53.8961 32.3902 54.2265C32.3902 54.8872 33.7116 62.8155 33.9318 63.256C34.0419 63.5863 34.4824 63.9167 34.8127 63.9167C35.033 63.9167 35.3633 63.8066 35.5835 63.5863C35.9139 63.256 35.9139 63.256 35.3633 60.1727ZM34.5925 48.7207C34.3723 48.5004 34.0419 48.3903 33.7116 48.3903C33.7116 48.1701 33.7116 47.6195 33.6014 46.6285V46.2981C33.3812 42.4441 33.3812 42.4441 33.0509 42.2238C32.8306 42.1137 32.6104 42.0036 32.3902 42.0036C32.1699 42.0036 31.8396 42.1137 31.6194 42.3339L31.289 42.6643L31.3991 44.0958C31.3991 44.4261 31.3991 44.9767 31.5092 45.5273C31.289 45.3071 31.1789 45.0868 30.7384 45.0868C30.6283 45.0868 30.4081 45.0868 30.1879 45.197C29.9676 45.197 29.8575 45.3071 29.7474 45.3071C29.7474 45.3071 29.6373 45.3071 29.5272 45.197L29.417 45.0868C29.417 45.0868 29.417 40.9024 29.417 40.6822C29.5272 41.2328 30.0777 41.5631 31.0688 41.5631C31.9497 41.5631 32.7205 41.2328 33.2711 40.5721C33.7116 40.0215 34.152 39.2507 34.2621 38.59C34.2621 38.2597 34.2621 37.9293 34.0419 37.7091C33.8217 37.4888 33.6014 37.3787 33.2711 37.3787L33.161 34.9562C33.0509 31.983 33.161 26.5874 33.2711 24.1648C33.3812 22.8434 33.3812 22.5131 33.161 22.2928C32.9408 21.8524 32.6104 21.8524 32.3902 21.8524C32.2801 21.8524 32.1699 21.8524 32.0598 21.9625L31.9497 21.6321C31.8396 21.3018 31.5092 20.8613 31.289 20.6411C30.9587 20.3108 30.6283 20.2006 30.298 20.2006C29.9676 20.2006 29.7474 20.3108 29.5272 20.531C29.1968 20.9715 29.1968 21.4119 29.5272 21.8524C30.298 22.8434 30.298 23.9446 29.5272 24.8255C29.1968 25.1559 28.6462 25.3761 28.0957 25.3761C27.6552 25.3761 27.3248 25.266 26.9945 25.1559C26.554 24.8255 26.2237 24.385 26.1136 23.8345C26.0035 23.5041 26.0035 23.394 26.1136 22.8434C26.2237 22.2928 26.3338 22.0726 26.1136 21.7423C26.0035 21.522 25.8933 21.4119 25.7832 21.3018C25.6731 21.3018 25.563 21.1917 25.4529 21.1917C25.3428 21.1917 25.3428 21.1917 25.2326 21.1917C25.2326 21.1917 25.2326 21.1917 25.1225 21.1917C25.0124 21.1917 24.7922 21.1917 24.6821 21.3018C24.4618 21.4119 24.3517 21.6321 24.2416 21.7423C24.1315 21.8524 24.1315 22.0726 24.1315 22.0726L24.0214 22.2928H23.691C23.0303 22.2928 22.7 22.2928 22.2595 22.6232C21.4887 22.9535 20.828 23.7243 20.6078 24.385V24.4952C20.4977 24.4952 20.3875 24.385 20.3875 24.2749C20.2774 24.0547 20.1673 23.9446 20.0572 23.8345C19.837 23.6142 19.6167 23.5041 19.2864 23.5041C19.0661 23.5041 18.7358 23.6142 18.5156 23.8345C18.5156 23.8345 18.5156 23.9446 18.4055 23.9446C18.2953 24.385 18.1852 24.6053 18.1852 24.8255C18.1852 25.266 18.4055 25.7064 18.956 26.0368C19.3965 26.4772 19.837 26.6975 20.3875 26.8076C20.6078 26.8076 20.6078 26.8076 20.7179 27.1379C20.9381 27.6885 21.7089 28.3492 22.2595 28.6796C22.7 28.8998 22.9202 28.8998 23.691 28.8998C24.5719 28.8998 24.6821 28.8998 25.2326 28.5695C25.8933 28.2391 26.3338 27.7986 26.554 27.2481V27.1379C26.6641 27.1379 26.6641 27.1379 26.7743 27.2481L27.1046 27.3582V28.129C27.1046 28.6796 27.2147 30.001 27.2147 30.992V32.6437C26.9945 32.6437 26.8844 32.864 26.6641 33.0842C26.554 33.3044 26.4439 33.7449 26.554 34.0752C26.7743 34.9562 27.435 35.727 28.0957 36.1674C27.9855 36.1674 27.8754 36.1675 27.7653 36.2776C27.6552 36.3877 27.435 36.4978 27.3248 36.718C27.3248 36.8281 27.2147 36.9383 27.2147 40.3519C27.2147 42.1137 27.2147 43.325 27.2147 43.4351C26.7743 43.6553 26.4439 43.9857 26.4439 44.5363C26.4439 45.4172 27.6552 46.9588 28.5361 47.2892C28.9766 47.3993 29.3069 47.5094 29.6373 47.5094C29.8575 47.5094 30.0777 47.5094 30.298 47.3993C30.8486 47.2892 31.1789 47.0689 31.3991 46.7386C31.5092 47.9499 31.6194 49.3814 31.6194 50.1522V50.7028C31.6194 50.7028 31.5092 50.7028 31.3991 50.7028C31.289 50.7028 31.0688 50.7028 30.9587 50.7028C30.7384 50.7028 30.6283 50.7028 30.5182 50.7028C30.1879 50.7028 30.0777 50.8129 29.8575 51.0331C29.5272 51.3635 29.5272 51.6938 29.7474 52.1343C29.9676 52.6848 30.7384 52.795 31.3991 52.795C32.0598 52.795 32.2801 52.795 32.7205 52.4646C33.7116 51.914 34.4824 50.8129 34.5925 49.8218C34.8127 49.2712 34.8127 48.9409 34.5925 48.7207ZM31.0688 30.3313C31.0688 32.0932 31.0688 33.6348 31.0688 34.5157C30.9587 34.5157 30.8486 34.4056 30.6283 34.4056C30.4081 34.4056 30.298 34.4056 30.0777 34.5157C29.8575 34.6258 29.7474 34.6258 29.6373 34.6258C29.5272 34.6258 29.5272 34.6258 29.417 34.5157C29.3069 34.2955 29.3069 32.9741 29.1968 30.3313V27.3582C29.7474 27.2481 30.6283 26.6975 31.0688 26.1469C31.1789 27.0278 31.1789 28.3492 31.0688 30.3313ZM29.417 40.1316C29.417 37.9293 29.417 37.0484 29.1968 36.718C29.3069 36.718 29.5272 36.718 29.6373 36.718C29.8575 36.718 30.0777 36.718 30.4081 36.6079C30.7384 36.4978 30.9587 36.4978 31.0688 36.3877C31.0688 36.718 31.1789 39.581 31.1789 39.581H31.0688C30.9587 39.581 30.8486 39.581 30.7384 39.581C30.6283 39.581 30.5182 39.581 30.4081 39.581C30.1879 39.581 30.0777 39.581 29.9676 39.6912C29.6373 39.6912 29.417 39.9114 29.417 40.1316ZM24.1315 26.8076C24.0214 26.9177 23.8011 26.9177 23.5809 26.9177C23.1404 26.9177 22.8101 26.6975 22.5899 26.3671C22.3696 26.0368 22.3696 25.5963 22.4797 25.266C22.7 24.8255 23.1404 24.4952 23.5809 24.4952C23.691 24.4952 23.9112 24.4952 24.0214 24.6053C24.3517 24.7154 24.7922 25.7064 24.6821 26.0368C24.6821 26.257 24.4618 26.6975 24.1315 26.8076ZM12.5693 22.7333C12.4592 22.8434 12.4592 22.9535 12.3491 23.0637C12.3491 23.0637 12.3491 23.0637 12.3491 23.1738C12.4592 23.1738 12.4592 23.0637 12.5693 22.9535C12.5693 22.8434 12.5693 22.7333 12.5693 22.7333Z" fill="#96C33D"/>
<path d="M33.2711 37.8192H32.9408L32.8306 35.0663C32.7205 32.2033 32.8306 26.8076 32.9408 24.2749C33.0509 23.0636 33.0509 22.7333 32.9408 22.6232C32.7205 22.2928 32.5003 22.1827 32.1699 22.2928C31.9497 22.2928 31.8396 22.403 31.8396 22.403C31.8396 22.403 31.7295 22.1827 31.6194 21.8524C31.5093 21.6321 31.1789 21.1917 31.0688 20.9714C30.6283 20.531 30.1879 20.531 29.8575 20.8613C29.6373 21.1917 29.6373 21.4119 29.8575 21.7423C30.7384 22.8434 30.7384 24.1648 29.8575 25.0457C29.1968 25.8165 27.8754 25.9267 26.9945 25.3761C26.4439 25.0457 26.1136 24.4952 25.8933 23.9446C25.7832 23.5041 25.7832 23.394 25.8933 22.8434C26.0035 22.2928 26.0035 22.1827 25.8933 21.9625C25.7832 21.7423 25.6731 21.6321 25.4529 21.6321C25.3428 21.6321 25.3428 21.6321 25.2326 21.6321C25.1225 21.6321 25.0124 21.7423 24.9023 21.7423C24.7922 21.8524 24.5719 22.0726 24.4618 22.403L24.3517 22.8434H23.691C23.0303 22.8434 22.8101 22.8434 22.3696 23.0636C21.7089 23.394 21.0482 24.0547 20.828 24.7154C20.7179 24.9356 20.6078 25.1559 20.6078 25.1559C20.6078 25.266 19.9471 24.8255 19.9471 24.7154C19.9471 24.6053 19.837 24.4952 19.7268 24.385C19.3965 24.0547 18.956 24.0547 18.6257 24.385C18.2953 24.8255 18.4055 25.3761 19.0661 25.9267C19.5066 26.3671 19.837 26.4772 20.2774 26.5874C20.6078 26.5874 20.6078 26.6975 20.828 27.0278C21.0482 27.5784 21.7089 28.129 22.2595 28.4593C22.5899 28.6796 22.8101 28.6796 23.5809 28.6796C24.3517 28.6796 24.4618 28.6796 25.0124 28.3492C25.563 28.0189 26.0035 27.6885 26.2237 27.1379C26.3338 27.0278 26.3338 26.9177 26.3338 26.9177C26.3338 26.9177 26.554 26.9177 26.8844 27.0278L27.435 27.2481V28.2391C27.435 28.7897 27.5451 30.1111 27.5451 31.2122V33.0842H27.3248C26.9945 33.1943 26.7743 33.6348 26.8844 34.0752C27.1046 34.9562 27.7653 35.727 28.5361 36.1674C29.1968 36.4978 29.6373 36.6079 30.298 36.3877C30.9587 36.2776 31.0688 36.1674 31.289 35.8371C31.289 35.727 31.3991 35.6169 31.3991 35.727C31.3991 35.727 31.3991 36.718 31.5093 37.9293V40.0215H31.289C31.1789 40.0215 30.8486 40.0215 30.6283 40.0215C30.298 39.9114 30.1879 39.9114 29.9676 40.0215C29.6373 40.1316 29.5272 40.3519 29.6373 40.7923C29.7474 41.2328 30.1879 41.453 31.0688 41.453C31.8396 41.453 32.6104 41.1227 33.161 40.5721C33.6015 40.1316 34.0419 39.3608 34.0419 38.8102C34.0419 38.1495 33.8217 37.8192 33.2711 37.8192ZM25.1225 26.0368C25.0124 26.3671 24.6821 26.9177 24.2416 27.0278C22.9202 27.5784 21.7089 26.3671 22.2595 25.0457C22.5899 24.2749 23.4708 23.8345 24.2416 24.1648C24.6821 24.4952 25.2326 25.5963 25.1225 26.0368ZM31.3991 30.3313C31.3991 32.9741 31.3991 35.2865 31.3991 35.2865C31.3991 35.2865 31.3991 35.2865 31.289 35.1764C31.1789 35.0663 31.0688 34.8461 30.9587 34.8461C30.7384 34.7359 30.6283 34.7359 30.298 34.8461C29.8575 35.0663 29.6373 35.0663 29.3069 34.8461C28.9766 34.7359 28.9766 34.5157 28.9766 30.3313V27.0278H29.1968C29.6373 27.0278 30.5182 26.4772 30.9587 25.9267C31.1789 25.5963 31.5093 25.3761 31.5093 25.3761C31.5093 25.4862 31.3991 27.6885 31.3991 30.3313ZM31.289 45.7475C31.0688 45.4172 30.8486 45.3071 30.298 45.5273C29.8575 45.6374 29.7474 45.6374 29.417 45.5273L29.0867 45.4172V41.3429C29.1968 36.9383 29.0867 36.8281 28.6462 36.6079C28.426 36.4978 28.3159 36.4978 27.9855 36.6079C27.8754 36.6079 27.7653 36.718 27.6552 36.8281C27.6552 36.9383 27.5451 38.2597 27.5451 40.2417C27.5451 43.5452 27.5451 43.5452 27.3248 43.5452C26.9945 43.6553 26.7743 43.9857 26.7743 44.316C26.7743 45.0868 27.8754 46.5183 28.7564 46.7386C29.5272 46.9588 29.7474 46.9588 30.4081 46.8487C31.289 46.7386 31.6194 46.188 31.289 45.7475ZM33.7116 48.7207C33.4913 48.7207 33.3812 48.7207 33.3812 48.6105C33.3812 48.6105 33.3812 47.7296 33.2711 46.6285C33.0509 42.3339 33.0509 42.6643 32.8306 42.4441C32.5003 42.2238 32.1699 42.2238 31.8396 42.5542L31.6194 42.7744L31.7295 44.0958C31.8396 45.4172 31.9497 48.5004 32.1699 50.0421V50.8129L31.9497 50.923C31.8396 50.923 31.3991 50.923 31.0688 50.923C30.5182 50.923 30.5182 50.923 30.298 51.1432C30.0777 51.4736 30.0777 51.5837 30.1879 52.0241C30.298 52.3545 30.7384 52.4646 31.5093 52.4646C32.0598 52.4646 32.2801 52.4646 32.7205 52.2444C33.6015 51.8039 34.3723 50.7028 34.4824 49.8218C34.5925 49.051 34.2622 48.7207 33.7116 48.7207ZM28.0957 48.8308C27.7653 48.5004 27.435 48.5004 27.1046 48.8308C26.8844 49.051 26.8844 49.1611 26.8844 49.4915C26.8844 50.923 26.0035 59.0716 25.563 61.8245C25.3428 63.0357 25.3428 63.256 25.7832 63.4762C26.3338 63.6964 26.8844 63.4762 26.9945 62.8155C27.435 60.0626 27.8754 56.4288 28.2058 52.5747C28.426 49.1611 28.426 49.1611 28.0957 48.8308ZM34.9228 59.6221C34.7026 58.0805 34.3723 56.3187 34.2622 55.5479C34.152 54.777 34.0419 54.1163 34.0419 54.0062C33.9318 53.4557 33.2711 53.2354 32.8306 53.5658C32.7205 53.6759 32.6104 53.8961 32.6104 54.1163C32.6104 54.777 33.9318 62.5953 34.0419 63.0357C34.2621 63.4762 34.8127 63.5863 35.2532 63.256C35.5835 63.0357 35.5835 63.3661 34.9228 59.6221Z" fill="#96C33D"/>
<path d="M61.7911 17.1174C61.681 17.3376 61.5709 17.5579 61.2405 17.7781C61.1304 17.7781 61.0203 17.8882 60.9102 17.8882C60.69 17.8882 60.4697 17.7781 59.809 17.668C56.1752 16.4567 51.8807 15.6859 48.4671 15.6859C47.4761 15.6859 46.5951 15.796 45.8243 15.9061C45.494 16.0162 45.2737 16.0162 45.0535 16.0162C44.8333 16.0162 44.7232 16.0162 44.5029 15.9061C44.0625 15.6859 43.9523 15.3555 43.9523 14.9151C43.9523 13.8139 45.494 13.7038 48.5772 13.7038H48.7974C50.7795 13.7038 52.3212 13.8139 54.5235 14.2544C55.2943 14.3645 56.946 14.6949 57.9371 15.0252C57.7168 14.805 57.4966 14.5847 57.1663 14.3645C54.4134 12.0521 50.3391 10.07 47.2558 9.51941C46.8154 9.40929 46.1547 9.40929 45.3839 9.40929C44.2827 9.40929 43.4018 9.5194 42.8512 9.62952C40.6489 10.2902 37.4555 11.6116 36.024 12.6027C35.3633 13.0431 34.2621 14.0342 33.7116 14.6949C33.4913 15.0252 33.2711 15.1353 32.8306 15.1353C32.3902 15.1353 32.0598 14.9151 31.9497 14.5847C31.7295 14.2544 31.8396 13.7038 32.1699 13.1532C32.8306 12.2723 34.0419 11.1711 35.3633 10.4003C37.2353 9.29917 41.4197 7.64743 43.1815 7.31709C43.7321 7.20697 44.2827 7.20697 44.9434 7.20697C46.485 7.20697 48.1367 7.4272 49.4581 7.86767C53.8628 9.18906 58.5978 12.1622 60.8001 15.0252C61.681 15.9061 62.0114 16.5668 61.7911 17.1174Z" fill="#96C33D"/>
<path d="M34.9228 8.74859C34.9228 9.29917 34.4824 9.73963 33.9318 9.73963C33.2711 9.73963 33.0509 9.40928 32.8306 8.96882C31.8396 6.32604 31.0688 4.56418 30.7384 3.90348C30.298 5.00464 29.0867 7.64743 28.6462 8.8587C28.426 9.5194 28.3159 9.73963 27.9855 9.95986C27.8754 10.07 27.6552 10.07 27.5451 10.07C27.1046 10.07 26.7743 9.84975 26.6641 9.5194C26.554 9.18905 26.554 8.96882 26.6641 8.52835C27.2147 6.43615 29.5272 1.48093 30.1879 0.930354C30.298 0.710122 30.6283 0.600006 30.8486 0.600006C31.0688 0.600006 31.289 0.710122 31.5092 0.820238C32.1699 1.48093 34.9228 7.86766 34.9228 8.74859Z" fill="#96C33D"/>
<path d="M30.5182 14.0342C30.5182 14.3645 30.4081 14.5847 30.1879 14.805C29.9676 15.0252 29.7474 15.0252 29.5272 15.0252C29.1968 15.0252 28.8665 14.9151 28.6462 14.5847C27.6552 13.3735 26.3338 12.3824 24.5719 11.5015C22.8101 10.6206 19.9471 9.5194 18.6257 9.29917C18.4054 9.29917 17.965 9.18905 17.4144 9.18905C16.3132 9.18905 15.102 9.29917 14.4413 9.40928C11.4681 10.07 8.27478 11.6116 5.52188 13.8139C5.19154 14.1443 4.75107 14.4746 4.42072 14.805C8.16467 13.8139 10.6973 13.4836 13.7806 13.4836H13.8907C17.1942 13.4836 17.965 13.8139 18.1852 14.1443C18.5156 14.4746 18.5156 15.1353 18.2953 15.4657C18.1852 15.5758 18.0751 15.6859 17.965 15.796C17.8549 15.9061 17.6346 15.9061 17.4144 15.9061C17.1942 15.9061 16.9739 15.9061 16.7537 15.796C15.9829 15.6859 15.102 15.5758 14.1109 15.5758C10.6973 15.5758 6.2927 16.3466 2.54875 17.5579C1.99817 17.7781 1.77794 17.7781 1.55771 17.7781C1.33748 17.7781 1.22736 17.7781 1.11725 17.668C0.786899 17.5579 0.676783 17.2275 0.566667 17.0073C0.456551 16.3466 1.00713 15.3555 2.21841 14.0342C5.19154 10.8408 10.367 8.08789 14.6615 7.20696C15.3222 7.20696 16.2031 7.09685 17.0841 7.09685C17.965 7.09685 18.7358 7.20696 19.2864 7.31708C21.2685 7.64743 25.1225 9.29917 26.9945 10.4003C28.7563 11.5015 30.5182 13.0431 30.5182 14.0342Z" fill="#96C33D"/>
<path d="M18.5156 24.0547C18.7358 23.8345 18.956 23.7243 19.2864 23.7243C18.956 23.8345 18.7358 23.9446 18.4055 24.1648C18.4055 24.1648 18.4055 24.1648 18.5156 24.0547Z" fill="#96C33D"/>
<path d="M25.8933 21.3018C25.6731 21.3018 25.563 21.4119 25.3427 21.522C25.2326 21.522 25.1225 21.6322 25.0124 21.6322C24.7922 21.6322 24.6821 21.7423 24.4618 21.8524C24.5719 21.7423 24.6821 21.522 24.9023 21.4119C25.0124 21.3018 25.1225 21.3018 25.3427 21.3018H25.4529C25.563 21.3018 25.563 21.3018 25.6731 21.3018C25.6731 21.3018 25.7832 21.3018 25.8933 21.3018Z" fill="#96C33D"/>
<path d="M29.9676 19.7602C29.7474 20.0905 29.3069 20.3108 26.3338 21.1917C26.2237 21.1917 26.0035 21.3018 25.8933 21.3018C25.7832 21.3018 25.6731 21.1917 25.563 21.1917C25.4529 21.1917 25.4529 21.1917 25.3428 21.1917C25.3428 21.1917 25.3428 21.1917 25.2326 21.1917C25.1225 21.1917 24.9023 21.1917 24.7922 21.3018C24.5719 21.4119 24.4618 21.6322 24.3517 21.7423C22.0393 22.5131 20.3875 23.0637 19.0661 23.7244C18.8459 23.7244 18.5156 23.8345 18.2953 24.0547C18.2953 24.0547 18.2953 24.1648 18.1852 24.1648C17.1942 24.7154 16.3133 25.3761 15.4323 26.1469C13.1199 28.0189 9.81641 31.7628 7.72421 34.7359C7.39386 35.2865 6.9534 35.6169 6.62305 35.6169C6.51293 35.6169 6.40282 35.6169 6.2927 35.5068C5.74212 35.2865 5.632 34.8461 5.632 34.0753C5.632 33.0842 5.85224 31.7628 6.40282 30.2212C6.62305 29.4504 6.9534 28.5695 7.28374 27.7986C7.72421 26.5874 9.37595 22.6232 12.5693 19.4298C12.5693 19.3197 12.6794 19.3197 12.7895 19.2096L12.8997 19.0995C13.23 18.8793 13.4502 18.5489 13.7806 18.3287L13.8907 18.2186L14.0008 18.1084L14.221 17.9983L14.5514 17.7781C14.8817 17.5579 15.3222 17.2275 15.7627 17.0073C15.8728 16.8972 16.093 16.7871 16.2031 16.7871L16.7537 16.4567C16.9739 16.3466 17.3043 16.1264 17.6346 16.0162C17.7448 16.0162 17.8549 15.9061 18.0751 15.9061V15.796H18.2953L18.5156 15.6859C19.6167 15.2454 21.4887 14.805 22.5899 14.5847C22.8101 14.5847 23.4708 14.5847 24.1315 14.5847H24.3517C25.563 14.5847 26.4439 14.805 27.435 15.1353C27.9855 15.3555 29.1968 16.0162 29.417 16.4567C29.6373 16.8972 29.5272 17.3376 29.1968 17.668C28.9766 17.8882 28.7564 17.9983 28.5361 17.9983C28.3159 17.9983 27.9855 17.8882 27.7653 17.668C27.3248 17.3376 26.6641 17.0073 25.8933 16.8972C25.563 16.7871 25.1225 16.7871 24.5719 16.7871C23.5809 16.7871 22.4797 16.8972 21.7089 17.1174C20.9381 17.3376 20.1673 17.5579 19.2864 17.8882H19.1763C18.8459 17.9983 18.5156 18.1084 18.2953 18.3287L17.7448 18.5489C17.4144 18.659 17.1942 18.7691 16.9739 18.8793H16.8638L16.7537 18.9894C16.6436 19.0995 16.5335 19.0995 16.5335 19.0995C16.5335 19.0995 16.5335 19.0995 16.4234 19.0995C16.3132 19.0995 16.3133 19.2096 16.3133 19.2096C15.8728 19.5399 15.3222 19.9804 14.8817 20.4209L14.7716 20.531L14.5514 20.4209L14.4413 20.531L14.1109 20.8613L14.0008 20.9715C13.7806 21.1917 13.5604 21.522 13.3401 21.7423L13.1199 21.9625C13.1199 21.9625 13.0098 22.0726 13.0098 22.1827V22.2928L12.8997 22.403L12.7895 22.5131L12.5693 22.6232C12.4592 22.7333 12.4592 22.8434 12.3491 22.9535C12.3491 22.9535 12.3491 22.9535 12.3491 23.0637C12.239 23.1738 12.239 23.2839 12.1288 23.394L12.0187 23.5041C11.358 24.4952 10.6973 25.7064 10.1468 26.9177C10.0366 27.0278 10.0366 27.2481 9.92653 27.3582C9.81641 27.4683 9.81641 27.6885 9.70629 27.7986C9.59618 28.0189 9.59618 28.129 9.48606 28.3492V28.4593L9.26583 28.8998C9.0456 29.4504 8.82537 29.8908 8.71525 30.2212C11.0277 27.3582 14.3312 24.2749 16.3133 22.9535C18.2953 21.6322 21.0482 20.531 25.2326 19.3197C27.435 18.659 28.3159 18.3287 28.5361 18.2186C28.7564 18.1084 28.9766 18.1084 29.0867 18.1084C29.3069 18.1084 29.6373 18.2186 29.8575 18.4388C30.1879 18.7691 30.1879 19.3197 29.9676 19.7602Z" fill="#96C33D"/>
<path d="M25.2326 21.1917C25.1225 21.1917 25.0124 21.3018 24.7922 21.3018C25.0124 21.3018 25.1225 21.1917 25.2326 21.1917Z" fill="#96C33D"/>
<path d="M53.9729 35.1764C53.9729 35.727 53.8628 35.9472 53.5324 36.1675C53.3122 36.3877 53.092 36.4978 52.8717 36.4978C52.6515 36.4978 52.4313 36.3877 52.211 36.1675C51.9908 35.9472 51.4402 35.1764 50.9998 34.4056C50.1188 33.0842 49.7885 32.5336 48.5772 30.992C46.9255 28.7897 44.7232 26.4773 42.9613 25.266C42.631 25.0457 40.4286 23.8345 38.6668 23.0637C38.4465 22.9535 38.1162 22.8434 37.896 22.7333C37.6757 22.7333 37.5656 22.6232 37.3454 22.6232H37.2353H37.1252L36.7948 22.5131C35.8038 22.1827 34.3723 21.7423 33.2711 21.4119C31.8396 20.9715 31.1789 20.6411 31.1789 20.2006C31.1789 19.7602 31.1789 19.4298 31.3991 19.2096C31.6194 18.9894 31.9497 18.8793 32.2801 18.8793C32.5003 18.8793 32.7205 18.8793 32.8306 19.0995C32.9407 19.2096 34.152 19.54 36.2442 20.2006L37.015 20.4209C37.3454 20.531 37.5656 20.6411 37.7859 20.6411C37.7859 20.6411 37.896 20.6411 38.0061 20.7512L38.2263 20.8613H38.3364H38.4465H38.5567C38.7769 20.9715 38.887 20.9715 38.9971 21.0816C39.1072 21.0816 39.3275 21.1917 39.5477 21.3018L39.8781 21.4119L40.759 21.7423H40.8691L41.0893 21.8524C41.4197 21.9625 41.75 22.1827 41.9703 22.2929C42.1905 22.403 42.4107 22.5131 42.7411 22.6232L43.0714 22.8434C43.2916 22.9535 43.5119 23.0637 43.622 23.1738L43.8422 23.2839L43.9523 23.394C44.3928 23.6142 44.613 23.9446 44.9434 24.1648C45.6041 24.7154 46.7052 25.7064 47.4761 26.4773C48.7974 27.7986 50.229 29.5605 51.22 30.992C50.9998 30.4414 50.7795 29.7807 50.6694 29.12C49.0177 24.3851 46.5951 20.6411 44.1726 18.8793C43.1815 18.1084 41.3096 17.2275 39.7679 16.7871C38.5567 16.4567 37.7859 16.3466 36.6847 16.3466H36.5746C35.1431 16.3466 34.2621 16.6769 33.2711 17.3376C33.0509 17.5579 32.5003 17.8882 32.2801 17.8882C31.9497 17.8882 31.5092 17.668 31.3991 17.3376C31.1789 17.0073 31.1789 16.6769 31.3991 16.3466C31.8396 15.4657 33.8217 14.4746 35.5835 14.2544C35.8038 14.2544 36.1341 14.1443 36.4645 14.1443C37.7858 14.1443 39.4376 14.4746 40.8691 14.9151C42.3006 15.3555 44.3928 16.4567 45.2737 17.1174C48.1367 19.2096 50.7795 23.5041 52.6515 28.6796C53.5324 31.3224 54.083 33.9651 53.9729 35.1764Z" fill="#96C33D"/>
</g>
<defs>
<clipPath id="clip0_33_1043">
<rect width="61.3346" height="63.3167" fill="white" transform="translate(0.566666 0.600006)"/>
</clipPath>
</defs>
</svg>
