<svg width="16" height="17" viewBox="0 0 16 17" fill="none" xmlns="http://www.w3.org/2000/svg">
<path d="M14.2857 0.176514H1.71429C0.767857 0.176514 0 0.966955 0 1.94122V14.8824C0 15.8567 0.767857 16.6471 1.71429 16.6471H14.2857C15.2321 16.6471 16 15.8567 16 14.8824V1.94122C16 0.966955 15.2321 0.176514 14.2857 0.176514ZM12.5393 6.01475C12.5464 6.11769 12.5464 6.22431 12.5464 6.32725C12.5464 9.51475 10.1893 13.1875 5.88214 13.1875C4.55357 13.1875 3.32143 12.7905 2.28571 12.1067C2.475 12.1287 2.65714 12.1361 2.85 12.1361C3.94643 12.1361 4.95357 11.7537 5.75714 11.1067C4.72857 11.0846 3.86429 10.3897 3.56786 9.43387C3.92857 9.48901 4.25357 9.48901 4.625 9.38975C3.55357 9.16548 2.75 8.1949 2.75 7.0221V6.99269C3.06071 7.17284 3.425 7.28313 3.80714 7.29784C3.48587 7.07785 3.22249 6.77941 3.04053 6.42914C2.85856 6.07888 2.76365 5.68769 2.76429 5.29048C2.76429 4.84196 2.87857 4.43019 3.08214 4.07357C4.23571 5.53681 5.96786 6.49269 7.91071 6.59563C7.57857 4.9596 8.76786 3.6324 10.1964 3.6324C10.8714 3.6324 11.4786 3.92284 11.9071 4.39343C12.4357 4.29048 12.9429 4.08828 13.3929 3.81254C13.2179 4.37137 12.85 4.84196 12.3643 5.13975C12.8357 5.08828 13.2929 4.95225 13.7143 4.76475C13.3964 5.24637 12.9964 5.67284 12.5393 6.01475Z" fill="#96C33D"/>
</svg>
