<svg width="20" height="20" viewBox="0 0 20 20" fill="none" xmlns="http://www.w3.org/2000/svg">
<path d="M17.3278 0.375H2.63492C1.52878 0.375 0.631348 1.29883 0.631348 2.4375V17.5625C0.631348 18.7012 1.52878 19.625 2.63492 19.625H17.3278C18.4339 19.625 19.3313 18.7012 19.3313 17.5625V2.4375C19.3313 1.29883 18.4339 0.375 17.3278 0.375ZM15.2866 7.19844C15.295 7.31875 15.295 7.44336 15.295 7.56367C15.295 11.2891 12.5401 15.5816 7.5061 15.5816C5.95333 15.5816 4.51327 15.1176 3.30278 14.3184C3.524 14.3441 3.73688 14.3527 3.96229 14.3527C5.24374 14.3527 6.42083 13.9059 7.36001 13.1496C6.15787 13.1238 5.14773 12.3117 4.80128 11.1945C5.22287 11.259 5.60271 11.259 6.03682 11.143C4.78458 10.8809 3.84541 9.74648 3.84541 8.37578V8.34141C4.20856 8.55195 4.63432 8.68086 5.08095 8.69805C4.70545 8.44094 4.39764 8.09213 4.18496 7.68276C3.97229 7.27339 3.86137 6.81619 3.86211 6.35195C3.86211 5.82773 3.99568 5.34648 4.2336 4.92969C5.58184 6.63984 7.60628 7.75703 9.87699 7.87734C9.4888 5.96523 10.8788 4.41406 12.5484 4.41406C13.3373 4.41406 14.0469 4.75352 14.5478 5.30352C15.1656 5.1832 15.7583 4.94687 16.2842 4.62461C16.0797 5.27773 15.6498 5.82773 15.0821 6.17578C15.6331 6.11562 16.1674 5.95664 16.6599 5.7375C16.2884 6.30039 15.8209 6.79883 15.2866 7.19844Z" fill="white"/>
</svg>
