<svg width="69" height="47" viewBox="0 0 69 47" fill="none" xmlns="http://www.w3.org/2000/svg">
<path d="M68.3334 35.1746C68.3334 35.1517 68.3334 35.1287 68.3334 35.1058C68.3334 35.0828 68.3334 35.0369 68.3104 35.0139C68.2875 34.945 68.2646 34.8762 68.2417 34.8073L58.5488 12.1468C58.3655 11.7336 57.9531 11.458 57.4948 11.458H31.6701C31.2118 11.458 30.7993 11.7336 30.6389 12.1468L27.2476 20.0676L25.5519 12.6519V12.629L22.9396 1.14949C22.8251 0.667348 22.4355 0.322964 21.9543 0.277046C21.9314 0.277046 21.9314 0.277046 21.9085 0.277046C21.8856 0.277046 21.8626 0.277046 21.8397 0.277046H7.1286C7.10568 0.277046 7.05985 0.277046 7.03694 0.277046C6.55573 0.322964 6.14327 0.667348 6.0287 1.14949L3.46227 12.3994L3.41644 12.6519L0.964583 23.2819C0.918753 23.3278 0.872924 23.3967 0.827095 23.4656C0.643779 23.7411 0.620864 24.0855 0.712522 24.4069C0.689608 24.6824 0.758352 24.9579 0.918753 25.1875L7.1286 34.0037C7.38066 34.3251 8.22849 35.1057 10.5199 35.542C10.5429 35.542 10.5429 35.542 10.5658 35.542C11.0928 35.6338 11.6886 35.7256 12.376 35.7716H12.3989C12.4448 35.7716 12.4906 35.7716 12.5364 35.7716C13.0864 35.7945 13.6363 35.8175 14.1404 35.8175H14.1863C14.2321 35.8175 14.3008 35.8175 14.3467 35.8175H14.4613H14.7362C15.2862 35.8175 15.8361 35.7945 16.409 35.7486C16.4319 35.7486 16.4319 35.7486 16.4548 35.7486H16.4777H16.5006H16.5236C17.1881 35.7027 17.8068 35.6108 18.3338 35.519H18.3796C19.6629 35.2665 20.4878 34.9221 21.0148 34.6236C21.0377 34.6236 21.0606 34.6007 21.0606 34.6007C21.0148 34.6466 20.969 34.7154 20.9461 34.7843C20.9232 34.8302 20.9002 34.8762 20.9002 34.9221C20.9002 34.945 20.8773 34.968 20.8773 34.991C20.8773 35.0139 20.8544 35.0369 20.8544 35.0598C20.8315 35.1746 20.8315 35.2665 20.8315 35.3583V35.3813C20.8315 35.4042 20.8315 35.4272 20.8315 35.4501C20.8315 35.4501 20.8315 35.4501 20.8315 35.4731C20.8315 35.496 20.8315 35.519 20.8544 35.542C20.8544 35.5649 20.8773 35.5879 20.8773 35.6108C20.8773 35.6338 20.9002 35.6568 20.9002 35.6797C20.9232 35.7486 20.969 35.8175 21.0148 35.8864C21.0377 35.9323 21.0836 35.9782 21.1065 36.0011C21.1523 36.0471 21.221 36.093 21.2669 36.1389L21.3814 36.2307C24.6582 38.7792 32.3346 44.7485 32.8616 45.1388C32.9533 45.2077 33.045 45.2536 33.1366 45.2995C36.2301 46.4704 40.4693 46.6311 42.7149 46.6311C43.6773 46.6311 44.3418 46.6082 44.5481 46.5852C45.1209 46.6082 45.7396 46.6311 46.3812 46.6311C48.6268 46.6311 52.8431 46.4475 55.9595 45.2995C56.0741 45.2536 56.1657 45.2077 56.2345 45.1388C56.8303 44.6796 66.9585 36.8047 67.8063 36.1389L67.8292 36.1159C67.8521 36.093 67.8751 36.07 67.898 36.07C67.898 36.07 67.898 36.07 67.9209 36.07C67.9438 36.0471 67.9438 36.0471 67.9667 36.0241C67.9667 36.0241 67.9896 36.0241 67.9896 36.0011C68.0126 35.9782 68.0355 35.9552 68.0584 35.9323C68.0584 35.9093 68.0813 35.9093 68.1042 35.8864C68.1042 35.8864 68.1042 35.8634 68.1271 35.8634C68.15 35.8404 68.15 35.8175 68.173 35.7945C68.1959 35.7716 68.1959 35.7486 68.2188 35.7027C68.2188 35.7027 68.2188 35.6797 68.2417 35.6568C68.2417 35.6338 68.2417 35.6338 68.2646 35.6108C68.2646 35.5879 68.2875 35.5649 68.2875 35.519C68.2875 35.496 68.3104 35.4501 68.3104 35.4272C68.3334 35.3583 68.3334 35.2665 68.3334 35.1746ZM21.8397 0.62143C21.8397 0.62143 21.8626 0.62143 21.8856 0.62143C21.8626 0.62143 21.8397 0.62143 21.8168 0.62143H21.8397ZM7.08277 0.62143H7.1286C7.10568 0.62143 7.08277 0.62143 7.05985 0.62143H7.08277ZM4.58508 17.634V17.5881L5.57041 13.3866L5.2496 13.3177L5.57041 13.3866L7.99935 2.57294H20.9461L23.375 13.3636L23.4208 13.5244L24.3374 17.5422V17.5651V17.8406H24.4062L25.6665 23.3278H25.5519L25.5977 23.4196C21.1065 24.4528 16.9131 24.9809 13.0864 24.9809C7.83895 24.9809 4.608 23.9707 3.27895 23.4426L4.58508 17.634ZM18.2192 35.2205C18.2422 35.1976 18.2422 35.1976 18.2651 35.1976C18.2651 35.2205 18.2422 35.2205 18.2192 35.2205ZM20.0295 32.5343C19.8691 32.6491 18.9067 33.3379 16.0194 33.4986H15.9049C15.7674 33.4986 15.6299 33.4986 15.4924 33.5216H15.057H14.7591C14.6675 33.5216 14.5758 33.5216 14.4613 33.5216C14.3696 33.5216 14.2779 33.5216 14.1863 33.5216C14.0946 33.5216 13.98 33.5216 13.8884 33.5216C13.7509 33.5216 13.6134 33.5216 13.4759 33.5216H13.4072C13.2926 33.5216 13.1551 33.5216 13.0176 33.4986C12.9947 33.4986 12.9489 33.4986 12.9031 33.4986C10.0617 33.3379 9.07633 32.6721 8.91593 32.5343L4.51634 26.2895C6.39533 26.7946 9.19091 27.2997 12.9947 27.2997C16.5694 27.2997 20.4878 26.8635 24.6582 25.9681L20.0295 32.5343ZM55.02 43.2791C52.2703 44.2664 48.3977 44.4041 46.3354 44.4041C45.3042 44.4041 44.6397 44.3582 44.6397 44.3582H44.6168H44.5022C44.5022 44.3582 43.8148 44.4041 42.7836 44.4041C40.7213 44.4041 36.8717 44.2434 34.1219 43.2791C33.2283 42.5904 28.6454 39.0317 26.1706 37.1032C30.5473 37.7231 37.7654 38.5266 45.9917 38.5266C51.9724 38.5266 57.5864 38.1134 62.7193 37.2868C59.4654 39.8353 55.822 42.6822 55.02 43.2791ZM46.0146 36.2537C35.5656 36.2537 26.858 34.968 23.5812 34.394L26.8122 26.8405L28.0037 25.1645C28.1871 24.889 28.2558 24.5676 28.1871 24.2462L28.0954 23.8559L32.4263 13.7539H56.7386L65.6065 34.4629C59.7404 35.6568 53.1639 36.2537 46.0146 36.2537Z" fill="#96C33D"/>
</svg>
