<svg width="22" height="21" viewBox="0 0 22 21" fill="none" xmlns="http://www.w3.org/2000/svg">
<path d="M9.72187 7.99685H12.0526V13.8237H9.72187V7.99685ZM9.7207 14.9891H12.0515V17.3199H9.7207V14.9891Z" fill="#BF761B"/>
<path d="M12.9459 1.23763C12.5404 0.474309 11.7502 0 10.8855 0C10.0208 0 9.2307 0.47431 8.82515 1.2388L0.273595 17.3944C0.0838341 17.7492 -0.0101647 18.1473 0.000870954 18.5495C0.0119066 18.9517 0.127595 19.3441 0.336526 19.6879C0.542446 20.0333 0.834888 20.319 1.18498 20.5169C1.53507 20.7147 1.9307 20.8178 2.33282 20.816H19.4383C20.2633 20.816 21.0104 20.3941 21.4357 19.6879C21.6443 19.344 21.7598 18.9516 21.7708 18.5495C21.7819 18.1474 21.6881 17.7493 21.4986 17.3944L12.9459 1.23763ZM2.33282 18.4852L10.8855 2.32959L19.4441 18.4852H2.33282Z" fill="#BF761B"/>
</svg>
