<svg width="62" height="52" viewBox="0 0 62 52" fill="none" xmlns="http://www.w3.org/2000/svg">
<path fill-rule="evenodd" clip-rule="evenodd" d="M33.2751 10.4895C39.2261 16.3334 43.619 20.7366 43.7147 20.9536C43.8386 21.2338 43.8489 21.4106 43.7561 21.6554C43.6095 22.0419 40.8821 24.7857 40.3897 25.0419C39.8727 25.3109 39.5075 25.1521 38.5869 24.2576L37.7525 23.447L34.5481 26.5999C32.7857 28.3341 31.3681 29.7762 31.3978 29.8045C31.4276 29.8329 33.668 30.4374 36.3765 31.148L41.3011 32.4399L42.0264 31.7929C42.8336 31.073 44.2969 30.3233 45.2852 30.1234C46.0909 29.9604 47.5056 29.9598 48.2758 30.1223C48.9385 30.2621 49.3532 30.6505 49.3532 31.1315C49.3532 31.2882 48.6271 34.0843 47.7394 37.3449C46.5271 41.7984 46.0611 43.3413 45.866 43.5475C45.6458 43.7803 45.5206 43.8139 45.0399 43.7691C44.2474 43.6954 42.887 43.0008 42.0143 42.2241C41.0952 41.4062 40.4335 40.4211 40.0664 39.3244C39.9105 38.8582 39.7781 38.4646 39.7724 38.4495C39.755 38.4035 25.801 35.6109 25.5888 35.6109C25.4798 35.6109 23.7016 37.2691 21.6371 39.2957C17.9857 42.8803 17.8709 42.9806 17.4158 42.9806C16.9555 42.9806 16.8204 42.8551 8.87756 35.0552C4.43864 30.6963 0.730278 26.9877 0.636787 26.814C0.543179 26.6402 0.466698 26.3791 0.466698 26.2337C0.466698 26.0436 1.4254 25.0244 3.88447 22.6007L7.30225 19.232L4.7228 16.6886C3.30402 15.2896 2.08756 13.9978 2.01941 13.8178C1.92699 13.5734 1.93734 13.3956 2.06044 13.1159C2.15346 12.9045 4.50061 10.5115 7.44772 7.62349C12.2808 2.88722 12.7002 2.50563 13.0748 2.50563C13.4435 2.50563 13.7198 2.74123 16.1925 5.1647L18.9055 7.82364L19.6422 7.09907L20.3791 6.37438L19.5222 5.50534C18.7629 4.73515 18.6653 4.5853 18.6653 4.18956C18.6653 3.77077 18.7715 3.63835 20.3648 2.07141C21.9759 0.486917 22.0887 0.400002 22.5326 0.400002C22.9947 0.400002 23.1378 0.534411 33.2751 10.4895ZM21.7298 3.52722L21.0408 4.19786L30.4672 13.4691L39.8936 22.7403L40.6404 22.0123L41.3871 21.2845L32.0188 12.0706C26.8663 7.00292 22.5985 2.85657 22.5347 2.85657C22.4711 2.85657 22.1089 3.15838 21.7298 3.52722ZM8.70271 9.20365L4.3913 13.445L6.59238 15.6074L8.79346 17.7697L13.1344 13.5017L17.4753 9.23372L15.3061 7.09802C14.1129 5.92331 13.1092 4.96221 13.0755 4.96221C13.0418 4.96221 11.074 6.87085 8.70271 9.20365ZM10.2201 33.4464L17.4759 40.5823L26.9021 31.3119L36.3282 22.0415L29.0732 14.9056L21.818 7.7696L12.3912 17.0401L2.96443 26.3106L10.2201 33.4464ZM27.4353 33.8791C27.8609 34.0439 39.4855 36.3237 39.5866 36.2622C39.6441 36.2272 39.728 35.9568 39.7731 35.661C39.8182 35.3653 39.9289 34.9176 40.0192 34.6661C40.1818 34.213 40.1803 34.208 39.8617 34.1305C39.6849 34.0873 37.3189 33.4634 34.604 32.7438L29.6678 31.4356L28.4463 32.6167C27.4458 33.5841 27.2628 33.8124 27.4353 33.8791ZM45.4697 32.1477C42.9586 32.8052 41.2697 35.3547 41.7272 37.7969C41.9061 38.7512 42.3058 39.6093 42.8781 40.2668C43.3945 40.8602 44.3423 41.5252 44.4716 41.385C44.5226 41.3296 45.1137 39.2577 45.7849 36.7807C46.4562 34.3036 47.0309 32.2112 47.0621 32.1307C47.1397 31.9306 46.2633 31.9399 45.4697 32.1477ZM57.5681 33.7099C60.2911 35.0681 59.4372 39.0496 56.3641 39.3237C55.0551 39.4404 53.8101 38.5626 52.0354 36.2718C51.0738 35.0303 51.0767 34.4158 52.0464 34.0173C52.6593 33.7653 55.0373 33.3883 56.0137 33.3883C56.7701 33.3883 57.0315 33.4424 57.5681 33.7099ZM54.287 35.5819C54.1324 35.6669 54.2412 35.8255 54.8956 36.4691C55.7681 37.3272 56.1327 37.4911 56.5977 37.2344C57.2607 36.8685 57.3651 36.1207 56.8273 35.5917C56.5973 35.3656 56.486 35.3501 55.5255 35.4113C54.9478 35.4481 54.3904 35.5249 54.287 35.5819ZM56.7873 42.2876C58.4701 42.687 59.7762 43.2052 60.3483 43.7005C60.9092 44.1861 61.3667 45.1288 61.3667 45.7992C61.3667 47.4717 59.9802 48.8553 58.308 48.8513C56.3616 48.8468 55.4812 47.7716 54.6505 44.3843C54.2787 42.8685 54.2787 42.8465 54.6569 42.4047C55.0276 41.9713 55.3746 41.9522 56.7873 42.2876ZM50.8057 44.841C52.4772 45.911 53.6588 47.056 53.8689 47.809C54.4201 49.7852 53.0107 51.6374 50.959 51.6333C49.7707 51.631 48.773 51.0503 48.2554 50.06C47.9323 49.442 47.8492 47.9531 48.0416 46.2332C48.1959 44.8551 48.366 44.357 48.752 44.1539C49.1954 43.9204 49.5565 44.0412 50.8057 44.841ZM56.9042 44.94C57.1082 45.6718 57.4207 46.3822 57.6503 46.6362C57.871 46.8806 58.5952 46.9047 58.8991 46.6777C59.4315 46.2803 59.4005 45.367 58.8448 45.0726C58.5019 44.891 57.0723 44.3901 56.8873 44.3868C56.7852 44.3849 56.7896 44.5285 56.9042 44.94ZM49.9946 47.1419C49.9523 47.3075 49.9439 47.8433 49.9758 48.3326C50.0437 49.372 50.2636 49.6484 51.023 49.6484C51.5712 49.6484 51.97 49.2334 51.97 48.6626C51.97 48.2849 51.4523 47.6926 50.6021 47.0979C50.1419 46.7761 50.087 46.7801 49.9946 47.1419Z" fill="#96C33D"/>
</svg>
