<svg width="27" height="24" viewBox="0 0 27 24" fill="none" xmlns="http://www.w3.org/2000/svg">
<path d="M7.83439 1.05741C6.54288 1.05583 5.27741 1.41672 4.18497 2.09818C3.09253 2.77964 2.21795 3.7537 1.66279 4.90723C1.10764 6.06075 0.894701 7.34641 1.04871 8.61487C1.20272 9.88333 1.71735 11.0825 2.53284 12.0732L12.0683 21.591C12.8485 22.3698 14.1119 22.3703 14.8928 21.5922L24.3191 12.2L24.373 12.14L24.427 12.0732C25.019 11.367 25.4594 10.5489 25.7215 9.6689C25.9836 8.78885 26.0618 7.86524 25.9514 6.95433C25.841 6.04341 25.5443 5.16427 25.0793 4.37045C24.6144 3.57664 23.9909 2.88477 23.2469 2.33699C22.5029 1.78922 21.654 1.39701 20.7518 1.18425C19.8497 0.971498 18.9132 0.942655 17.9994 1.09948C17.0856 1.2563 16.2136 1.59551 15.4367 2.09644C14.6597 2.59737 13.9939 3.24954 13.4799 4.0132C12.8554 3.10254 12.015 2.35702 11.032 1.84177C10.0491 1.32652 8.95355 1.05723 7.84113 1.05741H7.83439Z" stroke="white" stroke-width="2" stroke-linecap="round" stroke-linejoin="round"/>
</svg>
